<?xml version="1.0" standalone="no"?>
<!DOCTYPE svg PUBLIC "-//W3C//DTD SVG 20010904//EN"
 "http://www.w3.org/TR/2001/REC-SVG-20010904/DTD/svg10.dtd">
<svg version="1.0" xmlns="http://www.w3.org/2000/svg"
 width="900.000000pt" height="900.000000pt" viewBox="0 0 900.000000 900.000000"
 preserveAspectRatio="xMidYMid meet">

<g transform="translate(0.000000,900.000000) scale(0.100000,-0.100000)"
fill="#000000" stroke="none">
<path d="M4370 8963 c-716 -22 -1430 -218 -2045 -563 -665 -373 -1230 -913
-1626 -1555 -367 -593 -577 -1220 -651 -1945 -17 -164 -17 -659 0 -820 63
-610 223 -1154 487 -1656 450 -859 1162 -1547 2033 -1966 460 -222 899 -347
1452 -415 206 -26 763 -26 970 0 507 62 913 173 1358 371 372 166 735 398
1069 683 155 133 432 416 559 573 351 434 630 951 792 1465 106 336 160 618
197 1025 38 424 -2 916 -114 1390 -70 299 -232 739 -354 961 -13 24 -46 85
-72 134 -269 499 -671 975 -1141 1351 -126 101 -435 310 -569 386 -521 295
-1116 489 -1694 553 -184 20 -483 33 -651 28z m-2040 -3141 l42 -73 38 6 c144
24 386 20 522 -9 388 -83 719 -325 916 -669 56 -98 105 -213 97 -227 -6 -9
-113 -36 -118 -29 -2 2 -16 34 -31 71 -131 315 -429 586 -761 692 -111 35
-164 46 -283 56 -95 9 -286 0 -299 -14 -11 -11 411 -689 642 -1033 350 -519
642 -880 795 -984 80 -54 79 -55 -140 -39 -701 49 -994 27 -1385 -105 -119
-40 -335 -134 -335 -146 0 -13 134 -74 237 -109 143 -47 269 -63 463 -57 91 3
205 13 254 22 165 29 367 95 495 159 87 45 81 23 -14 -47 -216 -160 -481 -252
-756 -264 -268 -12 -532 54 -758 189 -34 21 -64 38 -66 38 -7 0 -206 -120
-280 -169 -43 -28 -81 -49 -84 -46 -3 3 33 45 80 93 46 48 106 111 134 139
l49 53 -86 85 c-214 211 -354 473 -404 755 -22 126 -22 355 0 475 69 374 290
710 600 913 89 58 223 124 311 152 39 12 73 25 77 29 4 3 -2 46 -12 96 -11 49
-20 98 -20 109 0 24 6 16 80 -112z m5152 -1122 c51 -14 127 -68 164 -117 55
-72 76 -144 82 -270 l5 -113 -287 0 c-281 0 -286 0 -286 -20 0 -32 28 -92 57
-122 63 -66 222 -87 366 -49 l67 17 10 -35 c6 -20 13 -57 17 -82 l5 -46 -58
-17 c-91 -28 -307 -33 -390 -11 -125 34 -227 127 -270 245 -22 62 -30 205 -15
282 35 180 168 318 335 348 55 9 139 5 198 -10z m-1599 -25 c77 -37 134 -120
157 -230 6 -30 9 -166 8 -335 l-3 -285 -107 -3 -107 -3 -3 288 c-3 268 -4 291
-24 327 -29 56 -64 79 -117 79 -55 0 -105 -27 -132 -73 -18 -32 -20 -56 -25
-325 l-5 -290 -110 0 -110 0 -5 300 c-5 294 -5 301 -28 333 -31 42 -51 52
-108 52 -60 0 -102 -26 -134 -82 -25 -42 -25 -46 -28 -326 l-3 -283 -107 3
-107 3 0 430 0 430 90 0 90 0 10 -53 10 -53 30 31 c55 59 110 83 195 88 111 6
166 -14 228 -83 l48 -54 36 39 c95 100 244 132 361 75z m-1502 -1 c97 -45 160
-131 179 -247 5 -31 10 -179 11 -329 l1 -273 -96 -3 c-72 -2 -97 1 -100 10 -3
7 -7 25 -10 41 l-6 27 -50 -34 c-70 -48 -113 -61 -205 -60 -90 0 -132 15 -188
63 -55 49 -81 112 -81 196 1 188 146 299 420 321 l86 7 -6 30 c-8 40 -30 72
-63 94 -41 27 -170 24 -248 -5 -88 -33 -87 -34 -106 28 -27 83 -25 88 29 112
83 38 141 47 267 45 96 -2 129 -7 166 -23z m2349 7 c69 -21 73 -27 50 -100
-10 -36 -21 -70 -24 -76 -3 -9 -24 -5 -73 11 -109 38 -190 28 -218 -27 -28
-53 11 -101 111 -139 190 -71 249 -136 249 -275 0 -70 -4 -86 -28 -127 -58
-100 -154 -141 -322 -140 -119 0 -240 28 -252 58 -6 15 24 142 37 157 3 4 32
-4 63 -19 110 -50 246 -42 277 15 32 61 -7 113 -116 154 -102 39 -174 86 -208
135 -25 35 -31 55 -34 113 -4 60 -1 77 23 125 35 72 97 119 190 145 39 11 230
4 275 -10z"/>
<path d="M2239 5575 c-277 -97 -522 -301 -672 -560 -59 -102 -121 -265 -143
-380 -26 -133 -24 -359 5 -493 37 -174 129 -376 229 -502 46 -59 160 -176 194
-201 l28 -20 193 198 c106 109 274 283 374 386 l181 188 -15 62 c-8 34 -32
143 -53 242 -69 317 -199 917 -221 1013 -11 50 -24 92 -27 91 -4 0 -37 -11
-73 -24z"/>
<path d="M7304 4550 c-50 -11 -90 -46 -118 -102 -46 -92 -52 -88 154 -88 201
0 189 -5 165 77 -17 59 -56 97 -113 113 -41 11 -44 11 -88 0z"/>
<path d="M4245 4229 c-114 -15 -172 -56 -182 -128 -3 -22 0 -53 6 -69 36 -87
194 -80 250 11 17 28 21 51 21 116 0 91 9 84 -95 70z"/>
</g>
</svg>
