<svg xmlns="http://www.w3.org/2000/svg" width="900" height="900" viewBox="0 0 900 900" version="1.1"><path d="M -0 450.001 L -0 900.002 450.250 899.751 L 900.500 899.500 900.751 449.750 L 901.002 0 450.501 0 L 0 0 -0 450.001 M 0.496 450.500 C 0.496 698, 0.610 799.101, 0.750 675.168 C 0.890 551.236, 0.890 348.736, 0.750 225.168 C 0.610 101.601, 0.496 203, 0.496 450.500 M 426 3.684 C 402.874 4.748, 366.819 10.255, 342.195 16.483 C 259.501 37.401, 189.894 77.402, 130.499 138.138 C 111.491 157.575, 100.685 170.338, 86.407 190.212 C 28.177 271.261, -1.513 371.079, 3.112 470.250 C 8.306 581.617, 52.290 683.460, 129.494 762.880 C 198.697 834.069, 288.396 879.894, 386 893.924 C 410.409 897.432, 423.157 898.298, 450.500 898.307 C 490.324 898.319, 522.605 894.381, 560.500 884.887 C 643.651 864.054, 721.583 817.549, 779.837 754 C 809.795 721.319, 835.729 683.003, 854.494 643.702 C 899.998 548.395, 910.205 440.410, 883.448 337.376 C 863.146 259.193, 821.644 187.854, 763.367 130.963 C 672.999 42.745, 553.873 -2.198, 426 3.684 M 225.026 306.527 C 225.040 307.062, 225.928 311.325, 227 316 C 229.552 327.134, 229.521 327.654, 226.250 328.463 C 221.094 329.738, 204.516 336.793, 198 340.485 C 168.751 357.057, 145.944 384.294, 135.430 415.206 C 129.991 431.197, 128.018 443.019, 128.008 459.678 C 127.998 474.685, 129.235 483.918, 133.113 497.782 C 139.313 519.947, 151.520 540.499, 168.797 557.862 L 179.108 568.225 165.870 581.594 C 158.588 588.948, 152.833 595.166, 153.080 595.413 C 153.327 595.661, 157.845 593.081, 163.120 589.681 C 168.394 586.282, 176.215 581.500, 180.499 579.055 L 188.288 574.610 192.394 576.937 C 214.156 589.273, 230.540 594.632, 253.998 597.088 C 279.352 599.743, 310.249 592.838, 333.185 579.392 C 342.173 574.122, 353.424 566.091, 352.755 565.422 C 352.513 565.180, 348.532 566.740, 343.908 568.890 C 324.631 577.849, 303.435 583.138, 279.357 584.998 C 252.514 587.071, 231.081 583.080, 208.250 571.758 C 204.813 570.053, 202 568.352, 202 567.977 C 202 567.603, 205.037 565.910, 208.750 564.216 C 257.579 541.937, 293.529 536.839, 366 541.916 C 380.025 542.898, 391.854 543.507, 392.287 543.269 C 392.720 543.031, 391.145 541.463, 388.787 539.784 C 377.690 531.883, 356.786 507.871, 334.793 477.765 C 305.465 437.617, 242.739 338.861, 245.079 336.521 C 246.864 334.736, 281.345 335.345, 289.838 337.311 C 306.800 341.237, 320.805 347.141, 334.500 356.139 C 344.661 362.814, 362.163 380.182, 368.905 390.279 C 374.238 398.264, 382 413.350, 382 415.728 C 382 417.818, 384.119 418.092, 389 416.634 C 392.091 415.711, 393.592 414.683, 393.792 413.352 C 394.212 410.573, 383.241 389.448, 376.558 380.166 C 352.455 346.690, 313.629 325.495, 272.500 323.361 C 261.657 322.799, 242.709 324.023, 238.752 325.542 C 237.663 325.960, 235.921 323.813, 232.476 317.810 C 226.871 308.042, 224.990 305.194, 225.026 306.527 M 222.405 342.457 C 206.112 348.622, 191.765 357.584, 179.260 369.408 C 127.873 417.996, 126.713 498.722, 176.684 548.750 C 181.765 553.837, 186.526 558, 187.263 558 C 188 558, 194.188 552.263, 201.015 545.250 C 207.841 538.237, 220.643 525.069, 229.463 515.987 C 238.284 506.904, 249.496 495.362, 254.380 490.336 L 263.260 481.200 258.666 460.350 C 251.545 428.026, 243.948 393.323, 233.196 344 C 232.243 339.629, 230.528 339.383, 222.405 342.457 M 722.909 430.840 C 712.069 434.418, 704.263 441.511, 699.071 452.500 C 691.744 468.009, 692.863 488.523, 701.736 501.348 C 705.491 506.774, 712.811 512.382, 719.748 515.148 C 724.766 517.148, 727.286 517.444, 739.500 517.470 C 751.338 517.495, 754.620 517.148, 760.750 515.221 C 764.737 513.968, 767.984 512.393, 767.964 511.721 C 767.909 509.808, 765.191 498.858, 764.634 498.301 C 764.359 498.026, 762.548 498.324, 760.610 498.964 C 754.929 500.839, 741.698 501.807, 735.350 500.812 C 724.720 499.146, 717.358 492.584, 715.646 483.250 L 715.050 480 743.418 480 C 775.567 480, 773 480.776, 773 471.055 C 773 452.877, 764.710 437.763, 751.500 431.858 C 744.550 428.751, 730.729 428.259, 722.909 430.840 M 406.260 431.506 C 399.683 433.013, 389.991 436.811, 390.014 437.873 C 390.021 438.218, 390.843 441.200, 391.841 444.500 C 393.903 451.323, 394.122 451.393, 403 448.103 C 409.635 445.645, 421.418 445.312, 426.510 447.440 C 430.715 449.197, 434.142 454.417, 433.772 458.500 L 433.500 461.500 424.471 462.136 C 412.735 462.963, 404.205 465.422, 397.069 470.034 C 388.178 475.781, 384 483.205, 384 493.260 C 384 501.295, 385.910 505.976, 391.466 511.555 C 397.699 517.815, 402.737 519.452, 413.746 518.794 C 422.074 518.297, 428.231 515.906, 433.220 511.231 C 436.113 508.521, 436.585 508.850, 437.201 514 C 437.494 516.447, 437.701 516.506, 447 516.783 L 456.500 517.067 456.246 488.783 C 456.104 473.086, 455.496 458.053, 454.877 455 C 452.633 443.922, 446.727 436.570, 437.121 432.899 C 429.910 430.143, 415.124 429.476, 406.260 431.506 M 515.994 430.934 C 511.132 432.413, 506.454 435.262, 502.285 439.282 C 497.691 443.713, 497.284 443.508, 496.785 436.500 L 496.500 432.500 487.095 432.210 L 477.690 431.921 478.340 443.210 C 478.698 449.420, 478.993 468.563, 478.995 485.750 L 479 517 489.500 517 L 500 517 500 489.968 C 500 467.831, 500.280 462.265, 501.548 459.232 C 507.025 446.124, 522.153 443.879, 528.240 455.271 C 530.411 459.334, 530.513 460.629, 530.819 488.250 L 531.137 517 541.569 517 L 552 517 552.006 490.750 C 552.009 475.779, 552.455 462.902, 553.044 460.781 C 556.963 446.669, 574.503 443.389, 580.580 455.632 C 582.296 459.090, 582.553 462.522, 583 488 L 583.500 516.500 592.136 517 C 596.886 517.275, 601.521 517.350, 602.437 517.167 C 603.956 516.863, 604.075 514.020, 603.801 484.642 L 603.500 452.451 600.205 445.761 C 596.272 437.776, 591.508 433.519, 584.072 431.343 C 573.011 428.106, 561.597 431.322, 552.740 440.170 L 547.979 444.926 545.473 441.139 C 542.433 436.544, 538.293 433.367, 532.837 431.442 C 528.506 429.914, 520.173 429.663, 515.994 430.934 M 646.734 431.088 C 634.155 434.052, 625.652 442.682, 624.337 453.818 C 622.856 466.366, 630.487 475.554, 647.742 482.002 C 656.315 485.205, 659.728 487.646, 660.994 491.481 C 664.318 501.553, 650.941 506.575, 635.500 501.053 C 632.200 499.873, 628.745 498.659, 627.822 498.356 C 626.467 497.911, 625.731 499.188, 624.008 504.973 C 622.399 510.375, 622.150 512.476, 622.998 513.498 C 625.213 516.167, 633.532 518.175, 644.629 518.721 C 658.772 519.416, 667.193 517.223, 674.259 511.003 C 682.626 503.639, 685.096 489.941, 679.710 480.784 C 675.521 473.663, 670.946 470.442, 658 465.503 C 645.414 460.701, 641.910 454.936, 647.923 448.923 C 650.495 446.351, 651.557 446, 656.764 446 C 661.981 446, 667.844 447.237, 673.195 449.466 C 674.603 450.052, 675.263 448.944, 677.090 442.929 C 679.181 436.046, 679.203 435.621, 677.527 434.396 C 672.800 430.939, 655.331 429.063, 646.734 431.088 M 727.500 445.417 C 721.852 447.938, 716 456.361, 716 461.968 C 716 463.935, 716.572 464, 734 464 L 752 464 752 460.657 C 752 455.607, 747.978 448.857, 743.425 446.266 C 738.932 443.709, 732.138 443.347, 727.500 445.417 M 419.500 477.399 C 409.491 480.564, 405.860 484.329, 405.749 491.654 C 405.664 497.247, 408.300 501.016, 413.591 502.869 C 420.767 505.383, 430.544 500.730, 433.636 493.329 C 434.386 491.533, 435 486.900, 435 483.032 L 435 476 429.250 476.067 C 426.087 476.104, 421.700 476.703, 419.500 477.399" stroke="none" fill="#f9fbfb" fill-rule="evenodd"/><path d="M 426 3.684 C 402.874 4.748, 366.819 10.255, 342.195 16.483 C 259.501 37.401, 189.894 77.402, 130.499 138.138 C 111.491 157.575, 100.685 170.338, 86.407 190.212 C 28.177 271.261, -1.513 371.079, 3.112 470.250 C 8.306 581.617, 52.290 683.460, 129.494 762.880 C 198.697 834.069, 288.396 879.894, 386 893.924 C 410.409 897.432, 423.157 898.298, 450.500 898.307 C 490.324 898.319, 522.605 894.381, 560.500 884.887 C 643.651 864.054, 721.583 817.549, 779.837 754 C 809.795 721.319, 835.729 683.003, 854.494 643.702 C 899.998 548.395, 910.205 440.410, 883.448 337.376 C 863.146 259.193, 821.644 187.854, 763.367 130.963 C 672.999 42.745, 553.873 -2.198, 426 3.684 M 225.026 306.527 C 225.040 307.062, 225.928 311.325, 227 316 C 229.552 327.134, 229.521 327.654, 226.250 328.463 C 221.094 329.738, 204.516 336.793, 198 340.485 C 168.751 357.057, 145.944 384.294, 135.430 415.206 C 129.991 431.197, 128.018 443.019, 128.008 459.678 C 127.998 474.685, 129.235 483.918, 133.113 497.782 C 139.313 519.947, 151.520 540.499, 168.797 557.862 L 179.108 568.225 165.870 581.594 C 158.588 588.948, 152.833 595.166, 153.080 595.413 C 153.327 595.661, 157.845 593.081, 163.120 589.681 C 168.394 586.282, 176.215 581.500, 180.499 579.055 L 188.288 574.610 192.394 576.937 C 214.156 589.273, 230.540 594.632, 253.998 597.088 C 279.352 599.743, 310.249 592.838, 333.185 579.392 C 342.173 574.122, 353.424 566.091, 352.755 565.422 C 352.513 565.180, 348.532 566.740, 343.908 568.890 C 324.631 577.849, 303.435 583.138, 279.357 584.998 C 252.514 587.071, 231.081 583.080, 208.250 571.758 C 204.813 570.053, 202 568.352, 202 567.977 C 202 567.603, 205.037 565.910, 208.750 564.216 C 257.579 541.937, 293.529 536.839, 366 541.916 C 380.025 542.898, 391.854 543.507, 392.287 543.269 C 392.720 543.031, 391.145 541.463, 388.787 539.784 C 377.690 531.883, 356.786 507.871, 334.793 477.765 C 305.465 437.617, 242.739 338.861, 245.079 336.521 C 246.864 334.736, 281.345 335.345, 289.838 337.311 C 306.800 341.237, 320.805 347.141, 334.500 356.139 C 344.661 362.814, 362.163 380.182, 368.905 390.279 C 374.238 398.264, 382 413.350, 382 415.728 C 382 417.818, 384.119 418.092, 389 416.634 C 392.091 415.711, 393.592 414.683, 393.792 413.352 C 394.212 410.573, 383.241 389.448, 376.558 380.166 C 352.455 346.690, 313.629 325.495, 272.500 323.361 C 261.657 322.799, 242.709 324.023, 238.752 325.542 C 237.663 325.960, 235.921 323.813, 232.476 317.810 C 226.871 308.042, 224.990 305.194, 225.026 306.527 M 222.405 342.457 C 206.112 348.622, 191.765 357.584, 179.260 369.408 C 127.873 417.996, 126.713 498.722, 176.684 548.750 C 181.765 553.837, 186.526 558, 187.263 558 C 188 558, 194.188 552.263, 201.015 545.250 C 207.841 538.237, 220.643 525.069, 229.463 515.987 C 238.284 506.904, 249.496 495.362, 254.380 490.336 L 263.260 481.200 258.666 460.350 C 251.545 428.026, 243.948 393.323, 233.196 344 C 232.243 339.629, 230.528 339.383, 222.405 342.457 M 722.909 430.840 C 712.069 434.418, 704.263 441.511, 699.071 452.500 C 691.744 468.009, 692.863 488.523, 701.736 501.348 C 705.491 506.774, 712.811 512.382, 719.748 515.148 C 724.766 517.148, 727.286 517.444, 739.500 517.470 C 751.338 517.495, 754.620 517.148, 760.750 515.221 C 764.737 513.968, 767.984 512.393, 767.964 511.721 C 767.909 509.808, 765.191 498.858, 764.634 498.301 C 764.359 498.026, 762.548 498.324, 760.610 498.964 C 754.929 500.839, 741.698 501.807, 735.350 500.812 C 724.720 499.146, 717.358 492.584, 715.646 483.250 L 715.050 480 743.418 480 C 775.567 480, 773 480.776, 773 471.055 C 773 452.877, 764.710 437.763, 751.500 431.858 C 744.550 428.751, 730.729 428.259, 722.909 430.840 M 406.260 431.506 C 399.683 433.013, 389.991 436.811, 390.014 437.873 C 390.021 438.218, 390.843 441.200, 391.841 444.500 C 393.903 451.323, 394.122 451.393, 403 448.103 C 409.635 445.645, 421.418 445.312, 426.510 447.440 C 430.715 449.197, 434.142 454.417, 433.772 458.500 L 433.500 461.500 424.471 462.136 C 412.735 462.963, 404.205 465.422, 397.069 470.034 C 388.178 475.781, 384 483.205, 384 493.260 C 384 501.295, 385.910 505.976, 391.466 511.555 C 397.699 517.815, 402.737 519.452, 413.746 518.794 C 422.074 518.297, 428.231 515.906, 433.220 511.231 C 436.113 508.521, 436.585 508.850, 437.201 514 C 437.494 516.447, 437.701 516.506, 447 516.783 L 456.500 517.067 456.246 488.783 C 456.104 473.086, 455.496 458.053, 454.877 455 C 452.633 443.922, 446.727 436.570, 437.121 432.899 C 429.910 430.143, 415.124 429.476, 406.260 431.506 M 515.994 430.934 C 511.132 432.413, 506.454 435.262, 502.285 439.282 C 497.691 443.713, 497.284 443.508, 496.785 436.500 L 496.500 432.500 487.095 432.210 L 477.690 431.921 478.340 443.210 C 478.698 449.420, 478.993 468.563, 478.995 485.750 L 479 517 489.500 517 L 500 517 500 489.968 C 500 467.831, 500.280 462.265, 501.548 459.232 C 507.025 446.124, 522.153 443.879, 528.240 455.271 C 530.411 459.334, 530.513 460.629, 530.819 488.250 L 531.137 517 541.569 517 L 552 517 552.006 490.750 C 552.009 475.779, 552.455 462.902, 553.044 460.781 C 556.963 446.669, 574.503 443.389, 580.580 455.632 C 582.296 459.090, 582.553 462.522, 583 488 L 583.500 516.500 592.136 517 C 596.886 517.275, 601.521 517.350, 602.437 517.167 C 603.956 516.863, 604.075 514.020, 603.801 484.642 L 603.500 452.451 600.205 445.761 C 596.272 437.776, 591.508 433.519, 584.072 431.343 C 573.011 428.106, 561.597 431.322, 552.740 440.170 L 547.979 444.926 545.473 441.139 C 542.433 436.544, 538.293 433.367, 532.837 431.442 C 528.506 429.914, 520.173 429.663, 515.994 430.934 M 646.734 431.088 C 634.155 434.052, 625.652 442.682, 624.337 453.818 C 622.856 466.366, 630.487 475.554, 647.742 482.002 C 656.315 485.205, 659.728 487.646, 660.994 491.481 C 664.318 501.553, 650.941 506.575, 635.500 501.053 C 632.200 499.873, 628.745 498.659, 627.822 498.356 C 626.467 497.911, 625.731 499.188, 624.008 504.973 C 622.399 510.375, 622.150 512.476, 622.998 513.498 C 625.213 516.167, 633.532 518.175, 644.629 518.721 C 658.772 519.416, 667.193 517.223, 674.259 511.003 C 682.626 503.639, 685.096 489.941, 679.710 480.784 C 675.521 473.663, 670.946 470.442, 658 465.503 C 645.414 460.701, 641.910 454.936, 647.923 448.923 C 650.495 446.351, 651.557 446, 656.764 446 C 661.981 446, 667.844 447.237, 673.195 449.466 C 674.603 450.052, 675.263 448.944, 677.090 442.929 C 679.181 436.046, 679.203 435.621, 677.527 434.396 C 672.800 430.939, 655.331 429.063, 646.734 431.088 M 727.500 445.417 C 721.852 447.938, 716 456.361, 716 461.968 C 716 463.935, 716.572 464, 734 464 L 752 464 752 460.657 C 752 455.607, 747.978 448.857, 743.425 446.266 C 738.932 443.709, 732.138 443.347, 727.500 445.417 M 419.500 477.399 C 409.491 480.564, 405.860 484.329, 405.749 491.654 C 405.664 497.247, 408.300 501.016, 413.591 502.869 C 420.767 505.383, 430.544 500.730, 433.636 493.329 C 434.386 491.533, 435 486.900, 435 483.032 L 435 476 429.250 476.067 C 426.087 476.104, 421.700 476.703, 419.500 477.399" stroke="none" fill="#0464ac" fill-rule="evenodd"/></svg>