<?xml version="1.0" standalone="no"?>
<!DOCTYPE svg PUBLIC "-//W3C//DTD SVG 20010904//EN"
 "http://www.w3.org/TR/2001/REC-SVG-20010904/DTD/svg10.dtd">
<svg version="1.0" xmlns="http://www.w3.org/2000/svg"
 width="2364.000000pt" height="776.000000pt" viewBox="0 0 2364.000000 776.000000"
 preserveAspectRatio="xMidYMid meet">

<g transform="translate(0.000000,776.000000) scale(0.100000,-0.100000)"
fill="#000000" stroke="none">
<path d="M2486 5424 c-104 -33 -191 -123 -216 -224 -8 -32 -10 -254 -7 -750 4
-782 3 -772 76 -988 133 -399 466 -752 848 -902 224 -88 389 -116 632 -107
236 9 407 54 623 164 151 76 265 160 391 287 l109 109 77 -81 c42 -44 107
-106 146 -138 68 -56 213 -154 228 -154 4 0 7 184 7 409 l0 409 -44 83 c-85
161 -118 334 -97 500 14 112 58 249 106 331 l35 59 0 410 c0 225 -3 409 -6
409 -3 0 -45 -25 -92 -56 -285 -185 -487 -444 -601 -767 -44 -125 -70 -263
-81 -436 -16 -236 -45 -345 -126 -486 -62 -107 -211 -254 -314 -312 -149 -83
-307 -120 -475 -110 -375 22 -683 277 -787 652 -22 78 -22 96 -28 785 l-5 705
-23 42 c-70 132 -237 202 -376 157z"/>
<path d="M11982 4430 l-31 -90 59 0 59 0 32 58 c17 31 41 72 51 90 l20 32 -79
0 -80 0 -31 -90z"/>
<path d="M16252 4430 l-31 -90 59 0 59 0 32 58 c17 31 41 72 51 90 l20 32 -79
0 -80 0 -31 -90z"/>
<path d="M8343 4346 c-143 -47 -247 -169 -274 -324 -29 -163 71 -347 229 -420
80 -36 212 -42 295 -13 109 38 183 107 235 219 24 50 27 69 27 157 0 91 -3
106 -31 165 -41 86 -108 153 -192 193 -57 27 -80 32 -157 34 -57 2 -106 -2
-132 -11z"/>
<path d="M11777 4264 c-4 -4 -7 -169 -7 -366 l0 -358 250 0 250 0 0 80 0 80
-160 0 -160 0 0 65 0 65 135 0 135 0 0 80 0 80 -135 0 -135 0 0 60 0 60 160 0
161 0 -3 78 -3 77 -241 3 c-132 1 -243 -1 -247 -4z"/>
<path d="M12560 4261 c-73 -23 -137 -79 -166 -146 -23 -52 -32 -285 -14 -368
27 -132 125 -210 263 -210 129 0 225 63 261 171 9 25 16 49 16 54 0 4 -40 8
-89 8 l-89 0 -20 -34 c-24 -40 -68 -54 -111 -36 -48 20 -56 48 -56 206 0 129
2 145 21 171 36 48 117 45 147 -7 18 -30 19 -30 108 -30 l89 0 -6 28 c-20 86
-85 159 -165 187 -44 16 -146 19 -189 6z"/>
<path d="M13180 4261 c-75 -24 -137 -79 -166 -146 -23 -52 -32 -285 -14 -368
27 -132 125 -210 263 -210 131 0 229 65 261 174 23 75 22 318 -1 388 -19 60
-70 118 -128 146 -43 21 -171 30 -215 16z m154 -182 c25 -30 26 -35 26 -169 0
-152 -8 -183 -51 -206 -41 -21 -65 -17 -101 15 l-33 29 0 157 0 157 28 24 c42
36 98 33 131 -7z"/>
<path d="M13667 4263 c-4 -3 -7 -168 -7 -365 l0 -358 245 0 245 0 0 80 0 80
-155 0 -155 0 0 285 0 285 -83 0 c-46 0 -87 -3 -90 -7z"/>
<path d="M14257 4264 c-4 -4 -7 -169 -7 -366 l0 -358 250 0 250 0 0 80 0 80
-160 0 -160 0 0 65 0 65 135 0 135 0 0 80 0 80 -135 0 -135 0 0 60 0 60 160 0
161 0 -3 78 -3 77 -241 3 c-132 1 -243 -1 -247 -4z"/>
<path d="M15098 4264 c-5 -4 -8 -169 -8 -366 l0 -358 158 0 c200 0 248 12 312
79 26 27 51 63 58 87 17 58 15 347 -2 397 -22 62 -64 107 -125 135 -52 24 -69
27 -221 30 -91 2 -168 1 -172 -4z m327 -186 c27 -31 39 -136 29 -249 -6 -62
-12 -78 -35 -101 -24 -24 -35 -28 -88 -28 l-61 0 0 206 0 206 66 -4 c56 -3 70
-8 89 -30z"/>
<path d="M15750 4135 l0 -136 33 22 c17 13 56 40 85 62 l53 38 -3 72 -3 72
-82 3 -83 3 0 -136z"/>
<path d="M16047 4264 c-4 -4 -7 -169 -7 -366 l0 -358 250 0 250 0 0 80 0 80
-160 0 -160 0 0 65 0 65 135 0 135 0 0 80 0 80 -135 0 -135 0 0 60 0 60 160 0
161 0 -3 78 -3 77 -241 3 c-132 1 -243 -1 -247 -4z"/>
<path d="M16830 4261 c-73 -23 -137 -79 -166 -146 -23 -52 -32 -285 -14 -368
27 -132 125 -210 263 -210 129 0 225 63 261 171 9 25 16 49 16 54 0 4 -40 8
-89 8 l-89 0 -20 -34 c-24 -40 -68 -54 -111 -36 -48 20 -56 48 -56 206 0 129
2 145 21 171 36 48 117 45 147 -7 18 -30 19 -30 108 -30 l89 0 -6 28 c-20 86
-85 159 -165 187 -44 16 -146 19 -189 6z"/>
<path d="M17450 4261 c-75 -24 -137 -79 -166 -146 -23 -52 -32 -285 -14 -368
27 -132 125 -210 263 -210 131 0 229 65 261 174 23 75 22 318 -1 388 -19 60
-70 118 -128 146 -43 21 -171 30 -215 16z m154 -182 c25 -30 26 -35 26 -169 0
-152 -8 -183 -51 -206 -41 -21 -65 -17 -101 15 l-33 29 0 157 0 157 28 24 c42
36 98 33 131 -7z"/>
<path d="M17937 4263 c-4 -3 -7 -168 -7 -365 l0 -358 90 0 90 0 2 180 3 180
114 -180 115 -180 78 0 78 0 0 365 0 365 -90 0 -90 0 -2 -180 -3 -179 -114
179 -114 180 -72 0 c-39 0 -75 -3 -78 -7z"/>
<path d="M18810 4261 c-75 -24 -137 -79 -166 -146 -23 -52 -32 -285 -14 -368
27 -132 125 -210 263 -210 131 0 229 65 261 174 23 75 22 318 -1 388 -19 60
-70 118 -128 146 -43 21 -171 30 -215 16z m154 -182 c25 -30 26 -35 26 -169 0
-152 -8 -183 -51 -206 -41 -21 -65 -17 -101 15 l-33 29 0 157 0 157 28 24 c42
36 98 33 131 -7z"/>
<path d="M19297 4263 c-4 -3 -7 -168 -7 -365 l0 -358 90 0 90 0 2 171 3 171
50 -86 50 -87 59 3 59 3 48 85 49 85 0 -172 0 -173 90 0 90 0 0 365 0 366 -87
-3 -88 -3 -81 -159 -81 -159 -83 161 -82 162 -82 0 c-46 0 -86 -3 -89 -7z"/>
<path d="M20127 4263 c-4 -3 -7 -168 -7 -365 l0 -358 90 0 90 0 0 365 0 365
-83 0 c-46 0 -87 -3 -90 -7z"/>
<path d="M20447 4264 c-4 -4 -7 -169 -7 -366 l0 -358 250 0 250 0 0 80 0 80
-160 0 -160 0 0 65 0 65 135 0 135 0 0 80 0 80 -135 0 -135 0 0 60 0 60 160 0
161 0 -3 78 -3 77 -241 3 c-132 1 -243 -1 -247 -4z"/>
<path d="M14948 2998 c-8 -13 -24 -40 -37 -60 l-23 -38 24 0 c15 0 30 11 44
33 11 17 29 44 38 60 18 27 18 27 -7 27 -15 0 -30 -9 -39 -22z"/>
<path d="M15497 2990 c-43 -13 -92 -55 -111 -93 -12 -27 -16 -66 -16 -172 0
-158 10 -190 73 -236 94 -68 241 -34 283 68 20 47 18 53 -21 53 -28 0 -37 -5
-45 -24 -14 -38 -58 -66 -104 -66 -88 0 -116 50 -116 205 0 155 28 205 116
205 46 0 90 -28 104 -66 8 -19 17 -24 45 -24 39 0 41 6 21 53 -33 80 -138 124
-229 97z"/>
<path d="M11772 2788 c3 -191 5 -205 27 -244 55 -97 195 -120 281 -48 57 48
60 63 60 289 l0 205 -25 0 -25 0 0 -200 c0 -222 -5 -247 -60 -275 -44 -23
-111 -19 -151 8 -49 33 -57 73 -58 285 l-1 182 -26 0 -26 0 4 -202z"/>
<path d="M12720 2960 c0 -25 4 -30 25 -30 21 0 25 5 25 30 0 25 -4 30 -25 30
-21 0 -25 -5 -25 -30z"/>
<path d="M14350 2960 c0 -25 4 -30 25 -30 21 0 25 5 25 30 0 25 -4 30 -25 30
-21 0 -25 -5 -25 -30z"/>
<path d="M15852 2750 l3 -240 26 -26 c18 -18 41 -28 73 -31 l46 -6 0 37 c0 33
-2 36 -30 36 -19 0 -33 7 -40 19 -6 12 -10 106 -10 235 l0 216 -36 0 -35 0 3
-240z"/>
<path d="M18929 2963 c-11 -30 -152 -413 -175 -475 l-13 -38 38 0 c37 0 39 2
57 53 l19 52 112 3 112 3 17 -56 c17 -54 18 -55 56 -55 21 0 38 3 38 6 0 4
-43 125 -97 270 -95 262 -96 264 -125 264 -22 0 -31 -6 -39 -27z m85 -211 c20
-57 36 -107 36 -113 0 -5 -38 -9 -84 -9 l-85 0 42 119 c23 66 45 117 48 113 4
-4 23 -53 43 -110z"/>
<path d="M18350 2895 c0 -48 -2 -55 -20 -55 -16 0 -20 -7 -20 -30 0 -23 5 -30
19 -30 17 0 19 -11 23 -127 2 -74 9 -137 16 -150 16 -29 62 -53 102 -53 28 0
30 3 30 35 0 32 -2 35 -30 35 -42 0 -50 23 -50 149 l0 111 40 0 c38 0 40 2 40
30 0 28 -2 30 -40 30 l-40 0 0 55 0 55 -35 0 -35 0 0 -55z"/>
<path d="M14550 2880 c0 -57 -1 -60 -25 -60 -20 0 -25 -5 -25 -25 0 -20 5 -25
24 -25 l24 0 4 -135 c3 -154 12 -172 87 -182 39 -5 41 -4 41 21 0 22 -4 26
-28 26 -47 0 -52 14 -52 147 l0 123 40 0 c36 0 40 3 40 25 0 23 -4 25 -40 25
l-40 0 0 60 c0 57 -1 60 -25 60 -24 0 -25 -3 -25 -60z"/>
<path d="M16176 2830 c-38 -12 -75 -47 -92 -87 -18 -42 -18 -154 0 -196 39
-96 179 -125 266 -57 l25 19 -22 22 c-20 20 -22 21 -44 5 -32 -22 -111 -21
-138 2 -12 9 -25 32 -30 50 l-10 32 126 0 125 0 -4 60 c-4 63 -23 98 -69 132
-29 21 -94 30 -133 18z m111 -82 c11 -13 23 -33 26 -45 5 -23 4 -23 -88 -23
-92 0 -93 0 -88 23 11 42 43 67 88 67 30 0 47 -6 62 -22z"/>
<path d="M16500 2645 l0 -195 30 0 30 0 0 113 c0 125 12 182 40 197 24 13 66
13 89 0 14 -7 24 -4 42 16 20 22 21 26 8 40 -33 32 -90 28 -171 -14 -5 -2 -8
6 -8 17 0 17 -6 21 -30 21 l-30 0 0 -195z"/>
<path d="M16840 2645 l0 -195 30 0 30 0 0 113 c0 172 16 207 94 207 25 0 40
-7 55 -26 19 -24 21 -40 21 -160 l0 -134 35 0 35 0 0 134 c0 120 2 136 21 160
15 19 30 26 55 26 79 0 94 -33 94 -201 l0 -119 30 0 30 0 0 154 c0 151 -1 155
-25 185 -49 58 -136 65 -194 15 l-30 -25 -21 21 c-44 44 -96 50 -155 20 -22
-11 -41 -20 -42 -20 -2 0 -3 9 -3 20 0 16 -7 20 -30 20 l-30 0 0 -195z"/>
<path d="M17573 2820 c-57 -29 -83 -83 -83 -175 0 -94 26 -146 86 -175 84 -41
186 0 214 86 18 55 9 177 -16 210 -51 70 -129 90 -201 54z m128 -69 c22 -18
24 -27 24 -106 0 -79 -2 -88 -24 -106 -33 -27 -86 -25 -116 6 -22 21 -25 33
-25 98 0 60 4 79 21 101 26 32 84 36 120 7z"/>
<path d="M17920 2645 l0 -195 30 0 30 0 0 113 c0 172 16 207 94 207 25 0 40
-7 55 -26 19 -24 21 -40 21 -160 l0 -134 35 0 35 0 0 140 c0 154 -10 197 -53
225 -51 33 -97 30 -179 -13 -5 -2 -8 6 -8 17 0 17 -6 21 -30 21 l-30 0 0 -195z"/>
<path d="M19260 2708 c0 -158 9 -199 52 -230 41 -28 127 -31 156 -5 24 22 32
21 32 -3 0 -16 7 -20 35 -20 l35 0 0 195 0 195 -35 0 -35 0 0 -119 c0 -168
-15 -201 -94 -201 -25 0 -40 7 -55 26 -19 24 -21 40 -21 160 l0 134 -35 0 -35
0 0 -132z"/>
<path d="M19689 2733 c109 -302 100 -283 130 -283 27 0 30 6 81 148 29 81 61
168 71 195 l19 47 -38 0 -38 0 -44 -135 c-24 -74 -47 -135 -50 -135 -3 0 -26
61 -50 135 l-44 135 -38 0 -37 0 38 -107z"/>
<path d="M20146 2830 c-38 -12 -75 -47 -92 -87 -18 -42 -18 -154 0 -196 39
-96 179 -125 266 -57 l25 19 -22 22 c-20 20 -22 21 -44 5 -32 -22 -111 -21
-138 2 -12 9 -25 32 -30 50 l-10 32 126 0 125 0 -4 60 c-4 63 -23 98 -69 132
-29 21 -94 30 -133 18z m111 -82 c11 -13 23 -33 26 -45 5 -23 4 -23 -88 -23
-92 0 -93 0 -88 23 11 42 43 67 88 67 30 0 47 -6 62 -22z"/>
<path d="M20470 2645 l0 -195 30 0 30 0 0 113 c0 125 12 182 40 197 24 13 66
13 89 0 14 -7 24 -4 42 16 20 22 21 26 8 40 -33 32 -90 28 -171 -14 -5 -2 -8
6 -8 17 0 17 -6 21 -30 21 l-30 0 0 -195z"/>
<path d="M20830 2822 c-52 -25 -70 -70 -70 -172 0 -102 18 -146 70 -173 39
-20 103 -16 131 8 25 23 29 18 29 -30 0 -63 -32 -95 -92 -95 -24 0 -53 7 -64
15 -19 13 -23 12 -44 -10 l-22 -24 32 -20 c92 -55 201 -27 249 66 7 14 11 98
11 237 l0 216 -35 0 c-28 0 -35 -4 -35 -19 0 -18 -1 -18 -37 0 -46 24 -78 24
-123 1z m139 -78 c17 -21 21 -41 21 -94 0 -87 -22 -120 -80 -120 -58 0 -80 33
-80 120 0 87 22 120 80 120 30 0 43 -6 59 -26z"/>
<path d="M21200 2645 l0 -195 30 0 30 0 0 113 c0 172 16 207 94 207 25 0 40
-7 55 -26 19 -24 21 -40 21 -160 l0 -134 35 0 35 0 0 140 c0 154 -10 197 -53
225 -51 33 -97 30 -179 -13 -5 -2 -8 6 -8 17 0 17 -6 21 -30 21 l-30 0 0 -195z"/>
<path d="M21726 2830 c-38 -12 -75 -47 -92 -87 -18 -42 -18 -154 0 -196 39
-96 179 -125 266 -57 l25 19 -22 22 c-20 20 -22 21 -44 5 -32 -22 -111 -21
-138 2 -12 9 -25 32 -30 50 l-10 32 126 0 125 0 -4 60 c-4 63 -23 98 -69 132
-29 21 -94 30 -133 18z m111 -82 c11 -13 23 -33 26 -45 5 -23 4 -23 -88 -23
-92 0 -93 0 -88 23 11 42 43 67 88 67 30 0 47 -6 62 -22z"/>
<path d="M12388 2806 c-46 -24 -48 -25 -48 -6 0 15 -7 20 -25 20 l-25 0 0
-185 0 -185 25 0 25 0 0 130 c0 176 12 200 101 200 29 0 47 -7 64 -25 24 -23
25 -29 25 -165 l0 -140 25 0 25 0 0 135 c0 149 -10 192 -53 220 -44 29 -87 29
-139 1z"/>
<path d="M13325 2816 c-77 -34 -114 -142 -85 -248 30 -107 148 -148 250 -87
29 18 31 22 18 35 -13 13 -18 13 -44 -1 -33 -17 -106 -20 -135 -5 -22 12 -49
61 -49 90 0 19 6 20 125 20 l125 0 0 42 c0 65 -35 127 -84 149 -48 22 -80 23
-121 5z m126 -65 c17 -17 29 -40 29 -55 l0 -26 -100 0 -100 0 0 26 c0 15 12
38 29 55 23 23 38 29 71 29 33 0 48 -6 71 -29z"/>
<path d="M13764 2816 c-18 -8 -35 -19 -38 -25 -11 -18 -26 -13 -26 9 0 15 -7
20 -25 20 l-25 0 0 -185 0 -185 25 0 25 0 0 134 c0 130 1 135 26 165 20 24 34
31 61 31 19 0 42 -4 52 -10 14 -7 23 -5 36 10 17 19 17 20 -18 35 -44 18 -53
18 -93 1z"/>
<path d="M14036 2820 c-88 -28 -112 -130 -41 -176 14 -9 57 -20 97 -24 91 -10
122 -44 84 -95 -19 -26 -118 -33 -171 -11 -34 15 -41 15 -53 2 -13 -13 -11
-17 18 -35 70 -42 187 -35 236 14 24 24 32 81 18 120 -10 25 -53 42 -127 50
-37 4 -75 14 -83 22 -21 21 -17 60 8 77 26 18 109 21 139 5 20 -10 49 2 49 21
0 24 -125 46 -174 30z"/>
<path d="M14865 2816 c-77 -34 -114 -142 -85 -248 30 -107 148 -148 250 -87
29 18 31 22 18 35 -13 13 -18 13 -44 -1 -33 -17 -106 -20 -135 -5 -22 12 -49
61 -49 90 0 19 6 20 125 20 l125 0 0 42 c0 65 -35 127 -84 149 -48 22 -80 23
-121 5z m126 -65 c17 -17 29 -40 29 -55 l0 -26 -100 0 -100 0 0 26 c0 15 12
38 29 55 23 23 38 29 71 29 33 0 48 -6 71 -29z"/>
<path d="M12720 2635 l0 -185 25 0 25 0 0 185 0 185 -25 0 -25 0 0 -185z"/>
<path d="M12917 2673 c30 -82 61 -164 68 -183 9 -26 18 -35 34 -35 21 0 30 20
91 183 l67 182 -26 0 c-25 0 -29 -8 -75 -145 -27 -80 -53 -145 -57 -145 -4 0
-29 65 -56 145 -45 138 -49 145 -74 145 l-27 0 55 -147z"/>
<path d="M14350 2635 l0 -185 25 0 25 0 0 185 0 185 -25 0 -25 0 0 -185z"/>
</g>
</svg>
