<svg xmlns="http://www.w3.org/2000/svg" width="800" height="800" viewBox="0 0 800 800" version="1.1"><path d="M 121.536 224.250 C 121.147 266.188, 121.205 382.175, 121.665 482 L 122.500 663.500 403 663.500 L 683.500 663.500 683.752 405.750 L 684.004 148 403.123 148 L 122.242 148 121.536 224.250 M 128.855 159.750 C 128.660 161.813, 128.634 274.538, 128.798 410.252 L 129.096 657.004 403.298 656.752 L 677.500 656.500 677.752 406.250 L 678.004 156 403.607 156 L 129.210 156 128.855 159.750 M 428.430 177.332 C 428.185 177.974, 428.101 227.949, 428.242 288.386 L 428.500 398.272 432.436 394.886 C 434.602 393.024, 438.202 389.921, 440.436 387.990 C 442.671 386.060, 446.975 382.473, 450 380.018 C 474.963 359.765, 496.590 335.522, 504.404 319.034 L 507.500 312.500 507.500 244.500 L 507.500 176.500 468.187 176.332 C 439 176.208, 428.760 176.465, 428.430 177.332 M 640 186.123 C 633.125 189.435, 624.575 193.513, 621 195.185 C 609.853 200.397, 579.153 214.930, 564.120 222.111 C 551.496 228.141, 549.898 229.172, 551.040 230.549 C 551.756 231.411, 558.790 236.367, 566.671 241.562 C 574.552 246.757, 581 251.591, 581 252.305 C 581 254.198, 569.607 273.735, 560.448 287.547 C 553.754 297.641, 547.498 306.267, 535.522 321.915 C 525.579 334.907, 505.096 356.790, 487.433 373.292 C 469.548 390, 466.406 392.782, 459.280 398.211 C 432.298 418.770, 425.421 423.542, 405.500 435.531 C 392.314 443.467, 361.867 459.333, 350 464.453 C 346.425 465.995, 341.589 468.110, 339.253 469.152 C 325.318 475.370, 301.596 483.453, 278 490.024 C 273.875 491.172, 269.118 492.537, 267.429 493.056 C 265.740 493.575, 263.242 494, 261.879 494 C 260.516 494, 258.973 494.404, 258.450 494.898 C 257.928 495.391, 255.700 496.043, 253.500 496.347 C 251.300 496.650, 247.025 497.392, 244 497.995 C 225.214 501.740, 206.717 503.791, 175.780 505.561 C 168.413 505.982, 163.301 506.678, 163.633 507.215 C 163.948 507.724, 165.896 507.856, 167.962 507.506 C 170.028 507.157, 177.519 507.623, 184.609 508.540 C 197.542 510.215, 201.031 510.209, 242 508.443 C 248.875 508.146, 255.400 507.506, 256.500 507.019 C 257.600 506.533, 261.875 505.867, 266 505.539 C 278.833 504.520, 283.429 503.927, 285.500 503.021 C 286.600 502.540, 289.525 501.889, 292 501.575 C 300.399 500.510, 318.145 496.789, 328.500 493.921 C 330.700 493.312, 333.967 492.581, 335.759 492.296 C 337.552 492.012, 339.266 491.379, 339.568 490.890 C 339.871 490.400, 341.223 490, 342.573 490 C 343.923 490, 345.809 489.594, 346.764 489.097 C 347.719 488.601, 350.525 487.649, 353 486.981 C 358.320 485.547, 362.735 484.123, 365.500 482.949 C 366.600 482.483, 369.525 481.433, 372 480.616 C 413.673 466.869, 474.372 435.442, 505 411.755 C 506.375 410.692, 510.017 407.949, 513.094 405.661 C 527.264 395.121, 534.819 389.079, 544.853 380.262 C 556.145 370.339, 585.398 340.815, 594.006 330.654 C 598.128 325.788, 602.216 321.063, 603.091 320.154 C 603.966 319.244, 606.666 315.860, 609.091 312.633 C 611.516 309.406, 616.083 303.331, 619.239 299.133 C 622.395 294.935, 625.429 290.469, 625.980 289.210 C 627.394 285.974, 628.505 286.778, 642.838 301.407 C 649.624 308.333, 655.362 314, 655.588 314 C 655.815 314, 656 283.850, 656 247 C 656 183.838, 655.900 180.003, 654.250 180.050 C 653.288 180.078, 646.875 182.811, 640 186.123 M 328.417 269.916 C 327.476 270.858, 328.032 459, 328.977 459 C 330.731 459, 372.027 433.903, 384.724 425.121 C 394.599 418.290, 397.751 415.363, 399.934 411 C 403.970 402.935, 404.076 400.817, 403.783 334 L 403.500 269.500 366.167 269.500 C 345.634 269.499, 328.646 269.687, 328.417 269.916 M 191.500 533.181 C 180.678 535.360, 173.892 538.938, 166.401 546.415 C 160.535 552.270, 158.732 554.889, 156.015 561.500 C 149.002 578.568, 149.123 598.303, 156.333 613.486 C 161.242 623.822, 166.607 629.285, 176.432 633.950 C 186.401 638.684, 189.867 639.405, 202.500 639.380 C 215.768 639.353, 224.659 637.858, 232.849 634.277 C 235.781 632.995, 236.113 632.482, 235.518 630.156 C 235.145 628.695, 234.599 625.773, 234.306 623.663 C 233.839 620.298, 233.510 619.907, 231.637 620.481 C 219.242 624.277, 212.084 625.250, 201.273 624.606 C 190.118 623.942, 184.638 621.528, 177.877 614.299 C 173.120 609.214, 170.710 603.578, 169.519 594.750 L 168.877 590 205.439 590 L 242 590 242 579.559 C 242 573.677, 241.563 568.848, 241 568.500 C 240.450 568.160, 240 566.583, 240 564.995 C 240 561.382, 232.924 547.548, 229.014 543.517 C 224.731 539.102, 215.244 534.503, 208.500 533.572 C 199.245 532.296, 196.241 532.226, 191.500 533.181 M 312 532.941 C 311.175 533.507, 309.375 533.983, 308 534 C 305.304 534.032, 300.017 535.749, 296 537.895 C 292.527 539.751, 284 548.148, 284 549.712 C 284 550.421, 283.569 551, 283.042 551 C 282.515 551, 281.953 547.513, 281.792 543.250 L 281.500 535.500 272.631 535.209 L 263.761 534.919 264.458 538.209 C 264.841 540.019, 265.388 563.212, 265.673 589.750 L 266.192 638 275.096 638 L 284 638 284 604.529 C 284 571.537, 284.034 570.981, 286.358 565.725 C 292.988 550.733, 307.713 544.183, 320.699 550.447 C 326.031 553.020, 329.087 556.188, 331.839 562 C 333.255 564.989, 333.570 570.761, 333.999 601.500 L 334.500 637.500 344.275 637.787 L 354.049 638.073 353.693 602.287 C 353.496 582.604, 352.891 564.475, 352.346 562 C 349.087 547.177, 339.196 536.790, 325.500 533.807 C 318.131 532.201, 313.512 531.905, 312 532.941 M 410.920 532.413 C 410.605 532.728, 408.021 533.427, 405.177 533.966 C 389.468 536.946, 380.070 547.525, 380.022 562.283 C 380.005 567.519, 380.556 570.163, 382.436 573.873 C 386.394 581.685, 392.438 585.923, 410.500 593.549 C 422.295 598.530, 426.796 604.028, 425.710 612.129 C 424.577 620.569, 417.221 625.885, 406.571 625.959 C 400.480 626.001, 398.045 625.421, 387.239 621.356 C 379.816 618.562, 380 618.582, 380 620.562 C 380 621.421, 379.252 624.411, 378.338 627.207 C 376.740 632.090, 376.750 632.344, 378.588 633.688 C 379.639 634.457, 381.625 635.327, 383 635.621 C 384.375 635.915, 386.400 636.540, 387.500 637.010 C 392.801 639.273, 410.235 640.158, 418 638.557 C 427.549 636.588, 437.916 629.006, 441.997 621.005 C 443.502 618.056, 444 615.110, 444 609.162 C 444 599.728, 442.486 595.568, 436.817 589.417 C 432.845 585.108, 430.502 583.785, 411.092 574.894 C 400.891 570.221, 397.990 567.172, 398.035 561.173 C 398.075 555.892, 399.370 553.041, 403 550.237 C 408.407 546.061, 420.867 545.718, 429.500 549.508 C 436.012 552.366, 436.637 552.061, 438.878 544.929 C 440.658 539.265, 440.316 538.345, 435.750 536.502 C 429.620 534.027, 412.178 531.155, 410.920 532.413 M 497.922 532.411 C 497.609 532.724, 494.687 533.409, 491.427 533.934 C 488.167 534.459, 484.150 535.179, 482.500 535.534 C 477.644 536.578, 469 540.869, 468.995 542.237 C 468.991 543.191, 471.736 552.081, 472.551 553.754 C 472.620 553.894, 473.986 553.381, 475.588 552.613 C 482.487 549.308, 485.741 548.118, 489.500 547.525 C 498.812 546.055, 503.368 545.852, 505.370 546.818 C 506.542 547.382, 508.729 548.111, 510.232 548.437 C 516.760 549.852, 522.580 558.829, 523.288 568.574 L 523.500 571.500 514.500 572.151 C 498.859 573.282, 489.709 575.392, 480.257 580.045 C 472.414 583.906, 467.216 588.885, 464.079 595.542 C 461.087 601.892, 460.718 616.275, 463.393 622.317 C 468.186 633.144, 479.961 640, 493.762 640 C 497.128 640, 500.160 639.550, 500.500 639 C 500.840 638.450, 501.954 638, 502.976 638 C 506.611 638, 514.091 633.995, 518.959 629.442 C 521.676 626.900, 524.372 625.112, 524.950 625.469 C 525.527 625.826, 526 628.809, 526 632.098 L 526 638.078 534.750 637.789 C 542.901 637.520, 543.471 637.363, 543.080 635.500 C 542.850 634.400, 542.363 617.750, 541.998 598.500 C 541.634 579.250, 540.874 561.608, 540.311 559.297 C 538.975 553.819, 534.280 544.589, 531.606 542.185 C 529.603 540.383, 524.447 537.524, 519 535.194 C 514.978 533.473, 498.973 531.360, 497.922 532.411 M 603 533.652 C 585.882 537.322, 573.135 549.187, 567.710 566.500 C 560.844 588.412, 564.723 611.237, 577.665 625.073 C 586.896 634.942, 598.699 639.276, 616.500 639.335 C 627.282 639.371, 633.907 638.424, 643.804 635.431 C 649.322 633.762, 650.028 633.273, 649.458 631.512 C 649.099 630.405, 648.502 627.700, 648.131 625.500 C 647.467 621.564, 647.392 621.504, 643.478 621.734 C 641.290 621.863, 638.600 622.410, 637.500 622.951 C 636.400 623.492, 631 624.286, 625.500 624.717 C 610.183 625.916, 601.081 623.379, 593.167 615.703 C 588.409 611.087, 585.066 605.400, 583.937 600 C 583.535 598.075, 582.879 595.043, 582.480 593.262 L 581.755 590.025 618.627 589.762 L 655.500 589.500 655.791 580.591 C 655.963 575.347, 655.654 571.254, 655.041 570.641 C 654.469 570.069, 654 568.260, 654 566.623 C 654 562.262, 646.699 547.909, 642.300 543.622 C 637.406 538.852, 629.975 535.238, 621.356 533.434 C 613.370 531.763, 611.717 531.783, 603 533.652 M 189.500 547.236 C 184.756 548.941, 179.389 552.643, 177.236 555.695 C 173.124 561.523, 169.886 569.170, 170.193 572.330 L 170.500 575.500 197 575.500 L 223.500 575.500 223.848 573.036 C 224.039 571.681, 223.162 567.481, 221.900 563.702 C 218.120 552.381, 209.038 545.884, 197.266 546.079 C 194.645 546.122, 191.150 546.643, 189.500 547.236 M 602.346 547.630 C 593.623 550.722, 585.427 561.462, 583.559 572.250 L 582.909 576 609.896 576 C 627.623 576, 637.104 575.641, 637.529 574.953 C 638.468 573.433, 636.107 564.260, 633.371 558.799 C 627.967 548.012, 614.722 543.244, 602.346 547.630 M 500 586.919 C 499.175 587.379, 496.700 588.325, 494.500 589.020 C 482.226 592.898, 476.273 606.596, 482.244 617.221 C 486.053 623.998, 498.550 628.362, 504.764 625.084 C 505.719 624.580, 508.139 623.457, 510.143 622.588 C 514.685 620.618, 519.234 615.519, 521.972 609.331 C 523.695 605.434, 524.019 602.976, 523.785 595.544 L 523.500 586.500 512.500 586.291 C 506.450 586.176, 500.825 586.459, 500 586.919" stroke="none" fill="#1984c1" fill-rule="evenodd"/><path d="M -0 400.001 L -0 800.002 400.250 799.751 L 800.500 799.500 800.751 399.750 L 801.002 0 400.501 0 L 0 0 -0 400.001 M 0.495 400.500 C 0.495 620.500, 0.610 710.351, 0.750 600.169 C 0.890 489.986, 0.890 309.986, 0.750 200.169 C 0.610 90.351, 0.495 180.500, 0.495 400.500 M 121.536 224.250 C 121.147 266.188, 121.205 382.175, 121.665 482 L 122.500 663.500 403 663.500 L 683.500 663.500 683.752 405.750 L 684.004 148 403.123 148 L 122.242 148 121.536 224.250 M 128.855 159.750 C 128.660 161.813, 128.634 274.538, 128.798 410.252 L 129.096 657.004 403.298 656.752 L 677.500 656.500 677.752 406.250 L 678.004 156 403.607 156 L 129.210 156 128.855 159.750 M 428.430 177.332 C 428.185 177.974, 428.101 227.949, 428.242 288.386 L 428.500 398.272 432.436 394.886 C 434.602 393.024, 438.202 389.921, 440.436 387.990 C 442.671 386.060, 446.975 382.473, 450 380.018 C 474.963 359.765, 496.590 335.522, 504.404 319.034 L 507.500 312.500 507.500 244.500 L 507.500 176.500 468.187 176.332 C 439 176.208, 428.760 176.465, 428.430 177.332 M 640 186.123 C 633.125 189.435, 624.575 193.513, 621 195.185 C 609.853 200.397, 579.153 214.930, 564.120 222.111 C 551.496 228.141, 549.898 229.172, 551.040 230.549 C 551.756 231.411, 558.790 236.367, 566.671 241.562 C 574.552 246.757, 581 251.591, 581 252.305 C 581 254.198, 569.607 273.735, 560.448 287.547 C 553.754 297.641, 547.498 306.267, 535.522 321.915 C 525.579 334.907, 505.096 356.790, 487.433 373.292 C 469.548 390, 466.406 392.782, 459.280 398.211 C 432.298 418.770, 425.421 423.542, 405.500 435.531 C 392.314 443.467, 361.867 459.333, 350 464.453 C 346.425 465.995, 341.589 468.110, 339.253 469.152 C 325.318 475.370, 301.596 483.453, 278 490.024 C 273.875 491.172, 269.118 492.537, 267.429 493.056 C 265.740 493.575, 263.242 494, 261.879 494 C 260.516 494, 258.973 494.404, 258.450 494.898 C 257.928 495.391, 255.700 496.043, 253.500 496.347 C 251.300 496.650, 247.025 497.392, 244 497.995 C 225.214 501.740, 206.717 503.791, 175.780 505.561 C 168.413 505.982, 163.301 506.678, 163.633 507.215 C 163.948 507.724, 165.896 507.856, 167.962 507.506 C 170.028 507.157, 177.519 507.623, 184.609 508.540 C 197.542 510.215, 201.031 510.209, 242 508.443 C 248.875 508.146, 255.400 507.506, 256.500 507.019 C 257.600 506.533, 261.875 505.867, 266 505.539 C 278.833 504.520, 283.429 503.927, 285.500 503.021 C 286.600 502.540, 289.525 501.889, 292 501.575 C 300.399 500.510, 318.145 496.789, 328.500 493.921 C 330.700 493.312, 333.967 492.581, 335.759 492.296 C 337.552 492.012, 339.266 491.379, 339.568 490.890 C 339.871 490.400, 341.223 490, 342.573 490 C 343.923 490, 345.809 489.594, 346.764 489.097 C 347.719 488.601, 350.525 487.649, 353 486.981 C 358.320 485.547, 362.735 484.123, 365.500 482.949 C 366.600 482.483, 369.525 481.433, 372 480.616 C 413.673 466.869, 474.372 435.442, 505 411.755 C 506.375 410.692, 510.017 407.949, 513.094 405.661 C 527.264 395.121, 534.819 389.079, 544.853 380.262 C 556.145 370.339, 585.398 340.815, 594.006 330.654 C 598.128 325.788, 602.216 321.063, 603.091 320.154 C 603.966 319.244, 606.666 315.860, 609.091 312.633 C 611.516 309.406, 616.083 303.331, 619.239 299.133 C 622.395 294.935, 625.429 290.469, 625.980 289.210 C 627.394 285.974, 628.505 286.778, 642.838 301.407 C 649.624 308.333, 655.362 314, 655.588 314 C 655.815 314, 656 283.850, 656 247 C 656 183.838, 655.900 180.003, 654.250 180.050 C 653.288 180.078, 646.875 182.811, 640 186.123 M 328.417 269.916 C 327.476 270.858, 328.032 459, 328.977 459 C 330.731 459, 372.027 433.903, 384.724 425.121 C 394.599 418.290, 397.751 415.363, 399.934 411 C 403.970 402.935, 404.076 400.817, 403.783 334 L 403.500 269.500 366.167 269.500 C 345.634 269.499, 328.646 269.687, 328.417 269.916 M 191.500 533.181 C 180.678 535.360, 173.892 538.938, 166.401 546.415 C 160.535 552.270, 158.732 554.889, 156.015 561.500 C 149.002 578.568, 149.123 598.303, 156.333 613.486 C 161.242 623.822, 166.607 629.285, 176.432 633.950 C 186.401 638.684, 189.867 639.405, 202.500 639.380 C 215.768 639.353, 224.659 637.858, 232.849 634.277 C 235.781 632.995, 236.113 632.482, 235.518 630.156 C 235.145 628.695, 234.599 625.773, 234.306 623.663 C 233.839 620.298, 233.510 619.907, 231.637 620.481 C 219.242 624.277, 212.084 625.250, 201.273 624.606 C 190.118 623.942, 184.638 621.528, 177.877 614.299 C 173.120 609.214, 170.710 603.578, 169.519 594.750 L 168.877 590 205.439 590 L 242 590 242 579.559 C 242 573.677, 241.563 568.848, 241 568.500 C 240.450 568.160, 240 566.583, 240 564.995 C 240 561.382, 232.924 547.548, 229.014 543.517 C 224.731 539.102, 215.244 534.503, 208.500 533.572 C 199.245 532.296, 196.241 532.226, 191.500 533.181 M 312 532.941 C 311.175 533.507, 309.375 533.983, 308 534 C 305.304 534.032, 300.017 535.749, 296 537.895 C 292.527 539.751, 284 548.148, 284 549.712 C 284 550.421, 283.569 551, 283.042 551 C 282.515 551, 281.953 547.513, 281.792 543.250 L 281.500 535.500 272.631 535.209 L 263.761 534.919 264.458 538.209 C 264.841 540.019, 265.388 563.212, 265.673 589.750 L 266.192 638 275.096 638 L 284 638 284 604.529 C 284 571.537, 284.034 570.981, 286.358 565.725 C 292.988 550.733, 307.713 544.183, 320.699 550.447 C 326.031 553.020, 329.087 556.188, 331.839 562 C 333.255 564.989, 333.570 570.761, 333.999 601.500 L 334.500 637.500 344.275 637.787 L 354.049 638.073 353.693 602.287 C 353.496 582.604, 352.891 564.475, 352.346 562 C 349.087 547.177, 339.196 536.790, 325.500 533.807 C 318.131 532.201, 313.512 531.905, 312 532.941 M 410.920 532.413 C 410.605 532.728, 408.021 533.427, 405.177 533.966 C 389.468 536.946, 380.070 547.525, 380.022 562.283 C 380.005 567.519, 380.556 570.163, 382.436 573.873 C 386.394 581.685, 392.438 585.923, 410.500 593.549 C 422.295 598.530, 426.796 604.028, 425.710 612.129 C 424.577 620.569, 417.221 625.885, 406.571 625.959 C 400.480 626.001, 398.045 625.421, 387.239 621.356 C 379.816 618.562, 380 618.582, 380 620.562 C 380 621.421, 379.252 624.411, 378.338 627.207 C 376.740 632.090, 376.750 632.344, 378.588 633.688 C 379.639 634.457, 381.625 635.327, 383 635.621 C 384.375 635.915, 386.400 636.540, 387.500 637.010 C 392.801 639.273, 410.235 640.158, 418 638.557 C 427.549 636.588, 437.916 629.006, 441.997 621.005 C 443.502 618.056, 444 615.110, 444 609.162 C 444 599.728, 442.486 595.568, 436.817 589.417 C 432.845 585.108, 430.502 583.785, 411.092 574.894 C 400.891 570.221, 397.990 567.172, 398.035 561.173 C 398.075 555.892, 399.370 553.041, 403 550.237 C 408.407 546.061, 420.867 545.718, 429.500 549.508 C 436.012 552.366, 436.637 552.061, 438.878 544.929 C 440.658 539.265, 440.316 538.345, 435.750 536.502 C 429.620 534.027, 412.178 531.155, 410.920 532.413 M 497.922 532.411 C 497.609 532.724, 494.687 533.409, 491.427 533.934 C 488.167 534.459, 484.150 535.179, 482.500 535.534 C 477.644 536.578, 469 540.869, 468.995 542.237 C 468.991 543.191, 471.736 552.081, 472.551 553.754 C 472.620 553.894, 473.986 553.381, 475.588 552.613 C 482.487 549.308, 485.741 548.118, 489.500 547.525 C 498.812 546.055, 503.368 545.852, 505.370 546.818 C 506.542 547.382, 508.729 548.111, 510.232 548.437 C 516.760 549.852, 522.580 558.829, 523.288 568.574 L 523.500 571.500 514.500 572.151 C 498.859 573.282, 489.709 575.392, 480.257 580.045 C 472.414 583.906, 467.216 588.885, 464.079 595.542 C 461.087 601.892, 460.718 616.275, 463.393 622.317 C 468.186 633.144, 479.961 640, 493.762 640 C 497.128 640, 500.160 639.550, 500.500 639 C 500.840 638.450, 501.954 638, 502.976 638 C 506.611 638, 514.091 633.995, 518.959 629.442 C 521.676 626.900, 524.372 625.112, 524.950 625.469 C 525.527 625.826, 526 628.809, 526 632.098 L 526 638.078 534.750 637.789 C 542.901 637.520, 543.471 637.363, 543.080 635.500 C 542.850 634.400, 542.363 617.750, 541.998 598.500 C 541.634 579.250, 540.874 561.608, 540.311 559.297 C 538.975 553.819, 534.280 544.589, 531.606 542.185 C 529.603 540.383, 524.447 537.524, 519 535.194 C 514.978 533.473, 498.973 531.360, 497.922 532.411 M 603 533.652 C 585.882 537.322, 573.135 549.187, 567.710 566.500 C 560.844 588.412, 564.723 611.237, 577.665 625.073 C 586.896 634.942, 598.699 639.276, 616.500 639.335 C 627.282 639.371, 633.907 638.424, 643.804 635.431 C 649.322 633.762, 650.028 633.273, 649.458 631.512 C 649.099 630.405, 648.502 627.700, 648.131 625.500 C 647.467 621.564, 647.392 621.504, 643.478 621.734 C 641.290 621.863, 638.600 622.410, 637.500 622.951 C 636.400 623.492, 631 624.286, 625.500 624.717 C 610.183 625.916, 601.081 623.379, 593.167 615.703 C 588.409 611.087, 585.066 605.400, 583.937 600 C 583.535 598.075, 582.879 595.043, 582.480 593.262 L 581.755 590.025 618.627 589.762 L 655.500 589.500 655.791 580.591 C 655.963 575.347, 655.654 571.254, 655.041 570.641 C 654.469 570.069, 654 568.260, 654 566.623 C 654 562.262, 646.699 547.909, 642.300 543.622 C 637.406 538.852, 629.975 535.238, 621.356 533.434 C 613.370 531.763, 611.717 531.783, 603 533.652 M 189.500 547.236 C 184.756 548.941, 179.389 552.643, 177.236 555.695 C 173.124 561.523, 169.886 569.170, 170.193 572.330 L 170.500 575.500 197 575.500 L 223.500 575.500 223.848 573.036 C 224.039 571.681, 223.162 567.481, 221.900 563.702 C 218.120 552.381, 209.038 545.884, 197.266 546.079 C 194.645 546.122, 191.150 546.643, 189.500 547.236 M 602.346 547.630 C 593.623 550.722, 585.427 561.462, 583.559 572.250 L 582.909 576 609.896 576 C 627.623 576, 637.104 575.641, 637.529 574.953 C 638.468 573.433, 636.107 564.260, 633.371 558.799 C 627.967 548.012, 614.722 543.244, 602.346 547.630 M 500 586.919 C 499.175 587.379, 496.700 588.325, 494.500 589.020 C 482.226 592.898, 476.273 606.596, 482.244 617.221 C 486.053 623.998, 498.550 628.362, 504.764 625.084 C 505.719 624.580, 508.139 623.457, 510.143 622.588 C 514.685 620.618, 519.234 615.519, 521.972 609.331 C 523.695 605.434, 524.019 602.976, 523.785 595.544 L 523.500 586.500 512.500 586.291 C 506.450 586.176, 500.825 586.459, 500 586.919" stroke="none" fill="#f9fafb" fill-rule="evenodd"/></svg>