<svg xmlns="http://www.w3.org/2000/svg" width="1280" height="691" viewBox="0 0 1280 691" version="1.1"><path d="M 393.788 20.909 L 394.076 41.819 399.666 42.160 C 402.833 42.352, 405.385 42.067, 405.553 41.500 C 405.716 40.950, 406.052 31.387, 406.300 20.250 L 406.752 0 400.126 -0.001 L 393.500 -0.002 393.788 20.909 M 348.944 2.697 L 346.389 3.095 349.155 22.798 C 350.677 33.634, 351.939 43.125, 351.961 43.890 C 351.991 44.978, 353.219 45.154, 357.605 44.701 C 360.688 44.383, 363.358 43.975, 363.538 43.795 C 363.719 43.615, 362.908 34.137, 361.736 22.734 L 359.606 2 355.553 2.150 C 353.324 2.232, 350.350 2.479, 348.944 2.697 M 440.563 5.126 C 439.753 8.700, 435.211 44.453, 435.520 44.811 C 436.105 45.488, 447 46.237, 447 45.600 C 447 45.226, 448.570 35.858, 450.489 24.782 C 452.408 13.706, 453.867 4.534, 453.733 4.399 C 453.598 4.265, 450.701 3.839, 447.294 3.454 C 441.337 2.780, 441.080 2.844, 440.563 5.126 M 305.665 11.507 C 303.006 12.238, 300.674 12.993, 300.482 13.184 C 300.028 13.639, 311.022 52.281, 311.869 53.208 C 312.225 53.598, 314.763 53.332, 317.508 52.619 C 321.238 51.650, 322.461 50.877, 322.345 49.564 C 321.870 44.179, 312.597 10.013, 311.631 10.089 C 311.009 10.139, 308.324 10.777, 305.665 11.507 M 487 12.529 C 487 12.972, 477.960 45.966, 476.417 51.157 C 476.041 52.420, 477.143 53.219, 481.052 54.517 C 483.883 55.458, 486.540 55.835, 486.985 55.360 C 487.427 54.887, 490.377 46.175, 493.540 36 C 496.703 25.825, 499.468 17.016, 499.685 16.425 C 499.902 15.833, 497.372 14.597, 494.055 13.675 C 487.415 11.829, 487 11.762, 487 12.529 M 262.308 26.425 C 259.452 27.594, 256.809 28.857, 256.435 29.232 C 255.913 29.754, 271.138 66.197, 272.571 67.856 C 273.144 68.519, 282.193 64.661, 282.609 63.577 C 282.918 62.770, 268.475 24.933, 267.654 24.400 C 267.569 24.345, 265.164 25.256, 262.308 26.425 M 530.460 31.250 C 529.631 33.038, 525.859 41.700, 522.077 50.500 L 515.201 66.500 519.851 68.689 C 522.408 69.892, 524.860 70.905, 525.300 70.939 C 526.014 70.993, 533.060 56.833, 541.071 39.246 L 543.920 32.993 538.993 30.496 C 536.283 29.123, 533.594 28, 533.017 28 C 532.440 28, 531.289 29.462, 530.460 31.250 M 219.213 48.155 C 216.346 49.811, 214 51.402, 214 51.691 C 214 51.980, 218.979 60.246, 225.064 70.059 L 236.129 87.902 241.069 84.863 C 243.786 83.191, 245.850 81.525, 245.656 81.162 C 241.980 74.271, 225.553 45.842, 225.079 45.549 C 224.720 45.327, 222.080 46.500, 219.213 48.155 M 563.181 67.195 L 552.189 85.477 556.344 88.234 C 558.630 89.751, 560.969 90.993, 561.542 90.996 C 562.523 91, 583.179 60.315, 584.476 56.928 C 584.866 55.907, 584.275 54.962, 582.789 54.232 C 581.530 53.614, 579.077 52.164, 577.337 51.011 L 574.174 48.913 563.181 67.195 M 600.496 91.750 C 593.991 99.862, 588.224 107.081, 587.678 107.791 C 586.963 108.723, 587.619 110.043, 590.040 112.541 C 591.884 114.443, 593.951 116, 594.634 116 C 595.316 116, 602.040 108.945, 609.575 100.323 L 623.276 84.646 618.888 80.853 C 616.475 78.767, 614.010 77.046, 613.411 77.030 C 612.812 77.013, 607 83.638, 600.496 91.750 M 390.346 88.250 C 390.699 92.787, 390.991 102.463, 390.994 109.750 L 391 123 397 123 L 403 123 403 109.151 C 403 101.534, 403.291 91.859, 403.647 87.651 L 404.293 80 396.999 80 L 389.704 80 390.346 88.250 M 348.250 84.195 C 343.796 85.007, 343.007 85.482, 343.048 87.326 C 343.074 88.522, 344.793 97.825, 346.867 108 L 350.638 126.500 355.533 126.236 C 358.225 126.091, 360.759 125.641, 361.164 125.236 C 362.261 124.139, 355.796 82.978, 354.550 83.119 C 353.972 83.184, 351.137 83.668, 348.250 84.195 M 435.061 104.420 C 433.233 115.778, 431.908 125.213, 432.118 125.387 C 432.328 125.561, 434.845 126.152, 437.711 126.700 L 442.921 127.697 444.079 122.098 C 444.716 119.019, 446.681 109.750, 448.445 101.500 C 450.847 90.266, 451.352 86.318, 450.458 85.774 C 449.802 85.375, 446.817 84.761, 443.825 84.409 L 438.386 83.770 435.061 104.420 M 302.090 97.067 C 299.114 98.123, 296.533 99.133, 296.355 99.312 C 295.760 99.907, 311.859 138.501, 312.686 138.461 C 313.134 138.440, 315.452 137.795, 317.838 137.027 C 321.725 135.776, 322.122 135.364, 321.655 133.065 C 320.739 128.552, 308.800 94.997, 308.138 95.073 C 307.787 95.113, 305.065 96.010, 302.090 97.067 M 484.227 98.673 C 474.749 124.893, 471 135.335, 471 135.512 C 471 136.122, 480.157 139.114, 481.080 138.807 C 481.673 138.609, 485.678 129.909, 489.980 119.474 L 497.803 100.500 493.775 98.737 C 486.464 95.538, 485.363 95.530, 484.227 98.673 M 632.011 123.121 C 615.778 138.453, 616.070 137.876, 621.782 143.311 L 624.736 146.121 640.368 132.441 C 648.966 124.917, 656 118.523, 656 118.233 C 656 117.177, 648.839 109, 647.914 109 C 647.391 109, 640.234 115.355, 632.011 123.121 M 523.425 125.731 C 520.282 131.104, 515.526 139.226, 512.856 143.781 C 510.185 148.335, 508 152.213, 508 152.398 C 508 152.996, 515.927 158, 516.874 158 C 518.254 158, 540.198 123.947, 539.662 122.636 C 539.406 122.011, 536.934 120.254, 534.168 118.731 L 529.139 115.963 523.425 125.731 M 554.415 160.171 L 540.608 176.294 544.554 179.632 C 546.724 181.468, 548.784 182.977, 549.131 182.985 C 549.730 182.999, 557.958 174.626, 571.981 159.730 L 578.354 152.961 574.927 149.398 C 568.690 142.914, 569.605 142.434, 554.415 160.171 M 660.347 157.291 L 643.194 169.500 644.704 172.066 C 645.534 173.477, 646.988 175.658, 647.933 176.912 L 649.653 179.191 667.326 167.628 C 677.047 161.268, 685 155.826, 685 155.534 C 685 155.015, 677.963 144.960, 677.656 145.041 C 677.570 145.064, 669.781 150.576, 660.347 157.291 M 418.662 177.701 C 417.257 182.723, 413.766 217.162, 414.582 217.951 C 415.087 218.440, 417.497 218.988, 419.937 219.170 L 424.374 219.500 428.139 201 C 430.210 190.825, 431.926 181.518, 431.952 180.317 C 432.004 177.952, 431.070 177.517, 423.833 176.535 C 419.873 175.998, 419.090 176.175, 418.662 177.701 M 585.215 192.102 L 568.994 205.204 572.190 209.352 C 573.948 211.633, 575.504 213.668, 575.650 213.873 C 576.001 214.371, 609.938 189.672, 609.973 188.894 C 610.016 187.921, 602.982 179, 602.172 179 C 601.768 179, 594.137 184.896, 585.215 192.102 M 686 193.894 C 676.925 198.674, 668.488 203.145, 667.251 203.828 L 665.002 205.070 667.518 210.035 C 668.901 212.766, 670.242 215, 670.496 215 C 670.961 215, 707.110 197.884, 707.948 197.267 C 708.195 197.086, 707.070 194.297, 705.448 191.069 L 702.500 185.202 686 193.894 M 458.997 208.506 C 454.422 219.234, 450.864 228.179, 451.089 228.383 C 451.315 228.587, 453.368 229.696, 455.652 230.847 C 458.844 232.457, 460.024 232.659, 460.754 231.720 C 461.276 231.049, 465.841 222.529, 470.898 212.788 L 480.092 195.075 474.074 192.038 C 470.765 190.367, 467.890 189, 467.687 189 C 467.483 189, 463.573 197.778, 458.997 208.506 M 496.616 231.972 L 483.049 248.049 487.174 251.775 L 491.299 255.500 505.649 240.533 C 513.542 232.301, 520 225.213, 520 224.781 C 520 223.976, 512.392 216.744, 510.971 216.197 C 510.538 216.031, 504.078 223.129, 496.616 231.972 M 610.500 228.517 C 601.150 233.698, 593.107 238.082, 592.627 238.260 C 592.147 238.437, 592.928 240.897, 594.361 243.726 L 596.968 248.871 615.734 239.841 C 626.055 234.875, 634.634 230.682, 634.798 230.525 C 635.451 229.896, 629.513 219.003, 628.542 219.049 C 627.969 219.075, 619.850 223.336, 610.500 228.517 M 701.500 235.642 C 691.600 239.213, 683.113 242.514, 682.640 242.977 C 681.434 244.159, 684.927 254.242, 686.353 253.697 C 686.984 253.455, 695.600 250.701, 705.500 247.575 C 715.400 244.449, 724.041 241.714, 724.701 241.496 C 726.258 240.983, 722.346 228.966, 720.658 229.075 C 720.021 229.116, 711.400 232.071, 701.500 235.642 M 526.741 264.407 C 517.523 270.610, 509.725 275.942, 509.411 276.256 C 508.365 277.302, 513.451 285.052, 515 284.772 C 517.420 284.333, 550.943 265.583, 550.973 264.650 C 551.008 263.561, 544.664 253.045, 544 253.093 C 543.725 253.113, 535.958 258.204, 526.741 264.407 M 627.500 269.389 L 608.500 275.607 608.813 278.465 C 608.986 280.038, 609.661 282.545, 610.313 284.036 L 611.500 286.748 631.500 281.276 C 642.500 278.266, 651.647 275.663, 651.827 275.492 C 652.609 274.745, 648.627 263.008, 647.618 263.086 C 647.003 263.133, 637.950 265.970, 627.500 269.389 M 713 278.446 C 696.938 281.903, 693.515 282.938, 693.583 284.321 C 693.861 289.923, 694.117 291.637, 694.849 292.790 C 695.502 293.820, 699.729 293.398, 715.843 290.697 C 726.940 288.836, 736.232 287.101, 736.492 286.841 C 737.433 285.901, 734.767 274.002, 733.643 274.124 C 733.014 274.193, 723.725 276.137, 713 278.446 M 544.697 304.962 C 534.355 308.158, 525.730 310.937, 525.529 311.138 C 525.328 311.339, 525.653 313.640, 526.250 316.251 C 526.988 319.474, 527.845 320.994, 528.918 320.980 C 533.019 320.928, 568.414 312.257, 568.760 311.219 C 569.424 309.228, 566.021 298.995, 564.722 299.075 C 564.050 299.117, 555.039 301.766, 544.697 304.962 M 635.136 312.833 L 616.772 315.401 617.418 320.899 C 617.773 323.923, 618.162 326.479, 618.282 326.579 C 618.455 326.724, 660.428 323.212, 660.526 323.045 C 660.686 322.772, 659.796 313.950, 659.437 312.250 C 658.853 309.486, 659.105 309.480, 635.136 312.833 M 717.500 322.553 C 708.700 323.246, 700.915 323.855, 700.200 323.907 C 699.259 323.974, 698.983 325.565, 699.200 329.667 L 699.500 335.334 713 335.153 C 720.425 335.054, 729.987 334.695, 734.250 334.357 C 742.898 333.670, 742.844 333.742, 741.358 324.750 C 740.635 320.376, 742.713 320.567, 717.500 322.553 M 544.250 348.729 L 531 349.058 531 354.389 L 531 359.720 551.525 361.002 C 562.814 361.706, 572.333 362.001, 572.678 361.656 C 573.023 361.311, 573.349 358.210, 573.402 354.764 L 573.500 348.500 565.500 348.450 C 561.100 348.423, 551.538 348.548, 544.250 348.729 M 618.735 356.599 C 618.331 357.003, 618 359.500, 618 362.148 C 618 366.338, 618.292 367.021, 620.250 367.419 C 625.462 368.477, 658.162 371.152, 659.519 370.631 C 660.597 370.217, 661 368.445, 661 364.117 L 661 358.171 653.750 357.613 C 638.617 356.448, 619.440 355.893, 618.735 356.599 M 698.514 366.824 C 698.231 367.561, 698 370.102, 698 372.470 C 698 376.546, 698.174 376.808, 701.250 377.346 C 708.710 378.650, 739.092 381.242, 739.707 380.626 C 740.075 380.259, 740.566 377.325, 740.799 374.106 L 741.222 368.254 730.361 367.508 C 700.744 365.475, 699.046 365.439, 698.514 366.824 M 524.891 389.750 C 522.172 396.810, 521.814 396.508, 541.899 404.072 C 552.018 407.882, 560.864 411, 561.557 411 C 562.602 411, 567.506 399.118, 566.743 398.436 C 566.324 398.061, 527.683 387, 526.795 387 C 526.330 387, 525.474 388.238, 524.891 389.750 M 612.003 400.199 C 611.397 402.565, 610.716 405.055, 610.489 405.733 C 610.233 406.498, 612.056 407.541, 615.288 408.478 C 645.930 417.368, 651.175 418.695, 651.520 417.643 C 654.124 409.704, 654.816 405.873, 653.710 405.513 C 653.044 405.297, 644.400 403.268, 634.500 401.004 C 624.600 398.741, 615.736 396.666, 614.802 396.393 C 613.491 396.011, 612.854 396.878, 612.003 400.199 M 692.621 408.750 C 692.338 409.712, 691.813 412.158, 691.454 414.185 C 690.816 417.789, 690.886 417.892, 694.651 418.904 C 704.778 421.627, 731.499 427.834, 731.800 427.534 C 732.405 426.928, 735.130 415.796, 734.762 415.429 C 734.329 414.995, 695.983 407.006, 694.317 407.003 C 693.667 407.001, 692.903 407.788, 692.621 408.750 M 597.964 439.583 C 596.884 442.104, 596 444.351, 596 444.578 C 596 444.805, 604.482 449.236, 614.850 454.425 L 633.699 463.860 636.528 457.941 C 638.084 454.686, 639.164 451.838, 638.928 451.610 C 638.227 450.935, 601.569 435, 600.714 435 C 600.282 435, 599.045 437.062, 597.964 439.583 M 680.633 450.337 C 677.400 458.073, 676.188 456.951, 696.238 464.775 C 706.282 468.695, 715.243 472.180, 716.152 472.520 C 717.446 473.005, 718.269 471.897, 719.946 467.414 C 721.125 464.265, 721.731 461.336, 721.294 460.905 C 720.571 460.192, 683.831 447, 682.569 447 C 682.271 447, 681.399 448.502, 680.633 450.337 M 577.316 474.712 L 574.132 479.354 591.236 492.177 L 608.339 505 612.137 499.750 C 614.226 496.862, 615.935 494.275, 615.933 494 C 615.932 493.577, 582.574 470.914, 581.029 470.285 C 580.738 470.167, 579.067 472.159, 577.316 474.712 M 662.659 489.885 L 660 494.770 662.250 496.199 C 666.200 498.707, 695.853 515.199, 696.688 515.353 C 697.441 515.491, 702.926 506.305, 702.977 504.821 C 702.997 504.222, 666.916 485, 665.770 485 C 665.522 485, 664.121 487.198, 662.659 489.885 M 550.755 505.750 L 547.104 509.500 561.150 524.750 C 568.876 533.138, 575.509 540, 575.890 540 C 576.272 540, 578.590 537.938, 581.042 535.418 L 585.500 530.837 570.500 516.453 C 562.250 508.542, 555.254 502.054, 554.953 502.035 C 554.652 502.016, 552.763 503.688, 550.755 505.750 M 640.113 525.336 L 637.130 529.672 653.156 541.902 C 661.970 548.629, 669.721 554.339, 670.380 554.592 C 671.522 555.031, 678 546.918, 678 545.049 C 678 543.983, 645.639 521, 644.138 521 C 643.565 521, 641.754 522.951, 640.113 525.336 M 519.143 531.011 C 516.478 532.942, 515.194 534.516, 515.657 535.284 C 517.362 538.113, 537.242 569.528, 537.512 569.821 C 538.079 570.435, 547.964 563.494, 547.982 562.470 C 548.003 561.288, 525.243 528.641, 524.110 528.227 C 523.699 528.077, 521.464 529.330, 519.143 531.011 M 484.032 550.167 C 481.574 551.232, 479.415 552.251, 479.235 552.432 C 478.967 552.699, 493.777 590.781, 494.546 591.804 C 494.672 591.971, 497.522 590.846, 500.880 589.304 L 506.984 586.500 498.426 568 C 493.720 557.825, 489.561 549.214, 489.184 548.865 C 488.808 548.516, 486.489 549.102, 484.032 550.167 M 613.490 557.010 L 609.552 561.043 624.547 576.039 L 639.542 591.034 644.259 586.245 L 648.976 581.455 633.919 567.478 C 625.638 559.790, 618.540 553.382, 618.146 553.238 C 617.751 553.094, 615.657 554.791, 613.490 557.010 M 443.155 563.122 C 440.400 563.933, 439.901 564.494, 440.329 566.303 C 440.614 567.511, 442.502 576.825, 444.523 587 C 446.545 597.175, 448.271 605.579, 448.358 605.675 C 448.654 606.002, 460.196 603.137, 460.729 602.605 C 461.020 602.313, 459.039 593.171, 456.328 582.288 C 451.644 563.490, 451.274 562.491, 448.948 562.319 C 447.602 562.219, 444.995 562.581, 443.155 563.122 M 582.750 584.133 C 580.688 585.816, 579 587.626, 579 588.154 C 579 589.121, 602.489 620.566, 603.831 621.396 C 604.228 621.641, 606.698 619.965, 609.321 617.671 L 614.090 613.500 601.064 597.506 C 593.900 588.710, 587.692 581.414, 587.269 581.292 C 586.846 581.171, 584.813 582.449, 582.750 584.133 M 548.250 607.567 C 545.913 608.967, 544 610.481, 544 610.929 C 544 611.608, 562.556 645.495, 563.738 646.976 C 564.286 647.662, 575 641.914, 575 640.935 C 575 639.783, 554.105 605.553, 553.223 605.260 C 552.825 605.128, 550.587 606.166, 548.250 607.567 M 511.333 625.806 C 509.041 626.738, 506.894 627.772, 506.562 628.104 C 506.089 628.578, 520.384 666.704, 521.432 667.763 C 521.914 668.249, 533 663.033, 533 662.320 C 533 660.912, 516.712 624.002, 516.115 624.056 C 515.777 624.087, 513.625 624.874, 511.333 625.806 M 470.229 639.267 C 467.017 640.039, 466.080 640.690, 466.449 641.896 C 466.719 642.778, 468.956 651.990, 471.420 662.366 C 473.883 672.743, 476.047 681.380, 476.227 681.561 C 477.076 682.409, 489.065 678.610, 488.684 677.613 C 488.450 677.001, 485.875 667.837, 482.963 657.250 C 478.853 642.306, 477.314 638.027, 476.084 638.120 C 475.213 638.186, 472.578 638.702, 470.229 639.267 M 428.685 646.732 C 425.149 647.099, 424.908 647.325, 425.390 649.814 C 425.676 651.291, 426.672 660.898, 427.602 671.163 L 429.292 689.825 434.896 689.286 C 437.978 688.989, 440.906 688.375, 441.403 687.920 C 442.222 687.171, 440.987 675.270, 437.805 653.250 C 436.653 645.282, 437.414 645.826, 428.685 646.732 M 383.613 653.250 C 383.321 656.138, 382.825 665.813, 382.510 674.750 L 381.939 691 388.469 691 L 395 691 395 670.131 L 395 649.262 391.250 648.642 C 384.278 647.489, 384.190 647.542, 383.613 653.250" stroke="none" fill="#0496d5" fill-rule="evenodd"/><path d="M 840.750 170.186 C 836.042 172.335, 834 173.814, 834 175.074 C 834 178.197, 835.721 178.174, 843.471 174.948 C 851.091 171.776, 851.481 171.417, 850.393 168.582 C 849.573 166.445, 848.589 166.609, 840.750 170.186 M 1099.200 179.200 C 1097.527 180.873, 1097.702 184.508, 1099.530 186.025 C 1100.699 186.995, 1101.641 187.029, 1103.530 186.168 C 1106.352 184.882, 1106.758 181.901, 1104.429 179.571 C 1102.550 177.692, 1100.830 177.570, 1099.200 179.200 M 933.199 202.590 C 933.498 226.007, 933.517 226.194, 935.861 228.090 C 937.159 229.140, 938.798 230, 939.502 230 C 941.125 230, 942.563 224.688, 941.075 224.192 C 940.351 223.950, 940 216.521, 940 201.417 L 940 179 936.449 179 L 932.897 179 933.199 202.590 M 1219 202.427 L 1219 225.855 1221.669 227.954 C 1223.137 229.109, 1224.825 229.894, 1225.419 229.699 C 1226.929 229.202, 1227.395 224.995, 1226.085 223.685 C 1225.371 222.971, 1225 215.134, 1225 200.800 L 1225 179 1222 179 L 1219 179 1219 202.427 M 836.096 182.265 C 834.774 182.944, 832.749 184.770, 831.596 186.323 C 829.676 188.910, 829.500 190.469, 829.500 204.922 C 829.500 222.114, 830.066 224.426, 834.983 227.331 C 837.064 228.560, 840.204 229, 846.904 229 L 856 229 856 226 L 856 223 847.571 223 C 837.039 223, 836 222.186, 836 213.929 L 836 208 845.500 208 L 855 208 855 205 L 855 202 845.500 202 L 836 202 836 196.057 C 836 188.176, 837.587 187, 848.223 187 L 856 187 856 184 L 856 181 847.250 181.015 C 842.300 181.023, 837.456 181.566, 836.096 182.265 M 1075 185.918 C 1075 191.367, 1074.168 193, 1071.393 193 C 1069.507 193, 1069 193.530, 1069 195.500 C 1069 197.478, 1069.505 198, 1071.421 198 C 1073.839 198, 1073.841 198.009, 1074.171 210.923 C 1074.478 222.971, 1074.663 224.018, 1076.910 226.407 C 1079.522 229.184, 1084.551 230.595, 1087.971 229.509 C 1089.581 228.998, 1090.039 228.163, 1089.808 226.164 C 1089.545 223.890, 1089.090 223.548, 1086.697 223.829 C 1081.609 224.425, 1081 222.934, 1081 209.878 L 1081 198 1085 198 C 1088.600 198, 1089 197.750, 1089 195.500 C 1089 193.250, 1088.600 193, 1085 193 L 1081 193 1081 187.500 C 1081 182.056, 1080.970 182, 1078 182 C 1075.177 182, 1075 182.231, 1075 185.918 M 872.643 192.997 C 865.667 195.163, 862.999 200.203, 863.004 211.200 C 863.007 217.662, 863.439 220.208, 864.956 222.696 C 868.731 228.888, 875.705 231.234, 883.830 229.046 C 887.674 228.011, 888.090 227.609, 887.811 225.195 C 887.479 222.317, 887.397 222.301, 879.410 223.543 C 875.956 224.080, 874.867 223.790, 872.410 221.676 C 869.649 219.301, 869.500 218.765, 869.500 211.192 C 869.500 204.618, 869.853 202.818, 871.500 200.987 C 873.301 198.985, 874.162 198.819, 880.168 199.317 C 887.006 199.884, 888 199.399, 888 195.498 C 888 193.385, 877.104 191.611, 872.643 192.997 M 905.741 193.431 C 898.221 196.111, 895.999 200.168, 896.002 211.218 C 896.004 222.788, 900.256 228.760, 909.136 229.665 C 914.589 230.220, 919.586 227.808, 922.730 223.102 C 924.611 220.287, 925 218.352, 925 211.820 C 925 207.360, 924.398 202.494, 923.613 200.617 C 920.922 194.177, 912.805 190.913, 905.741 193.431 M 958.500 192.703 C 954.917 193.654, 950.804 197.226, 949.387 200.617 C 947.603 204.886, 947.598 217.103, 949.379 221.364 C 952.332 228.433, 959.174 231.085, 969.049 228.990 C 974.722 227.786, 974.945 227.623, 974.345 225.116 C 974 223.677, 973.604 222.360, 973.465 222.189 C 973.325 222.018, 970.466 222.445, 967.111 223.138 C 961.433 224.311, 960.819 224.256, 958.255 222.350 C 956.290 220.889, 955.411 219.254, 955.190 216.651 L 954.879 213 965.440 213 L 976 213 976 208.468 C 976 202.593, 973.952 197.814, 970.329 195.235 C 967.214 193.016, 961.736 191.844, 958.500 192.703 M 1013.500 193.504 C 1011.100 194.367, 1009.367 194.554, 1009.167 193.971 C 1008.983 193.437, 1007.746 193, 1006.417 193 L 1004 193 1004 211 L 1004 229 1007 229 L 1010 229 1010 214.545 L 1010 200.091 1013.342 199.464 C 1018.916 198.418, 1022.329 199.253, 1023.712 202 C 1024.516 203.597, 1024.976 208.925, 1024.985 216.750 L 1025 229 1028 229 L 1031 229 1030.996 215.250 C 1030.993 203.399, 1030.724 201.060, 1029.050 198.314 C 1025.801 192.986, 1019.961 191.179, 1013.500 193.504 M 1046.112 193.051 C 1040.721 194.147, 1040.724 194.144, 1041.906 197.251 C 1042.828 199.677, 1043.130 199.759, 1049.289 199.265 C 1055.191 198.791, 1055.844 198.940, 1057.356 201.097 C 1058.260 202.388, 1059 204.419, 1059 205.610 C 1059 207.589, 1058.390 207.809, 1051.883 208.176 C 1045.359 208.545, 1044.525 208.848, 1041.883 211.805 C 1033.841 220.805, 1043.762 233.087, 1055.627 228.820 C 1058.032 227.955, 1060 227.642, 1060 228.124 C 1060 228.606, 1061.125 229, 1062.500 229 L 1065 229 1065 215.047 C 1065 206.359, 1064.549 200.105, 1063.805 198.472 C 1061.641 193.723, 1054.129 191.421, 1046.112 193.051 M 1122.741 193.431 C 1117.591 195.266, 1116.372 196.459, 1114.420 201.569 C 1112.306 207.106, 1112.842 219.584, 1115.360 223.427 C 1119.413 229.612, 1127.218 231.525, 1134.338 228.078 C 1140.394 225.147, 1142.001 221.531, 1141.996 210.849 C 1141.993 204.338, 1141.564 201.796, 1140.044 199.304 C 1136.430 193.378, 1129.495 191.024, 1122.741 193.431 M 1160.500 193.504 C 1158.100 194.367, 1156.367 194.554, 1156.167 193.971 C 1155.983 193.437, 1154.746 193, 1153.417 193 L 1151 193 1151 211 L 1151 229 1154 229 L 1157 229 1157 214.617 C 1157 198.477, 1156.704 199.045, 1165.128 199.014 C 1170.705 198.993, 1171.293 200.449, 1171.805 215.563 L 1172.261 229 1175.130 229 L 1178 229 1178 215.968 C 1178 206.988, 1177.560 201.882, 1176.584 199.546 C 1174.073 193.538, 1167.387 191.026, 1160.500 193.504 M 1192.112 193.081 C 1189.698 193.555, 1187.601 194.068, 1187.450 194.221 C 1187.300 194.375, 1187.409 195.707, 1187.692 197.183 C 1188.203 199.845, 1188.261 199.862, 1194.877 199.307 C 1202.291 198.686, 1203.525 199.373, 1204.595 204.727 L 1205.203 207.763 1197.984 208.171 C 1191.349 208.546, 1190.533 208.839, 1187.883 211.805 C 1180.858 219.667, 1187.361 231.008, 1198 229.451 C 1200.475 229.089, 1204.412 228.844, 1206.750 228.906 L 1211 229.019 1211 214.586 C 1211 200.554, 1210.929 200.069, 1208.436 197.106 C 1207.025 195.430, 1204.213 193.598, 1202.186 193.035 C 1198.063 191.890, 1198.180 191.889, 1192.112 193.081 M 1243.352 193.082 C 1238.298 194.563, 1234.272 199.971, 1233.475 206.352 C 1232.073 217.575, 1235.217 225.669, 1242.039 228.399 C 1246.768 230.291, 1248.264 230.351, 1254.951 228.917 C 1258.577 228.140, 1259.996 227.364, 1259.985 226.167 C 1259.951 222.471, 1258.645 221.883, 1253.113 223.069 C 1244.897 224.831, 1240 221.806, 1240 214.969 C 1240 213.236, 1240.953 213.043, 1250.750 212.784 L 1261.500 212.500 1261.353 207.127 C 1261.078 197.058, 1252.534 190.392, 1243.352 193.082 M 1094 195.500 C 1094 197.500, 1094.500 198, 1096.500 198 L 1099 198 1099 213.500 L 1099 229 1102 229 L 1105 229 1105 211 L 1105 193 1099.500 193 C 1094.300 193, 1094 193.136, 1094 195.500 M 904.557 201.223 C 903.455 202.796, 903 205.842, 903 211.650 C 903 219.323, 903.171 219.989, 905.635 221.927 C 909.100 224.653, 912.253 224.547, 915.694 221.587 C 918.333 219.317, 918.500 218.697, 918.500 211.192 C 918.500 201.302, 916.971 199, 910.402 199 C 907.104 199, 905.754 199.513, 904.557 201.223 M 956.655 200.829 C 955.745 201.835, 955 203.860, 955 205.329 C 955 207.990, 955.029 208, 962.608 208 L 970.217 208 969.530 205.250 C 969.153 203.738, 968.134 201.713, 967.267 200.750 C 965.135 198.384, 958.825 198.431, 956.655 200.829 M 1122 201 C 1120.331 202.669, 1120 204.333, 1120 211.045 C 1120 218.254, 1120.255 219.346, 1122.455 221.545 C 1126.428 225.519, 1132.864 224.157, 1135.050 218.880 C 1136.792 214.674, 1135.862 203.609, 1133.551 201.057 C 1131.049 198.292, 1124.739 198.261, 1122 201 M 1243.400 199.765 C 1241.912 200.759, 1240 204.509, 1240 206.434 C 1240 207.716, 1241.360 208, 1247.500 208 C 1254.833 208, 1255 207.944, 1255 205.500 C 1255 201.983, 1251.661 198.997, 1247.750 199.015 C 1245.963 199.024, 1244.005 199.361, 1243.400 199.765 M 1048.250 214.031 C 1046.548 214.715, 1046 215.747, 1046 218.268 C 1046 222.410, 1047.519 224.004, 1051.450 223.986 C 1058.071 223.957, 1059 223.206, 1059 217.883 L 1059 213 1054.750 213.063 C 1052.412 213.098, 1049.487 213.534, 1048.250 214.031 M 1194.388 213.980 C 1191.738 215.051, 1190.882 218.126, 1192.389 221.166 C 1193.231 222.866, 1194.547 223.584, 1197.231 223.808 C 1203.059 224.295, 1205 222.710, 1205 217.465 L 1205 213 1200.750 213.063 C 1198.412 213.098, 1195.550 213.511, 1194.388 213.980 M 850 267.035 C 850 274.669, 849.903 275.019, 848.066 274.035 C 847.002 273.466, 843.913 273, 841.201 273 C 835.678 273, 831.967 275.228, 829.480 280.039 C 827.424 284.015, 827.469 299.072, 829.549 303.094 C 832.630 309.052, 839.734 311.383, 847.046 308.834 C 849.592 307.947, 850.482 307.947, 850.778 308.834 C 850.992 309.475, 852.254 310, 853.583 310 L 856 310 856 284.500 L 856 259 853 259 L 850 259 850 267.035 M 915 282.943 C 915 306.552, 915.031 306.908, 917.223 308.443 C 918.445 309.299, 919.990 310, 920.655 310 C 922.348 310, 923.430 306.030, 922.099 304.699 C 921.366 303.966, 921 296.177, 921 281.300 L 921 259 918 259 L 915 259 915 282.943 M 1092.040 260.452 C 1089.482 263.534, 1093.377 267.944, 1097.321 266.430 C 1101.370 264.877, 1099.930 259, 1095.500 259 C 1094.260 259, 1092.703 259.653, 1092.040 260.452 M 1161.975 260.530 C 1161.005 261.699, 1160.971 262.641, 1161.832 264.530 C 1163.118 267.352, 1166.099 267.758, 1168.429 265.429 C 1170.288 263.569, 1170.304 263.436, 1168.965 260.934 C 1167.726 258.620, 1163.751 258.390, 1161.975 260.530 M 1012.630 264.250 C 1012.299 265.488, 1012.021 267.962, 1012.014 269.750 C 1012.002 272.546, 1011.651 273, 1009.500 273 C 1007.500 273, 1007 273.500, 1007 275.500 C 1007 277.500, 1007.500 278, 1009.500 278 L 1012 278 1012 291.077 L 1012 304.154 1014.923 307.077 C 1017.270 309.424, 1018.715 310, 1022.256 310 C 1027.471 310, 1027.861 309.724, 1027.240 306.476 C 1026.855 304.459, 1026.177 304, 1023.583 304 C 1018.475 304, 1018 302.792, 1018 289.800 L 1018 278 1022 278 C 1025.600 278, 1026 277.750, 1026 275.500 C 1026 273.250, 1025.600 273, 1022 273 L 1018 273 1018 267.500 C 1018 262.372, 1017.839 262, 1015.617 262 C 1013.990 262, 1013.042 262.715, 1012.630 264.250 M 1068.457 267.500 C 1067.840 272.437, 1067.525 273, 1065.385 273 C 1063.508 273, 1063 273.532, 1063 275.500 C 1063 277.500, 1063.500 278, 1065.500 278 L 1068 278 1068 290.944 C 1068 303.024, 1068.154 304.068, 1070.309 306.573 C 1072.085 308.638, 1073.784 309.369, 1077.679 309.743 C 1083.134 310.267, 1084.562 309.346, 1083.497 305.991 C 1083.027 304.509, 1081.982 304, 1079.408 304 C 1074.796 304, 1074 301.708, 1074 288.435 L 1074 278 1078 278 C 1081.600 278, 1082 277.750, 1082 275.500 C 1082 273.250, 1081.600 273, 1078 273 L 1074 273 1074 267.500 C 1074 262.343, 1073.848 262, 1071.572 262 C 1069.379 262, 1069.077 262.532, 1068.457 267.500 M 1138.625 265.125 C 1138.281 266.844, 1138 269.319, 1138 270.625 C 1138 272.492, 1137.465 273, 1135.500 273 C 1133.500 273, 1133 273.500, 1133 275.500 C 1133 277.500, 1133.500 278, 1135.500 278 L 1138 278 1138 290.944 C 1138 303.024, 1138.154 304.068, 1140.309 306.573 C 1142.085 308.638, 1143.784 309.369, 1147.679 309.743 C 1153.125 310.267, 1154.224 309.573, 1153.335 306.174 C 1152.894 304.488, 1152.015 304, 1149.419 304 C 1144.725 304, 1144 302.003, 1144 289.066 L 1144 278 1148 278 C 1151.600 278, 1152 277.750, 1152 275.500 C 1152 273.250, 1151.600 273, 1148 273 L 1144 273 1144 267.500 C 1144 262.377, 1143.837 262, 1141.625 262 C 1139.765 262, 1139.114 262.678, 1138.625 265.125 M 869.595 276.051 C 866.900 278.417, 865.861 280.353, 864.962 284.684 C 862.669 295.728, 865.839 305.781, 872.490 308.560 C 878.801 311.197, 891.016 309.640, 890.985 306.203 C 890.952 302.594, 889.533 301.758, 885.388 302.909 C 883.250 303.503, 880.242 303.991, 878.705 303.994 C 874.921 304.002, 871 299.956, 871 296.045 L 871 293 881.531 293 C 893.511 293, 893.661 292.894, 892.519 285.277 C 891.982 281.700, 890.910 279.675, 888.025 276.790 C 884.544 273.309, 883.781 273, 878.652 273 C 873.855 273, 872.581 273.429, 869.595 276.051 M 933.250 273.706 C 930.989 274.141, 930.497 275.524, 931.589 278.372 C 932.067 279.616, 933.359 279.798, 938.392 279.328 C 945.510 278.663, 948 280.116, 948 284.935 C 948 287.643, 947.811 287.741, 941.660 288.235 C 934.783 288.787, 930.476 290.929, 929.389 294.339 C 928.432 297.343, 928.735 302.635, 930 304.999 C 932.263 309.228, 939.774 311.177, 945.468 309.012 C 947.272 308.326, 948.627 308.375, 949.901 309.170 C 950.910 309.800, 952.470 310.034, 953.368 309.689 C 954.762 309.154, 955 307.160, 955 295.999 C 955 281.131, 953.874 277.020, 949.128 274.566 C 946.276 273.091, 938.600 272.675, 933.250 273.706 M 986.303 274.142 C 983.273 275.681, 980.711 281.410, 981.483 284.921 C 982.222 288.288, 985.031 291.037, 990.567 293.814 C 995.703 296.390, 997.340 298.353, 996.516 300.950 C 995.661 303.645, 991.795 304.519, 986.297 303.261 C 981.555 302.176, 980.450 302.906, 981.171 306.648 C 981.802 309.924, 992.900 311.137, 998.020 308.490 C 1001.712 306.580, 1003 304.172, 1003 299.177 C 1003 294.102, 1000.726 291.328, 993.897 288.073 C 989.559 286.005, 988.439 284.968, 988.187 282.785 C 987.932 280.571, 988.356 279.949, 990.484 279.415 C 991.920 279.054, 994.825 279.036, 996.940 279.374 C 1000.473 279.939, 1000.839 279.777, 1001.442 277.377 C 1001.802 275.940, 1001.833 274.500, 1001.510 274.177 C 1000.392 273.058, 988.490 273.031, 986.303 274.142 M 1037.250 273.706 C 1034.820 274.174, 1034.730 274.392, 1035.613 277.683 C 1036.161 279.727, 1036.627 279.831, 1042.872 279.307 C 1050.305 278.684, 1051.286 279.241, 1052.464 284.750 L 1053.159 288 1048.047 288 C 1038.383 288, 1033 292.051, 1033 299.323 C 1033 302.399, 1033.702 303.902, 1036.400 306.600 C 1040.061 310.261, 1044.223 311.006, 1049.598 308.963 C 1051.482 308.247, 1052.647 308.247, 1053.363 308.963 C 1053.933 309.533, 1055.435 310, 1056.700 310 C 1058.991 310, 1059 309.944, 1059 295.950 C 1059 280.946, 1058.197 277.652, 1053.783 274.561 C 1051.642 273.061, 1042.935 272.611, 1037.250 273.706 M 1088 275.500 C 1088 277.323, 1088.535 278, 1089.975 278 C 1091.846 278, 1091.964 278.827, 1092.225 293.750 L 1092.500 309.500 1095.500 309.500 L 1098.500 309.500 1098.773 291.250 L 1099.045 273 1093.523 273 C 1088.298 273, 1088 273.135, 1088 275.500 M 1112.303 274.142 C 1109.273 275.681, 1106.711 281.410, 1107.483 284.921 C 1108.222 288.288, 1111.031 291.037, 1116.567 293.814 C 1121.703 296.390, 1123.340 298.353, 1122.516 300.950 C 1121.661 303.645, 1117.795 304.519, 1112.297 303.261 C 1107.555 302.176, 1106.450 302.906, 1107.171 306.648 C 1107.802 309.924, 1118.900 311.137, 1124.020 308.490 C 1127.712 306.580, 1129 304.172, 1129 299.177 C 1129 294.102, 1126.726 291.328, 1119.897 288.073 C 1115.559 286.005, 1114.439 284.968, 1114.187 282.785 C 1113.932 280.571, 1114.356 279.949, 1116.484 279.415 C 1117.920 279.054, 1120.821 279.036, 1122.932 279.373 C 1126.517 279.946, 1126.804 279.807, 1127.296 277.243 C 1127.586 275.735, 1127.621 274.295, 1127.373 274.045 C 1126.366 273.027, 1114.345 273.105, 1112.303 274.142 M 1158 275.500 C 1158 277.333, 1158.533 278, 1160 278 C 1161.917 278, 1162 278.667, 1162 294.063 L 1162 310.127 1165.250 309.813 L 1168.500 309.500 1168.773 291.250 L 1169.045 273 1163.523 273 C 1158.298 273, 1158 273.135, 1158 275.500 M 1181.235 276.422 L 1177.500 279.843 1177.160 289.797 C 1176.895 297.565, 1177.180 300.448, 1178.459 302.920 C 1181.546 308.890, 1189.598 311.624, 1196.435 309.025 L 1199 308.050 1199 315.525 C 1199 319.636, 1199.338 322.994, 1199.750 322.986 C 1200.162 322.979, 1201.513 322.701, 1202.750 322.370 L 1205 321.767 1205 297.383 L 1205 273 1202.583 273 C 1201.254 273, 1200.007 273.478, 1199.813 274.062 C 1199.563 274.812, 1198.636 274.812, 1196.664 274.062 C 1195.127 273.478, 1191.867 273, 1189.420 273 C 1185.749 273, 1184.317 273.598, 1181.235 276.422 M 1213.667 273.667 C 1212.622 274.711, 1212.898 297.091, 1214.004 301.074 C 1215.946 308.064, 1223.631 311.719, 1230.992 309.153 C 1233.281 308.355, 1234.610 308.364, 1235.930 309.188 C 1236.923 309.808, 1238.470 310.034, 1239.368 309.689 C 1240.794 309.142, 1241 306.787, 1241 291.031 L 1241 273 1237.527 273 L 1234.053 273 1233.777 287.750 L 1233.500 302.500 1228.615 303.443 C 1224.132 304.308, 1223.577 304.196, 1221.865 302.082 C 1220.252 300.090, 1220 297.966, 1220 286.389 L 1220 273 1217.167 273 C 1215.608 273, 1214.033 273.300, 1213.667 273.667 M 1255.299 274.960 C 1250.391 277.952, 1249 281.622, 1249 291.582 C 1249 298.541, 1249.400 300.911, 1251.016 303.526 C 1254.590 309.309, 1262.406 311.403, 1271.250 308.947 C 1274.249 308.115, 1275 307.427, 1275 305.512 C 1275 302.262, 1274.315 302.028, 1268.302 303.217 C 1265.445 303.782, 1261.966 303.957, 1260.572 303.607 C 1257.893 302.935, 1255 298.491, 1255 295.050 C 1255 293.108, 1255.578 293, 1266 293 L 1277 293 1277 288.968 C 1277 279.799, 1271.109 272.997, 1263.173 273.004 C 1260.304 273.006, 1257.264 273.761, 1255.299 274.960 M 836.405 281.105 C 834.847 282.827, 834.500 284.754, 834.500 291.693 C 834.500 299.402, 834.715 300.351, 836.861 302.088 C 839.544 304.261, 842.307 304.486, 846.851 302.902 L 850 301.804 850 291.377 C 850 281.105, 849.962 280.936, 847.435 279.975 C 843.119 278.334, 838.483 278.809, 836.405 281.105 M 873.073 281.635 C 871.933 283.084, 871 285.109, 871 286.135 C 871 287.789, 871.847 288, 878.500 288 C 885.670 288, 886 287.898, 886 285.689 C 886 279.400, 877.040 276.591, 873.073 281.635 M 1185.405 281.108 C 1183.847 282.832, 1183.500 284.761, 1183.500 291.697 C 1183.500 299.526, 1183.691 300.332, 1185.988 302.192 C 1187.968 303.795, 1189.364 304.085, 1192.821 303.611 C 1195.211 303.284, 1197.579 302.760, 1198.083 302.449 C 1198.587 302.137, 1199 297.172, 1199 291.416 C 1199 281.102, 1198.963 280.936, 1196.435 279.975 C 1192.116 278.333, 1187.483 278.809, 1185.405 281.108 M 1257.733 280.750 C 1256.866 281.712, 1255.847 283.738, 1255.470 285.250 L 1254.783 288 1262.392 288 C 1269.841 288, 1270 287.948, 1270 285.500 C 1270 279.968, 1261.429 276.649, 1257.733 280.750 M 936.200 295.200 C 932.967 298.433, 936.023 304.361, 940.853 304.223 C 947.036 304.047, 948 303.266, 948 298.433 L 948 294 942.700 294 C 939.785 294, 936.860 294.540, 936.200 295.200 M 1040.571 295.571 C 1038.813 297.330, 1038.774 297.554, 1039.650 300.827 C 1040.499 303.997, 1043.850 305.079, 1048.871 303.805 C 1052.921 302.777, 1053 302.673, 1053 298.378 L 1053 294 1047.571 294 C 1043.970 294, 1041.614 294.529, 1040.571 295.571 M 222.459 310.328 C 214.542 312.356, 208.516 315.716, 203.992 320.624 C 197.616 327.542, 195.591 332.912, 195.556 343 C 195.502 358.611, 202.057 367.445, 219.801 375.672 C 239.707 384.902, 241.866 386.109, 245.336 389.950 C 252.760 398.168, 250.788 410.904, 241.368 415.580 C 235.356 418.564, 221.350 418.137, 208.165 414.567 C 202.481 413.028, 197.488 412.159, 197.070 412.635 C 196.283 413.529, 192.737 429.102, 193.225 429.517 C 193.376 429.645, 198.675 430.992, 205 432.509 C 231.419 438.848, 250.220 436.080, 261.130 424.244 C 271.763 412.707, 272.961 394.342, 263.965 380.762 C 259.705 374.330, 253.088 369.745, 238.705 363.261 C 231.992 360.235, 224.700 356.570, 222.500 355.117 C 212.489 348.506, 212.931 334.869, 223.338 329.254 C 228.008 326.735, 242.267 327.024, 252.320 329.841 C 256.620 331.046, 260.470 331.828, 260.874 331.578 C 261.855 330.972, 266.478 316.145, 265.875 315.542 C 265.615 315.282, 261.149 313.905, 255.951 312.481 C 244.593 309.371, 229.882 308.425, 222.459 310.328 M 321.625 310.408 C 316.724 312.232, 311.567 317.198, 308.942 322.619 C 307.261 326.092, 278 431.602, 278 434.191 C 278 434.636, 282.404 435, 287.787 435 L 297.573 435 301.459 420.250 C 303.596 412.137, 305.740 404.029, 306.224 402.231 L 307.104 398.963 329.734 399.231 L 352.363 399.500 356.138 413.500 C 358.214 421.200, 360.400 429.188, 360.997 431.250 L 362.080 435 371.540 435 C 379.525 435, 381 434.752, 381 433.408 C 381 431.356, 354.457 332.944, 352.300 327 C 348.263 315.874, 341.402 310.134, 331.250 309.388 C 327.693 309.127, 324.022 309.516, 321.625 310.408 M 28 310.983 C 19.560 312.090, 12.555 315.589, 7.480 321.233 C 0.220 329.308, 0 330.837, -0 373.144 C -0 407.877, 0.115 410.233, 2.068 415.451 C 4.789 422.725, 11.261 429.179, 18.761 432.099 C 23.887 434.094, 26.772 434.381, 45.763 434.779 C 61.713 435.113, 67.397 434.915, 68.513 433.989 C 69.597 433.090, 70 430.638, 70 424.950 L 70 417.145 49.250 416.822 C 19.710 416.363, 19.802 416.433, 19.178 394.250 L 18.778 380 42.928 380 L 67.078 380 66.789 371.250 L 66.500 362.500 42.648 362.232 L 18.795 361.963 19.211 349.732 C 19.915 328.984, 20.352 328.665, 48.750 328.173 L 69 327.822 69 318.911 L 69 310 51.250 310.131 C 41.487 310.203, 31.025 310.587, 28 310.983 M 91 372.356 L 91 435 100.490 435 L 109.981 435 110.240 386.250 L 110.500 337.500 132.153 386 L 153.807 434.500 164.903 434.783 L 176 435.066 176 372.533 L 176 310 166.451 310 L 156.902 310 157.201 353.861 C 157.506 398.629, 157.458 399.159, 154.026 388.500 C 151.561 380.845, 125.883 324.469, 122.741 319.816 C 117.952 312.722, 113.845 310.879, 101.414 310.244 L 91 309.713 91 372.356 M 396.702 310.632 C 396.316 311.018, 396 339.158, 396 373.167 L 396 435 404.878 435 C 411.149 435, 414.087 434.600, 414.885 433.638 C 415.705 432.651, 415.945 415.529, 415.758 371.388 L 415.500 310.500 406.452 310.215 C 401.475 310.058, 397.087 310.246, 396.702 310.632 M 326.636 329.750 C 325.857 331.262, 322.447 342.850, 319.057 355.500 C 315.667 368.150, 312.662 379.288, 312.379 380.250 C 311.903 381.870, 313.173 382, 329.433 382 C 341.770 382, 347 381.665, 347 380.876 C 347 378.269, 333.716 331.305, 332.398 329.250 C 330.460 326.231, 328.353 326.414, 326.636 329.750 M 923 346.975 L 923 354.950 920.435 353.975 C 916.357 352.425, 910.769 352.844, 907.299 354.960 C 902.360 357.971, 901 361.607, 901 371.802 C 901 379.413, 901.331 381.195, 903.280 384.088 C 904.534 385.948, 906.672 388.033, 908.030 388.721 C 911.068 390.258, 916.927 390.358, 920.664 388.938 C 922.636 388.188, 923.563 388.188, 923.813 388.938 C 924.007 389.522, 925.254 390, 926.583 390 L 929 390 929 364.500 L 929 339 926 339 L 923 339 923 346.975 M 988 362.845 C 988 384.676, 988.154 386.830, 989.829 388.345 C 990.835 389.255, 992.379 390, 993.261 390 C 995.260 390, 996.584 386.184, 995.099 384.699 C 994.366 383.966, 994 376.177, 994 361.300 L 994 339 991 339 L 988 339 988 362.845 M 1123 362.500 C 1123 384.667, 1123.113 386.113, 1125 388 C 1127.817 390.817, 1130.656 390.579, 1131.249 387.476 C 1131.515 386.088, 1131.342 384.711, 1130.866 384.417 C 1130.390 384.123, 1130 373.784, 1130 361.441 L 1130 339 1126.500 339 L 1123 339 1123 362.500 M 866 346.418 C 866 351.360, 865.101 353, 862.393 353 C 860.401 353, 860 353.502, 860 356 C 860 358.533, 860.389 359, 862.500 359 L 865 359 865 370.550 C 865 386.696, 866.943 390, 876.434 390 C 880.821 390, 881 389.885, 881 387.057 C 881 384.311, 880.717 384.095, 876.750 383.807 L 872.500 383.500 872.220 371.312 L 871.939 359.124 875.720 358.812 C 879.002 358.541, 879.500 358.171, 879.500 356 C 879.500 353.833, 879.001 353.459, 875.750 353.190 L 872 352.879 872 347.940 C 872 343.118, 871.928 343, 869 343 C 866.252 343, 866 343.287, 866 346.418 M 1005 351 L 1005 359 1008 359 L 1011 359 1011 351 L 1011 343 1008 343 L 1005 343 1005 351 M 837 353.653 C 834.610 354.612, 830.931 358.268, 829.405 361.200 C 828.559 362.826, 828 366.920, 828 371.490 C 828 384.135, 832.649 390.006, 842.654 389.994 C 847.140 389.989, 855 388.413, 855 387.518 C 855 387.305, 854.571 386.001, 854.046 384.622 C 853.178 382.338, 852.797 382.198, 849.803 383.057 C 842.156 385.250, 835 383.086, 835 378.582 C 835 377.802, 834.727 376.452, 834.393 375.582 C 833.866 374.208, 835.036 374, 843.311 374 C 855.626 374, 856 373.833, 856 368.343 C 856 359.918, 850.892 353.908, 843.283 353.382 C 840.652 353.199, 837.825 353.321, 837 353.653 M 944.299 354.960 C 939.340 357.983, 937.604 362.241, 937.556 371.500 C 937.508 380.722, 939.201 384.893, 944.299 388.107 C 946.960 389.785, 948.733 390.056, 954.803 389.710 C 963.020 389.241, 964.551 388.330, 963.585 384.482 C 963.083 382.481, 962.491 381.986, 961.208 382.491 C 960.269 382.862, 957.176 383.412, 954.336 383.713 C 949.731 384.203, 948.891 383.982, 946.586 381.677 C 945.159 380.250, 944 377.950, 944 376.545 L 944 374 953.800 374 C 960.089 374, 964.030 373.570, 964.800 372.800 C 968.033 369.567, 964.249 358.342, 958.808 355.024 C 954.604 352.461, 948.441 352.434, 944.299 354.960 M 1025 353.895 C 1023.625 354.277, 1022.545 355.132, 1022.600 355.795 C 1022.977 360.333, 1022.718 360.189, 1029.250 359.508 C 1036.544 358.749, 1038.641 359.810, 1039.612 364.750 C 1040.243 367.965, 1040.208 368, 1036.375 368.024 C 1025.978 368.088, 1020 371.968, 1020 378.651 C 1020 387.611, 1028.355 392.477, 1037.664 388.938 C 1039.636 388.188, 1040.563 388.188, 1040.813 388.938 C 1041.007 389.522, 1042.254 390, 1043.583 390 L 1046 390 1046 375.950 C 1046 360.323, 1045.115 357.145, 1040.033 354.517 C 1037.031 352.964, 1029.470 352.652, 1025 353.895 M 1055 371.500 L 1055 390 1058 390 L 1061 390 1061 375.540 L 1061 361.080 1064.909 359.909 C 1070.012 358.380, 1073.817 359.389, 1075.035 362.593 C 1075.566 363.988, 1076 370.726, 1076 377.565 L 1076 390 1079 390 L 1082 390 1082 375.950 C 1082 365.348, 1081.628 361.181, 1080.483 358.967 C 1077.802 353.783, 1070.754 351.622, 1064.402 354.037 C 1062.518 354.753, 1061.353 354.753, 1060.637 354.037 C 1060.067 353.467, 1058.565 353, 1057.300 353 L 1055 353 1055 371.500 M 1094.191 353.798 C 1091.509 354.613, 1091.441 354.753, 1092.234 357.786 C 1092.803 359.962, 1093.146 360.041, 1099.273 359.413 C 1105.270 358.799, 1105.827 358.915, 1107.357 361.099 C 1108.261 362.389, 1109 364.407, 1109 365.584 C 1109 367.464, 1108.294 367.786, 1103.162 368.252 C 1092.712 369.199, 1087.978 373.737, 1089.420 381.423 C 1090.728 388.399, 1098.813 391.922, 1106.664 388.938 C 1108.636 388.188, 1109.563 388.188, 1109.813 388.938 C 1110.007 389.522, 1111.254 390, 1112.583 390 L 1115 390 1115 375.016 L 1115 360.032 1112.132 356.822 C 1109.539 353.920, 1108.651 353.587, 1102.882 353.354 C 1099.372 353.213, 1095.461 353.412, 1094.191 353.798 M 1136.521 361.181 C 1138.155 381.467, 1139.497 385.786, 1145.096 388.789 C 1146.418 389.498, 1149.188 389.879, 1151.250 389.634 C 1154.564 389.242, 1154.998 389.441, 1154.985 391.345 C 1154.959 395.025, 1153.397 396.255, 1148.107 396.764 C 1143.537 397.203, 1143 397.504, 1143 399.627 C 1143 401.860, 1143.353 402, 1148.984 402 C 1154.138 402, 1155.407 401.608, 1158.130 399.175 C 1161.145 396.481, 1161.328 395.885, 1162.065 386.364 C 1162.491 380.872, 1162.960 371.231, 1163.109 364.939 L 1163.378 353.500 1160.294 353.195 L 1157.211 352.889 1156.539 366.695 C 1156.170 374.288, 1155.709 381.005, 1155.514 381.621 C 1154.883 383.626, 1149.959 384.203, 1147.458 382.565 C 1144.930 380.908, 1144.619 379.456, 1143.276 363 L 1142.500 353.500 1139.175 353.181 L 1135.851 352.862 1136.521 361.181 M 1177.500 353.884 C 1172.207 356.213, 1170.071 363.027, 1172.948 368.404 C 1173.686 369.782, 1176.776 372.168, 1179.813 373.705 C 1186.217 376.946, 1188.021 379.151, 1186.394 381.750 C 1185.082 383.843, 1179.053 384.563, 1174.914 383.120 C 1172.270 382.198, 1171.955 382.333, 1171.379 384.627 C 1170.451 388.324, 1172.214 389.390, 1179.984 389.829 C 1186.623 390.204, 1187.067 390.087, 1189.966 387.188 C 1192.439 384.715, 1193 383.328, 1193 379.688 C 1193 374.077, 1191.082 371.629, 1183.972 368.166 C 1178.298 365.401, 1176.861 363.078, 1179.133 360.340 C 1180.140 359.126, 1181.591 358.912, 1185.608 359.384 C 1190.569 359.967, 1190.813 359.883, 1191.441 357.378 C 1191.802 355.940, 1191.886 354.553, 1191.628 354.294 C 1190.688 353.354, 1179.446 353.028, 1177.500 353.884 M 1207.077 354.766 C 1201.886 357.631, 1200 362.045, 1200 371.333 C 1200 380.540, 1201.826 385.313, 1206.420 388.114 C 1209.870 390.218, 1217.303 390.599, 1223.158 388.973 C 1226.532 388.036, 1226.756 387.746, 1226.044 385.228 C 1225.620 383.728, 1224.718 382.627, 1224.039 382.782 C 1219.717 383.772, 1213.758 384.156, 1211.505 383.591 C 1209.091 382.985, 1206 378.180, 1206 375.032 C 1206 374.396, 1209.611 374, 1215.418 374 C 1227.412 374, 1228 373.760, 1228 368.861 C 1228 363.935, 1226.019 359.202, 1222.662 356.106 C 1219.101 352.824, 1211.743 352.191, 1207.077 354.766 M 837.687 360.250 C 836.755 360.938, 835.576 362.962, 835.066 364.750 L 834.140 368 842.177 368 C 849.095 368, 850.129 367.780, 849.607 366.418 C 849.273 365.548, 849 364.423, 849 363.918 C 849 363.413, 848.100 362.100, 847 361 C 844.742 358.742, 840.225 358.378, 837.687 360.250 M 909.988 360.808 C 907.691 362.669, 907.500 363.475, 907.500 371.307 C 907.500 378.246, 907.847 380.173, 909.405 381.895 C 911.483 384.191, 916.119 384.666, 920.435 383.025 C 922.963 382.064, 923 381.898, 923 371.584 C 923 365.828, 922.587 360.863, 922.083 360.551 C 921.579 360.240, 919.211 359.716, 916.821 359.389 C 913.364 358.915, 911.969 359.205, 909.988 360.808 M 946.455 361.455 C 945.105 362.805, 944 364.830, 944 365.955 C 944 367.833, 944.611 368, 951.500 368 C 958.389 368, 959 367.833, 959 365.955 C 959 363.086, 954.594 359, 951.500 359 C 950.075 359, 947.805 360.105, 946.455 361.455 M 1209 361 C 1207.900 362.100, 1207 363.413, 1207 363.918 C 1207 364.423, 1206.727 365.548, 1206.393 366.418 C 1205.872 367.775, 1206.867 368, 1213.393 368 C 1220.840 368, 1221 367.948, 1221 365.500 C 1221 362.106, 1217.656 359, 1214 359 C 1212.333 359, 1210.111 359.889, 1209 361 M 1027.496 376.365 C 1026.325 378.153, 1026.189 379.367, 1026.938 381.337 C 1028.165 384.565, 1031.737 385.572, 1036.447 384.018 C 1039.805 382.909, 1040 382.603, 1040 378.422 L 1040 374 1034.523 374 C 1029.868 374, 1028.814 374.355, 1027.496 376.365 M 1097.200 375.200 C 1095.407 376.993, 1095.752 381.466, 1097.829 383.345 C 1099.974 385.286, 1101.564 385.397, 1105.851 383.902 C 1108.740 382.895, 1109 382.441, 1109 378.402 L 1109 374 1103.700 374 C 1100.785 374, 1097.860 374.540, 1097.200 375.200 M 850 427.107 C 850 434.435, 849.832 435.145, 848.250 434.497 C 844.195 432.834, 838.443 432.920, 835 434.695 C 829.840 437.356, 828.003 441.857, 828.002 451.849 C 828 461.496, 829.544 465.709, 834.062 468.377 C 837.553 470.440, 844.770 470.729, 848.112 468.940 C 849.805 468.034, 850.504 468.012, 850.786 468.857 C 850.995 469.485, 852.254 470, 853.583 470 L 856 470 856 444.500 L 856 419 853 419 L 850 419 850 427.107 M 915 442.845 C 915 468.330, 915.026 468.470, 920.158 470.281 C 922.152 470.985, 923.724 466.324, 922.055 464.655 C 921.378 463.978, 921 455.613, 921 441.300 L 921 419 918 419 L 915 419 915 442.845 M 948.200 420.200 C 947.540 420.860, 947 422.120, 947 423 C 947 426.958, 953.105 428.541, 954.965 425.066 C 956.304 422.564, 956.288 422.431, 954.429 420.571 C 952.557 418.700, 949.861 418.539, 948.200 420.200 M 1007.070 421.776 C 1005.193 423.654, 1004.065 426.081, 1003.586 429.276 C 1002.958 433.464, 1002.593 434, 1000.369 434 C 998.340 434, 997.922 434.430, 998.180 436.250 C 998.409 437.861, 999.281 438.590, 1001.250 438.816 L 1004 439.133 1004 454.566 L 1004 470 1007 470 L 1010 470 1010 454.500 L 1010 439 1014.500 439 C 1018.633 439, 1019 438.796, 1019 436.500 C 1019 434.204, 1018.633 434, 1014.500 434 C 1010.076 434, 1010 433.944, 1010 430.700 C 1010 426.410, 1011.534 425, 1016.200 425 C 1019.756 425, 1020 424.807, 1020 422 C 1020 419.061, 1019.897 419, 1014.923 419 C 1010.706 419, 1009.376 419.470, 1007.070 421.776 M 1201.011 420.487 C 1200.290 421.356, 1200.045 423.044, 1200.423 424.548 C 1200.973 426.740, 1201.546 427.076, 1204.284 426.811 C 1206.766 426.571, 1207.575 425.974, 1207.827 424.195 C 1208.451 419.793, 1203.722 417.221, 1201.011 420.487 M 932 431 L 932 439 935 439 L 938 439 938 431 L 938 423 935 423 L 932 423 932 431 M 1177.667 423.667 C 1177.300 424.033, 1177 426.508, 1177 429.167 C 1177 433.895, 1176.933 434, 1173.930 434 C 1171.319 434, 1170.909 434.336, 1171.180 436.250 C 1171.381 437.659, 1172.303 438.614, 1173.649 438.806 C 1175.691 439.097, 1175.815 439.720, 1176.149 451.352 C 1176.422 460.866, 1176.887 464.182, 1178.241 466.246 C 1180.164 469.180, 1185.322 471.043, 1189.376 470.269 C 1191.485 469.865, 1192 469.201, 1192 466.883 C 1192 464.199, 1191.731 464, 1188.107 464 C 1185.480 464, 1184.017 463.486, 1183.607 462.418 C 1183.273 461.548, 1183 455.923, 1183 449.918 L 1183 439 1187 439 C 1190.600 439, 1191 438.750, 1191 436.500 C 1191 434.250, 1190.600 434, 1187 434 L 1183 434 1183 428.500 C 1183 423.405, 1182.828 423, 1180.667 423 C 1179.383 423, 1178.033 423.300, 1177.667 423.667 M 872.256 434.589 C 870.472 435.499, 867.997 437.876, 866.756 439.872 C 864.851 442.936, 864.507 444.859, 864.546 452.238 C 864.583 459.393, 864.956 461.465, 866.607 463.676 C 870.446 468.818, 873.457 470.329, 879.705 470.252 C 887.555 470.154, 891.233 468.664, 890.819 465.748 C 890.515 463.607, 890.140 463.516, 882.898 463.845 C 875.622 464.176, 875.203 464.074, 873.148 461.461 C 871.966 459.959, 871 457.681, 871 456.399 C 871 454.119, 871.239 454.061, 881.750 453.784 L 892.500 453.500 892.809 449.777 C 893.201 445.042, 890.010 437.708, 886.579 435.460 C 882.825 433, 876.164 432.595, 872.256 434.589 M 975.500 433.971 C 974.400 434.428, 971.587 434.560, 969.250 434.265 L 965 433.728 965 451.864 L 965 470 968 470 L 971 470 971 455.539 L 971 441.077 975.134 439.964 C 980.473 438.526, 983.828 439.417, 985.035 442.593 C 985.566 443.988, 986 450.726, 986 457.565 L 986 470 989 470 L 992 470 992 455.950 C 992 439.918, 991.038 436.750, 985.466 434.421 C 981.709 432.852, 978.540 432.709, 975.500 433.971 M 1033.334 435.008 C 1027.622 437.912, 1025.999 441.707, 1026.004 452.151 C 1026.007 458.662, 1026.436 461.204, 1027.956 463.696 C 1030.731 468.246, 1034.265 470.222, 1039.751 470.289 C 1049.993 470.412, 1054.939 464.309, 1054.976 451.500 C 1055.009 440.242, 1050.672 434.234, 1041.864 433.335 C 1038.720 433.014, 1036.336 433.481, 1033.334 435.008 M 1072.035 434.688 C 1070.326 435.885, 1069.510 436.030, 1069.229 435.188 C 1069.012 434.535, 1067.521 434, 1065.917 434 L 1063 434 1063 452.063 L 1063 470.127 1066.250 469.813 L 1069.500 469.500 1069.778 455.761 L 1070.056 442.022 1072.978 440.511 C 1074.586 439.680, 1076.823 439, 1077.950 439 C 1079.561 439, 1080 438.358, 1080 436 C 1080 433.387, 1079.642 433, 1077.223 433 C 1075.695 433, 1073.361 433.760, 1072.035 434.688 M 1094.500 433.954 C 1091.427 435.225, 1088.057 439.314, 1086.976 443.083 C 1086.439 444.955, 1086 451.777, 1086 458.243 L 1086 470 1089.500 470 L 1093 470 1093 456.955 C 1093 444.437, 1093.099 443.810, 1095.455 441.455 C 1098.516 438.393, 1101.032 438.341, 1103.794 441.281 C 1105.721 443.332, 1105.965 444.868, 1106.218 456.531 L 1106.500 469.500 1109.750 469.813 L 1113 470.127 1113 458.128 C 1113 451.529, 1113.441 444.970, 1113.980 443.553 C 1115.305 440.067, 1119.223 438.325, 1122.439 439.790 C 1125.812 441.327, 1126.988 446.350, 1126.994 459.250 L 1127 470 1130 470 L 1133 470 1133 456.968 C 1133 442.034, 1131.912 438.168, 1126.810 434.967 C 1122.606 432.330, 1115.921 432.786, 1112.564 435.940 L 1110.253 438.111 1106.487 435.556 C 1102.690 432.979, 1098.281 432.390, 1094.500 433.954 M 1147.250 434.119 C 1145.194 434.713, 1144.006 435.689, 1144.015 436.779 C 1144.047 440.339, 1145.226 440.865, 1150.730 439.777 C 1157.562 438.426, 1161 440.312, 1161 445.410 L 1161 448.774 1153.989 449.170 C 1145.249 449.664, 1141.813 452.358, 1141.643 458.849 C 1141.425 467.146, 1148.830 472.159, 1157.465 469.561 C 1159.959 468.810, 1162 468.602, 1162 469.098 C 1162 469.594, 1163.350 470, 1165 470 L 1168 470 1168 456.968 C 1168 442.019, 1166.903 438.131, 1161.810 435.026 C 1158.274 432.870, 1152.764 432.527, 1147.250 434.119 M 1223.256 434.645 C 1221.472 435.524, 1219.068 437.772, 1217.913 439.641 C 1216.073 442.617, 1215.856 444.264, 1216.157 452.955 C 1216.482 462.362, 1216.652 463.032, 1219.452 465.952 C 1227.432 474.276, 1241.091 470.766, 1244.109 459.616 C 1245.602 454.098, 1244.687 443.870, 1242.335 439.796 C 1238.781 433.641, 1230.066 431.288, 1223.256 434.645 M 1263.500 433.971 C 1262.400 434.428, 1259.588 434.560, 1257.250 434.265 L 1253 433.728 1253 451.864 L 1253 470 1256 470 L 1259 470 1259 455.539 L 1259 441.077 1263.134 439.964 C 1268.473 438.526, 1271.828 439.417, 1273.035 442.593 C 1273.566 443.988, 1274 450.726, 1274 457.565 L 1274 470 1277 470 L 1280 470 1280 455.950 C 1280 439.918, 1279.038 436.750, 1273.466 434.421 C 1269.709 432.852, 1266.540 432.709, 1263.500 433.971 M 944 436.094 C 944 437.346, 944.803 438.397, 946 438.710 C 947.891 439.205, 948 440.074, 948 454.680 L 948 470.127 951.250 469.813 L 954.500 469.500 954.773 451.750 L 955.046 434 949.523 434 C 944.584 434, 944 434.222, 944 436.094 M 1197 436.500 C 1197 438.333, 1197.533 439, 1199 439 C 1200.914 439, 1201 439.667, 1201 454.500 L 1201 470 1204 470 L 1207 470 1207 452 L 1207 434 1202 434 C 1197.333 434, 1197 434.167, 1197 436.500 M 837.780 440.064 C 833.762 442.405, 832.988 458.119, 836.688 462.208 C 838.510 464.221, 844.922 464.647, 848.066 462.965 C 849.788 462.043, 850 460.788, 850 451.512 L 850 441.094 846.250 440.053 C 841.639 438.772, 839.992 438.774, 837.780 440.064 M 873.455 441.455 C 872.105 442.805, 871 444.830, 871 445.955 C 871 447.833, 871.611 448, 878.500 448 C 885.389 448, 886 447.833, 886 445.955 C 886 443.086, 881.594 439, 878.500 439 C 877.075 439, 874.805 440.105, 873.455 441.455 M 1036.282 440.206 C 1033.268 441.661, 1031.689 447.022, 1032.199 454.068 C 1032.731 461.426, 1034.793 464, 1040.155 464 C 1046.424 464, 1048 461.579, 1048 451.955 C 1048 444.746, 1047.745 443.654, 1045.545 441.455 C 1042.945 438.854, 1039.925 438.447, 1036.282 440.206 M 1226.736 439.657 C 1221.907 441.012, 1220.039 456.237, 1224.073 461.365 C 1226.717 464.727, 1232.942 465.058, 1236 462 C 1238.755 459.245, 1238.929 445.341, 1236.250 442.114 C 1234.458 439.955, 1229.882 438.774, 1226.736 439.657 M 1149.571 455.571 C 1147.464 457.679, 1147.584 461.314, 1149.829 463.345 C 1151.905 465.224, 1154.700 465.445, 1158.435 464.025 C 1160.667 463.176, 1161 462.462, 1161 458.525 L 1161 454 1156.071 454 C 1152.924 454, 1150.575 454.568, 1149.571 455.571" stroke="none" fill="#645c6c" fill-rule="evenodd"/></svg>