<svg xmlns="http://www.w3.org/2000/svg" width="2721" height="801" viewBox="0 0 2721 801" version="1.1"><path d="M 381 247.133 C 353.754 249.350, 318.253 255.451, 291 262.598 C 226.986 279.386, 159.094 312.514, 109.048 351.382 C 96.115 361.426, 73.381 383.342, 62.764 396 C 28.447 436.915, 7.322 484.661, 2.054 533.211 C 0.702 545.670, 0.702 570.330, 2.054 582.789 C 4.584 606.110, 11.865 632.624, 21.850 654.885 C 56.929 733.085, 130.798 785.028, 218.399 793.094 C 234.352 794.563, 266.455 793.742, 281 791.493 C 324.529 784.763, 366.360 769.772, 408.979 745.627 C 421.896 738.310, 421.902 737.987, 409.163 736.515 L 402.827 735.784 406.081 733.804 C 408.609 732.267, 409.021 731.631, 407.926 730.954 C 407.102 730.445, 406.118 730.482, 405.558 731.042 C 403.974 732.626, 403.009 732.130, 403.262 729.860 C 403.715 725.790, 401.033 726.758, 399.052 731.380 C 397.295 735.479, 396.311 736.324, 389.051 739.974 C 384.623 742.201, 381 743.822, 381 743.577 C 381 743.332, 382.179 740.413, 383.621 737.089 C 385.970 731.673, 386.876 730.686, 392.371 727.558 C 402.426 721.835, 397.266 723.520, 381.674 731.051 C 356.758 743.085, 326.037 752.014, 299 755.080 C 284.512 756.723, 256.346 755.719, 244.223 753.128 C 223.979 748.801, 207.922 741.666, 194.997 731.255 C 184.314 722.650, 177.386 713.584, 169.968 698.500 C 157.697 673.548, 154.474 651.673, 159.654 628.505 C 167.047 595.440, 194.561 563.090, 241.500 532.275 C 260.882 519.550, 304.159 498.801, 338 486.006 C 361.925 476.961, 416.350 460, 421.451 460 C 422.572 460, 426.019 454.932, 425.978 453.346 C 425.966 452.881, 425.158 451.464, 424.184 450.197 L 422.412 447.895 403.456 453.397 C 393.030 456.423, 380.485 460.269, 375.578 461.944 C 370.671 463.619, 366.511 464.844, 366.333 464.666 C 365.830 464.163, 385.471 435.477, 392.808 426 C 403.725 411.899, 419.115 394.115, 430.019 383 C 439.469 373.368, 440.420 372.045, 441.519 367 C 442.179 363.975, 442.595 361.351, 442.445 361.169 C 441.611 360.160, 436.840 364.442, 423.431 378.238 C 400.126 402.214, 379.108 428.989, 362.019 456.470 C 354 469.366, 353.687 469.717, 348.654 471.499 C 343.791 473.221, 321.891 481.961, 313.783 485.416 L 310.066 486.999 314.570 477.250 C 320.344 464.753, 331.500 444.356, 339.742 431.226 C 352.620 410.712, 374.724 381.210, 387.654 367.279 L 392.500 362.059 405.500 360.553 C 412.650 359.725, 424.005 358.745, 430.733 358.375 L 442.965 357.702 443.603 354.304 C 443.953 352.436, 444.036 350.703, 443.787 350.454 C 443.069 349.736, 414.655 351.835, 402 353.541 L 390.500 355.091 376.500 347.406 C 336.227 325.299, 289.527 307.047, 243.693 295.501 L 230.885 292.274 238.193 289.526 C 251.620 284.475, 265.377 279.941, 279.273 275.986 L 293.046 272.065 309.773 278.365 C 358.251 296.621, 409.175 323.112, 437.174 344.638 C 440.295 347.037, 443.285 349, 443.819 349 C 445.189 349, 445.788 341.068, 444.536 339.494 C 443.966 338.778, 438.550 334.826, 432.500 330.712 C 401.811 309.843, 365.741 291.029, 325.673 274.991 L 308.846 268.255 322.673 265.658 C 342.443 261.943, 346.845 261.260, 362.287 259.508 L 376.075 257.945 394.015 267.062 C 403.882 272.077, 420.370 281.090, 430.654 287.090 C 440.939 293.091, 449.522 298, 449.727 298 C 449.932 298, 449.965 295.459, 449.800 292.354 L 449.500 286.708 435.500 278.761 C 427.800 274.390, 415.707 267.752, 408.627 264.009 L 395.754 257.205 405.127 256.519 C 410.282 256.142, 422.375 256.282, 432 256.830 C 441.625 257.379, 449.873 257.470, 450.329 257.034 C 450.786 256.598, 450.855 254.214, 450.483 251.736 C 449.847 247.495, 449.593 247.195, 446.154 246.626 C 440.887 245.755, 393.387 246.125, 381 247.133 M 202 304.919 C 189.124 310.966, 170.060 320.952, 161.771 325.993 L 158.832 327.780 166.166 328.447 C 214.571 332.851, 261.200 344.124, 307.924 362.719 L 324.347 369.255 340.924 365.185 C 350.041 362.947, 361.663 360.328, 366.750 359.364 C 371.837 358.401, 376 357.276, 376 356.864 C 376 355.728, 344.380 340.003, 328 332.993 C 294.573 318.689, 261.036 307.786, 228.099 300.516 C 221.828 299.132, 216.653 298.025, 216.599 298.055 C 216.544 298.085, 209.975 301.174, 202 304.919 M 137.500 341.023 C 122.063 351.166, 91.097 375.445, 92.207 376.535 C 92.368 376.694, 97.225 376.193, 103 375.422 C 145.235 369.784, 200.240 374.814, 252.512 389.093 L 260.524 391.282 275.012 385.757 C 282.980 382.718, 294 378.794, 299.500 377.037 C 305 375.280, 310.175 373.609, 311 373.325 C 312.848 372.686, 297.860 366.732, 276.365 359.566 C 237.699 346.674, 192.742 337.778, 159 336.341 L 145.500 335.766 137.500 341.023 M 364.500 367.107 C 359.550 368.156, 348.920 370.614, 340.877 372.570 L 326.254 376.126 317.243 389.813 C 291.643 428.697, 274.369 465.300, 264.072 502.486 C 263.008 506.328, 262.263 509.596, 262.416 509.750 C 262.569 509.903, 271.132 505.794, 281.445 500.620 L 300.196 491.212 304.452 481.356 C 319.249 447.097, 343.915 407.349, 370.452 375 C 373.836 370.875, 376.945 366.938, 377.361 366.250 C 378.381 364.566, 375.629 364.749, 364.500 367.107 M 298 384.843 C 290.025 387.480, 278.870 391.406, 273.212 393.566 L 262.924 397.495 255.567 412.497 C 234.813 454.820, 221.907 500.931, 223.186 528.190 L 223.500 534.880 234 527.882 C 239.775 524.034, 246.565 519.712, 249.089 518.280 L 253.678 515.675 255.925 506.088 C 263.992 471.669, 281.647 431.804, 306.010 393 C 309.635 387.225, 312.943 381.938, 313.360 381.250 C 314.452 379.449, 313.973 379.561, 298 384.843 M 114.500 382.016 C 110.100 382.499, 101.100 383.651, 94.500 384.574 L 82.500 386.254 74.948 394.008 C 70.795 398.273, 63.994 406.203, 59.836 411.631 C 51.969 421.899, 40.531 438.907, 41.146 439.422 C 41.341 439.586, 46.900 437.712, 53.500 435.260 C 89.700 421.809, 134.872 415.749, 175 418.960 C 183.525 419.642, 192.548 420.524, 195.051 420.920 C 199.284 421.588, 200.194 421.295, 208.051 416.731 C 212.698 414.032, 223.583 408.376, 232.239 404.162 C 240.896 399.948, 247.984 396.240, 247.989 395.922 C 248.017 394.398, 211.383 386.866, 189.500 383.896 C 172.580 381.599, 128.372 380.491, 114.500 382.016 M 234.470 410.386 C 225.121 414.924, 214.228 420.531, 210.264 422.846 L 203.056 427.055 199.100 439.429 C 189.960 468.019, 186.564 490.215, 187.309 516.500 C 187.801 533.878, 188.779 540.847, 192.535 553.770 L 194.079 559.080 197.368 556.290 C 199.177 554.756, 204.334 550.422, 208.828 546.660 L 217 539.821 217 527.871 C 217 504.671, 220.383 485.333, 229.222 458 C 234.105 442.901, 243.004 420.879, 249.107 408.788 C 250.770 405.493, 251.982 402.649, 251.800 402.467 C 251.618 402.285, 243.820 405.848, 234.470 410.386 M 129.500 426.073 C 98.327 429.033, 71.112 435.824, 43.311 447.579 L 34.123 451.464 29.592 460.982 C 23.426 473.936, 18.541 487.110, 14.982 500.386 C 13.344 506.499, 12.002 511.807, 12.002 512.183 C 12.001 512.558, 15.915 509.946, 20.701 506.378 C 52.672 482.543, 92.207 467.342, 133.861 462.870 L 145.222 461.650 152.861 455.068 C 162.968 446.360, 170.608 440.563, 181.410 433.404 L 190.321 427.500 185.410 426.819 C 176.568 425.594, 139.724 425.102, 129.500 426.073 M 180.563 441.437 C 173.998 446.049, 164.254 453.424, 158.910 457.828 L 149.193 465.834 148.347 474.667 C 147.040 488.296, 147.554 514.293, 149.341 525.012 C 151.603 538.577, 155.420 551.108, 160.471 561.549 C 164.709 570.309, 172.208 581.500, 173.839 581.500 C 174.278 581.500, 178.070 577.409, 182.264 572.410 L 189.891 563.320 186.945 554.159 C 182.141 539.219, 180.677 528.604, 180.717 509 C 180.766 485.719, 184.389 462.976, 191.830 439.250 C 192.908 435.813, 193.500 433.012, 193.145 433.026 C 192.790 433.041, 187.129 436.826, 180.563 441.437 M 125.661 470.569 C 88.754 476.309, 52.158 491.565, 24.152 512.884 C 9.402 524.113, 9.479 524.002, 8.155 535.786 C 6.937 546.632, 6.776 571.378, 7.859 581.500 L 8.500 587.500 11.931 582.557 C 25.481 563.035, 48.001 542.252, 69.522 529.409 C 78.643 523.967, 97.411 515.014, 99.720 515.005 C 100.390 515.002, 103.278 511.512, 106.138 507.250 C 113.720 495.945, 119.407 488.662, 128.779 478.250 C 133.359 473.163, 136.519 469.044, 135.803 469.097 C 135.086 469.150, 130.523 469.812, 125.661 470.569 M 133.863 481.250 C 124.739 491.338, 116.701 501.415, 111.029 509.876 L 106.755 516.251 108.499 525.376 C 112.027 543.836, 119.868 563.477, 129.309 577.500 C 134.507 585.221, 146.890 597.624, 154.265 602.495 C 157.436 604.590, 160.196 606.122, 160.398 605.902 C 160.600 605.681, 162.380 602.350, 164.354 598.500 C 166.327 594.650, 168.713 590.297, 169.656 588.826 C 171.347 586.190, 171.322 586.099, 167.878 582.287 C 149.437 561.875, 140.021 529.025, 141.226 489.304 C 141.498 480.337, 141.632 473, 141.523 473 C 141.414 473, 137.967 476.712, 133.863 481.250 M 85.904 527.848 C 67.160 537.248, 50.523 549.505, 35.973 564.634 C 27.521 573.421, 17.787 585.571, 12.653 593.740 L 9.988 597.979 12.086 607.740 C 15.469 623.475, 25.876 654.022, 27.843 653.989 C 28.204 653.983, 29.786 650.496, 31.357 646.239 C 39.770 623.448, 52.864 602.660, 70.531 584.046 C 77.187 577.033, 77.781 576.041, 78.944 570.009 C 80.793 560.416, 86.403 543.992, 91.518 533.194 C 93.995 527.965, 95.884 523.551, 95.717 523.383 C 95.549 523.216, 91.133 525.225, 85.904 527.848 M 96.551 535.228 C 91.459 546.125, 85.722 562.774, 83.960 571.773 L 82.731 578.046 88.249 586.273 C 103.287 608.695, 121.308 623.453, 145.986 633.559 L 151.472 635.806 154.177 625.153 C 155.665 619.294, 157.165 613.570, 157.510 612.434 C 158.031 610.716, 157.075 609.713, 151.824 606.472 C 143.443 601.299, 130.363 588.614, 124.214 579.697 C 115.127 566.518, 105.433 543.926, 103.416 531.228 C 103.043 528.878, 102.332 526.705, 101.837 526.399 C 101.342 526.093, 98.963 530.066, 96.551 535.228 M 80.648 593.095 C 79.348 605.530, 80.125 619.570, 83.039 636.302 L 84.221 643.088 91.381 647.920 C 107.177 658.579, 131.770 668.843, 146.519 670.931 C 150.317 671.469, 153.569 671.764, 153.746 671.587 C 153.923 671.410, 153.589 669.129, 153.004 666.518 C 152.419 663.907, 151.663 656.923, 151.324 651 L 150.708 640.229 146.758 639.046 C 126.926 633.104, 101.381 614.273, 87.782 595.570 C 84.954 591.682, 82.338 588.139, 81.968 587.698 C 81.598 587.257, 81.004 589.685, 80.648 593.095 M 70.326 593.250 C 55.876 608.533, 41.126 634.665, 34.087 657.455 L 31.983 664.266 36.648 672.825 C 42.227 683.060, 50.191 694.955, 57.807 704.431 L 63.378 711.362 65.157 699.005 C 67.444 683.118, 71.227 668.077, 76.097 655.510 L 79.968 645.520 77.785 634.510 C 76.054 625.784, 75.590 619.817, 75.550 605.751 C 75.523 595.988, 75.453 588.001, 75.395 588.001 C 75.337 588, 73.056 590.362, 70.326 593.250 M 87 652.487 C 87 652.817, 88.632 657.455, 90.626 662.794 C 97.592 681.442, 109.327 702.413, 113.732 704.088 C 118.631 705.951, 134.727 707.992, 144.500 707.990 C 153.582 707.989, 165.625 706.708, 166.704 705.630 C 166.941 705.393, 165.906 702.792, 164.404 699.849 C 162.903 696.907, 160.222 690.450, 158.446 685.500 L 155.218 676.500 146.930 675.737 C 132.997 674.453, 108.650 665.164, 91.250 654.493 C 88.912 653.060, 87 652.157, 87 652.487 M 79.243 663.150 C 75.130 675.649, 71.369 693.065, 69.889 706.462 L 68.678 717.425 78.066 726.326 C 86.833 734.638, 104.112 748.321, 110.746 752.206 L 113.659 753.912 111.857 745.706 C 109.828 736.471, 107.717 713.976, 108.562 710.608 C 108.956 709.038, 107.487 705.816, 103.475 699.450 C 96.591 688.529, 89.720 674.471, 85.488 662.650 L 82.319 653.799 79.243 663.150 M 117.798 711.598 C 119.343 714.447, 137.695 732.058, 144.091 736.829 C 147.830 739.619, 150.706 741, 152.773 741 C 156.387 741, 176.370 735.911, 183.235 733.242 L 187.970 731.402 182.441 725.951 C 179.400 722.953, 175.328 718.203, 173.391 715.396 L 169.869 710.293 165.685 711.114 C 153.592 713.487, 125.432 713.022, 118.425 710.333 C 117.052 709.806, 116.945 710.024, 117.798 711.598 M 114.334 725 C 115.151 738.017, 119.304 756.973, 121.748 758.834 C 127.046 762.867, 162.493 778.841, 163.628 777.706 C 163.843 777.490, 162.321 774.205, 160.244 770.407 C 156.261 763.121, 149.019 747.626, 148.972 746.289 C 148.957 745.855, 145.515 743.025, 141.324 740 C 137.133 736.975, 129.197 730, 123.690 724.500 L 113.676 714.500 114.334 725 M 371 738.005 C 362.783 741.688, 362.389 742.020, 359.156 747.981 C 357.317 751.372, 355.970 754.303, 356.162 754.495 C 356.695 755.028, 373.334 748.008, 374.702 746.673 C 376.279 745.134, 381.192 733.971, 380.237 734.098 C 379.832 734.151, 375.675 735.910, 371 738.005 M 184 737.663 C 180.425 739.051, 172.815 741.414, 167.089 742.915 L 156.678 745.642 164.089 749.692 C 171.550 753.769, 181.479 758.254, 190.232 761.502 C 194.266 762.999, 195.445 763.070, 198.232 761.984 C 204.459 759.558, 220 751.819, 219.966 751.161 C 219.947 750.798, 216.459 748.926, 212.216 747.002 C 207.972 745.077, 201.628 741.590, 198.118 739.252 C 194.607 736.913, 191.457 735.031, 191.118 735.070 C 190.778 735.108, 187.575 736.275, 184 737.663 M 390.689 742.429 C 386.481 744.668, 383.030 746.765, 383.019 747.090 C 383.009 747.414, 386.137 748.240, 389.971 748.925 L 396.941 750.171 404.954 745.902 C 409.361 743.554, 412.758 741.425, 412.504 741.170 C 412.249 740.916, 408.958 740.179, 405.190 739.533 L 398.340 738.358 390.689 742.429 M 345.500 747.700 L 335.500 751.085 331.244 757.543 C 328.903 761.094, 327.435 764, 327.982 764 C 330.116 764, 348.565 757.746, 349.646 756.655 C 351.473 754.812, 357.278 743.984, 356.345 744.158 C 355.880 744.244, 351 745.839, 345.500 747.700 M 156 750.614 C 156 751.527, 165.399 769.802, 168.616 775.142 C 172.012 780.781, 172.019 780.786, 180.257 783.011 C 187.474 784.961, 207.708 789, 210.256 789 C 210.760 789, 208.960 786.188, 206.255 782.750 C 203.551 779.313, 199.940 774.434, 198.230 771.909 C 195.397 767.723, 194.316 767.029, 185.985 764.049 C 180.959 762.251, 172.156 758.397, 166.423 755.484 C 160.691 752.571, 156 750.379, 156 750.614 M 367 753.588 C 362.875 755.445, 359.050 757.136, 358.500 757.345 C 356.708 758.028, 358.507 758.926, 365.166 760.672 L 371.709 762.388 381.345 758.018 C 386.645 755.615, 390.805 753.472, 390.590 753.257 C 389.906 752.572, 378.580 750.068, 376.500 750.142 C 375.400 750.180, 371.125 751.731, 367 753.588 M 326.500 753.107 C 324.850 753.622, 318.558 754.904, 312.519 755.956 L 301.537 757.869 296.308 763.685 C 293.431 766.883, 291.060 769.837, 291.039 770.250 C 291.018 770.663, 292.238 770.995, 293.750 770.989 C 296.499 770.979, 319.963 766.437, 320.434 765.824 C 324.411 760.652, 330.360 751.933, 329.809 752.086 C 329.639 752.133, 328.150 752.593, 326.500 753.107 M 214.728 759.420 L 202.956 765.674 212.728 767.831 C 238.740 773.575, 240.844 773.470, 251.011 765.931 C 255.513 762.594, 259.009 759.676, 258.780 759.447 C 258.551 759.218, 254.794 758.544, 250.432 757.949 C 246.069 757.355, 239.050 755.998, 234.833 754.934 C 230.617 753.870, 227.017 753.037, 226.833 753.083 C 226.650 753.128, 221.203 755.980, 214.728 759.420 M 281.143 758.748 L 266.787 759.056 258.329 765.778 L 249.871 772.500 263.686 772.797 C 282.737 773.206, 282.720 773.211, 290.028 764.969 C 293.426 761.136, 296.047 758.099, 295.853 758.220 C 295.659 758.341, 289.040 758.579, 281.143 758.748 M 339.044 763.960 C 326.376 768.106, 326.442 767.838, 337.051 772.020 L 342.393 774.126 353.697 769.839 C 359.913 767.482, 364.999 765.316, 364.999 765.026 C 364.998 764.737, 362.392 763.735, 359.208 762.799 C 356.024 761.863, 352.762 760.898, 351.959 760.654 C 351.157 760.410, 345.345 761.897, 339.044 763.960 M 202.826 770.429 C 203.252 771.018, 206.887 775.628, 210.904 780.674 L 218.208 789.849 225.354 790.487 C 229.284 790.838, 238.396 790.984, 245.603 790.812 L 258.706 790.500 250.599 783.435 L 242.492 776.369 232.456 775.153 C 226.936 774.484, 217.838 772.906, 212.236 771.647 C 206.558 770.371, 202.395 769.832, 202.826 770.429 M 310 771.613 C 304.225 772.847, 298.150 773.896, 296.500 773.944 C 290.416 774.120, 291.008 775.499, 299.026 779.829 L 306.944 784.106 318.722 780.945 C 325.200 779.207, 331.512 777.555, 332.750 777.276 C 335.437 776.668, 335.679 775.430, 333.250 774.727 C 332.288 774.448, 329.025 773.129, 326 771.795 L 320.500 769.370 310 771.613 M 260.883 776.948 L 250.266 777.500 257.822 783.750 C 263.466 788.419, 266.152 789.999, 268.439 789.995 C 271.746 789.989, 299.235 786.098, 299.774 785.560 C 299.953 785.380, 296.499 783.156, 292.097 780.616 C 283.222 775.497, 284.921 775.697, 260.883 776.948" stroke="none" fill="#53ab24" fill-rule="evenodd"/><path d="M 403 2.041 C 316.592 12.466, 242.971 69.782, 207.625 154.148 C 191.306 193.099, 183.183 234.271, 182.501 281.500 L 182.154 305.500 183.046 287.500 C 184.735 253.382, 187.949 228.834, 193.910 204.495 C 211.079 134.401, 249.129 78.086, 303 43.039 C 308.225 39.640, 319.250 33.531, 327.500 29.464 C 359.717 13.582, 391.647 6, 426.307 6 C 498.085 6, 563.034 36.681, 607.300 91.500 C 638.331 129.928, 658.848 180.187, 665.471 234 C 675.625 316.508, 661.542 412.119, 627.766 489.984 C 615.379 518.537, 586.286 571, 582.838 571 C 581.669 571, 579.582 569.933, 570.745 564.817 L 563.990 560.906 567.853 555.203 C 603.257 502.950, 630.990 418.364, 638.425 339.961 C 644.829 272.436, 638.260 211.285, 619.453 163.337 C 583.776 72.380, 506.881 18.064, 413.711 18.008 C 380.690 17.989, 352.337 24.492, 322.500 38.931 C 260.648 68.862, 216.371 126.210, 196.986 201.500 C 189.572 230.297, 186.940 250.331, 186.541 281 C 186.381 293.375, 186.410 300.350, 186.607 296.500 C 187.687 275.368, 189.221 255.419, 190.540 245.355 C 199.003 180.796, 224.326 125.840, 264 85.932 C 282.185 67.639, 300.863 54.104, 322.500 43.538 C 352.741 28.771, 384.536 22.066, 418.452 23.303 C 500.118 26.281, 566.685 70.990, 603.504 147.592 C 621.460 184.950, 630.232 225.265, 631.664 277 C 634.293 372.013, 607.646 472.821, 560.760 545.240 L 554.454 554.981 546.147 549.420 C 541.392 546.236, 538.042 543.334, 538.311 542.631 C 538.570 541.956, 541.116 537.375, 543.968 532.452 C 580.593 469.231, 603.973 374.369, 603.994 288.895 C 604.002 256.478, 602.425 238.276, 597.376 212.533 C 591.522 182.680, 579.962 152.467, 565.369 128.876 C 534.168 78.436, 489.975 47.960, 433.381 37.855 C 422.567 35.925, 416.971 35.551, 398.500 35.528 C 375.548 35.499, 369.740 36.129, 351.817 40.590 C 296.847 54.275, 250.007 93.725, 221.315 150.506 C 201.487 189.744, 191.394 232.200, 190.529 280 L 190.141 301.500 191.040 286 C 193.007 252.069, 197.233 225.041, 204.409 200.500 C 235.142 95.399, 320.179 30.942, 414.789 41.036 C 437.780 43.489, 458.479 49.218, 477.686 58.446 C 543.608 90.117, 586.158 161.133, 593.955 252.500 C 595.260 267.788, 595.278 306.335, 593.989 324.500 C 590.075 379.658, 575.512 437.554, 551.984 491.500 C 541.256 516.098, 529.601 537.469, 527.579 536.251 C 524.222 534.227, 513 525.533, 513 524.955 C 513 524.592, 515.198 519.616, 517.885 513.897 C 555.183 434.509, 574.745 321.835, 565.439 240 C 555.055 148.687, 509.605 83.816, 440.001 60.960 C 419.573 54.252, 408.002 52.566, 382.500 52.580 C 358.326 52.593, 349.324 53.891, 330.500 60.078 C 317.929 64.210, 297.266 74.736, 286 82.746 C 267.344 96.010, 245.372 120.288, 232.239 142.150 C 208.015 182.475, 193.625 236.710, 194.147 285.722 L 194.293 299.500 195.139 284.500 C 197.035 250.901, 201.853 223.470, 210.411 197.545 C 222.907 159.693, 241.436 129.351, 267.350 104.302 C 291.622 80.840, 317.929 66.577, 349.435 59.796 C 363.721 56.722, 394.246 56.714, 411.022 59.781 C 471.780 70.890, 517.381 112.006, 541.508 177.435 C 567.644 248.313, 563.664 351.496, 530.994 450 C 523.682 472.048, 515.810 492.152, 508.237 508.119 L 503.500 518.107 495.500 511.449 C 491.100 507.787, 487.341 504.641, 487.146 504.458 C 486.952 504.275, 489.075 497.850, 491.865 490.179 C 511.353 436.599, 523.146 386.155, 529.196 330.500 C 530.957 314.296, 530.957 252.181, 529.196 238 C 523.265 190.244, 507.413 149.727, 483.357 120.840 C 462.271 95.520, 433.339 78.685, 399.370 71.969 C 385.657 69.258, 361.053 68.270, 348.500 69.926 C 286.576 78.096, 236.984 124.856, 212.626 198.041 C 203.323 225.993, 199.084 250.164, 198.518 278.500 C 198.167 296.090, 198.202 296.572, 198.989 285 C 201.737 244.577, 207.895 215.237, 219.661 186.500 C 241.257 133.758, 278.612 95.146, 322.099 80.614 C 336.730 75.725, 345.173 74.518, 364.500 74.552 C 384.098 74.587, 396.988 76.469, 412.665 81.584 C 458.361 96.494, 491.598 133.743, 509.416 190.013 C 517.370 215.132, 520.948 239.128, 521.714 272.500 C 523.341 343.418, 510.668 409.633, 480.036 490.262 C 477.503 496.929, 478.635 497.252, 466.676 486.454 L 459.980 480.408 463.514 470.236 C 479.285 424.849, 490.450 365.733, 493.968 309 C 501.104 193.905, 467.848 118.298, 399.244 93.646 C 373.147 84.268, 337.465 83.554, 312.760 91.916 C 263.901 108.451, 225.311 158.591, 209.177 226.500 C 204.557 245.947, 202.925 258.615, 202.542 278 C 202.186 296.037, 202.273 295.755, 204.031 273.147 C 210.234 193.379, 248.654 126.120, 302.405 100.931 C 337.423 84.522, 386.656 88.954, 420.661 111.578 C 467.838 142.964, 492.058 217.391, 484.623 308.129 C 480.244 361.574, 470.879 410.994, 457.385 451.852 C 454.415 460.846, 451.636 468.828, 451.209 469.590 C 450.638 470.611, 448.088 468.619, 441.515 462.015 L 432.596 453.054 437.757 431.777 C 451.381 375.609, 458.062 324.634, 458.110 276.500 C 458.137 249.971, 457.228 237.186, 453.880 217 C 441.609 143.006, 400.065 103.004, 335.500 103.013 C 322.042 103.015, 314.012 104.239, 303.278 107.922 C 261.270 122.335, 225.530 171.876, 211.600 235 C 207.716 252.604, 203.738 293, 205.889 293 C 206.333 293, 206.992 287.810, 207.354 281.467 C 210.080 233.743, 225.531 187.968, 250.215 154.495 C 257.831 144.168, 272.302 130.218, 282.232 123.631 C 303.174 109.741, 325.408 105.284, 353.004 109.445 C 394.480 115.697, 422.715 140.203, 437.754 183 C 449.253 215.723, 452.992 264.218, 447.856 314 C 446.749 324.725, 445.643 336.425, 445.397 340 C 445.151 343.575, 444.462 348.975, 443.865 352 C 443.268 355.025, 442.597 359.525, 442.373 362 C 442.150 364.475, 441.320 368.750, 440.530 371.500 C 439.739 374.250, 437.681 383.475, 435.957 392 C 432.774 407.733, 423.430 445.903, 422.544 446.790 C 422.277 447.056, 423.026 448.633, 424.208 450.293 C 426.267 453.183, 426.286 453.436, 424.675 456.244 C 423.749 457.857, 423.207 459.525, 423.470 459.951 C 423.733 460.377, 421.559 460.972, 418.638 461.274 C 406.685 462.507, 382.463 472.645, 362 484.977 C 333.178 502.348, 301.719 528.379, 288.580 545.730 C 285.209 550.182, 283.976 551.054, 279.781 551.954 C 267.630 554.560, 257.878 552.012, 253.163 545 C 251.209 542.095, 250.896 540.627, 251.321 536.363 C 251.602 533.537, 252.578 529.783, 253.490 528.020 C 254.402 526.257, 254.993 524.660, 254.805 524.472 C 254.616 524.283, 250.093 526.837, 244.752 530.147 L 235.042 536.166 236.506 539.668 C 238.881 545.352, 252.392 569.137, 260.652 582.176 C 271.042 598.575, 292.308 626.702, 306.263 642.500 C 327.997 667.105, 357.576 694.691, 382.500 713.601 C 392.406 721.117, 400.785 727, 401.582 727 C 402.130 727, 403.534 727.988, 409.500 732.569 C 419.441 740.202, 446.125 755.645, 468 766.424 C 505.990 785.144, 538.877 795.138, 577 799.548 C 588.118 800.834, 596.515 801.103, 613 800.699 C 636.806 800.115, 648.736 798.594, 669.022 793.559 C 710.766 783.199, 749.394 761.013, 779.049 730.368 C 835.310 672.226, 857.702 595.373, 841.360 516.500 C 836.077 491.002, 823.931 460.632, 809.559 436.986 C 782.785 392.935, 739.571 352.421, 686.906 321.993 L 677.138 316.350 676.671 285.425 C 676.195 253.959, 675.026 239.988, 670.943 217 C 655.636 130.813, 605.630 60.130, 535.500 25.554 C 513.331 14.624, 490.569 7.400, 465.940 3.480 C 453.750 1.539, 414.581 0.644, 403 2.041 M 1466.500 272.071 C 1413.844 274.766, 1377.544 289.525, 1361.137 314.909 C 1355.299 323.941, 1352.885 331.751, 1352.298 343.500 C 1350.467 380.176, 1374.529 401.300, 1428.500 410.400 C 1441.249 412.550, 1454.637 413.763, 1485 415.521 C 1526.201 417.907, 1544.553 420.551, 1559.410 426.240 C 1577.106 433.016, 1583.937 446.402, 1577.914 462.501 C 1572.782 476.217, 1556.605 485.431, 1528.500 490.645 C 1519.917 492.237, 1513.398 492.495, 1482.500 492.467 C 1435.400 492.425, 1413.392 489.906, 1374.371 480.092 L 1359.242 476.288 1357.085 492.894 C 1355.899 502.027, 1354.719 510.476, 1354.465 511.670 C 1354.072 513.514, 1354.716 514.071, 1358.751 515.377 C 1375.327 520.744, 1402.904 525.802, 1431.215 528.668 C 1453.195 530.893, 1512.417 531.208, 1527 529.177 C 1548.312 526.209, 1569.272 520.390, 1582.500 513.768 C 1603.701 503.155, 1619.031 484.734, 1623.544 464.448 C 1625.908 453.822, 1625.190 435.827, 1622.080 427.764 C 1615.134 409.758, 1600.410 397.816, 1574.958 389.548 C 1554.227 382.812, 1528.730 379.036, 1487 376.521 C 1429.519 373.056, 1411.764 369.229, 1401.753 358.148 C 1388.021 342.949, 1399.052 322.954, 1425.500 315.104 C 1440.182 310.747, 1448.412 309.857, 1479.134 309.303 C 1519.322 308.579, 1540.497 310.245, 1577.609 317.047 C 1586.469 318.671, 1594.155 320, 1594.690 320 C 1595.224 320, 1597.119 312.913, 1598.901 304.250 C 1600.683 295.587, 1602.352 287.753, 1602.610 286.839 C 1603.159 284.890, 1597.035 283.293, 1574.500 279.506 C 1536.140 273.060, 1498.205 270.449, 1466.500 272.071 M 960 401.500 L 960 525 981 525 L 1002 525 1002 401.500 L 1002 278 981 278 L 960 278 960 401.500 M 1083 401.500 L 1083 525 1104 525 L 1125 525 1125 476 L 1125 427 1210.500 427 L 1296 427 1296 408 L 1296 389 1210.500 389 L 1125 389 1125 352.500 L 1125 316 1223.500 316 L 1322 316 1322 297 L 1322 278 1202.500 278 L 1083 278 1083 401.500 M 1654 297 L 1654 316 1712.500 316 L 1771 316 1771 420.500 L 1771 525 1792 525 L 1813 525 1813 420.500 L 1813 316 1893 316 L 1973 316 1973 420.500 L 1973 525 1994 525 L 2015 525 2015 420.500 L 2015 316 2073.500 316 L 2132 316 2132 297 L 2132 278 1893 278 L 1654 278 1654 297 M 2165.500 389.705 C 2133.050 451.113, 2103.686 506.683, 2100.246 513.196 L 2093.991 525.037 2117.095 524.768 L 2140.198 524.500 2154.185 497.244 L 2168.173 469.988 2250.708 470.244 L 2333.243 470.500 2347.328 497.750 L 2361.412 525 2384.265 525 C 2396.834 525, 2406.941 524.663, 2406.725 524.250 C 2406.509 523.837, 2377.145 468.263, 2341.471 400.750 L 2276.609 278 2250.554 278.028 L 2224.500 278.056 2165.500 389.705 M 2441 401.461 L 2441 525 2462 525 L 2483 525 2483 478.500 L 2483 432 2544.924 432 L 2606.847 432 2639.693 478.250 L 2672.538 524.500 2696.769 524.768 C 2710.096 524.915, 2721 524.796, 2721 524.503 C 2721 524.210, 2706.395 502.738, 2688.545 476.789 L 2656.089 429.608 2664.061 427.307 C 2687.604 420.510, 2702.345 409.091, 2711.575 390.500 C 2717.056 379.462, 2718.960 370.776, 2718.983 356.708 C 2719.044 318.415, 2698.765 290.954, 2663.224 281.204 L 2653.500 278.537 2547.250 278.230 L 2441 277.923 2441 401.461 M 2219.340 374.500 L 2188.226 433 2250.654 433 L 2313.081 433 2304.791 417.214 C 2263.005 337.650, 2251.503 316, 2251.018 316 C 2250.709 316, 2236.454 342.325, 2219.340 374.500 M 2483 355.044 L 2483 394.088 2563.750 393.779 C 2643.892 393.472, 2644.549 393.453, 2651 391.271 C 2666.884 385.897, 2674.285 377.087, 2676.448 360.974 C 2677.986 349.513, 2672.551 333.088, 2665.205 327.001 C 2659.896 322.603, 2652.652 319.419, 2643.792 317.591 C 2637.138 316.217, 2625.621 316, 2559.542 316 L 2483 316 2483 355.044 M 679.626 327.208 C 675.957 331.036, 675.155 332.581, 674.851 336.405 C 674.650 338.932, 674.740 341, 675.052 341 C 676.910 341, 681.780 335.258, 685.547 328.626 C 687.032 326.012, 687.037 325.609, 685.607 324.179 C 684.177 322.749, 683.635 323.023, 679.626 327.208 M 690.348 329.049 C 686.174 330.628, 678.440 342.773, 680.376 344.709 C 681.659 345.992, 686.023 342.912, 689.937 337.960 C 695.240 331.252, 695.430 327.126, 690.348 329.049 M 696.862 334.513 C 693.562 336.306, 688 344.564, 688 347.671 C 688 351.641, 691.788 350.533, 697.077 345.017 C 702.424 339.440, 703.739 336.595, 701.960 334.452 C 700.500 332.693, 700.206 332.696, 696.862 334.513 M 705.157 341.350 C 701.605 343.351, 695.870 351.100, 696.206 353.446 C 696.385 354.696, 697.379 355.625, 698.745 355.819 C 701.990 356.280, 712.287 346.052, 711.829 342.823 C 711.439 340.069, 708.560 339.433, 705.157 341.350 M 673.544 349.228 C 667.696 396.654, 661.691 425.148, 650.516 458.500 C 637.138 498.430, 618.501 538.100, 599.430 567.243 L 593.054 576.987 597.277 579.143 C 604.672 582.918, 627.182 591.627, 636.500 594.318 C 654.395 599.487, 661.417 600.489, 679.500 600.458 C 698.123 600.426, 703.586 599.498, 718.089 593.905 C 744.927 583.556, 771.599 553.385, 780.044 523.826 C 783.047 513.313, 783.738 494.408, 781.572 482 C 778.245 462.931, 768.197 439.099, 755.390 419.895 C 737.055 392.401, 706.412 363.257, 677.847 346.145 L 674.194 343.957 673.544 349.228 M 710.506 351.231 C 703.640 358.097, 703.332 364.175, 709.967 361.862 C 711.441 361.348, 714.794 358.747, 717.419 356.082 C 723.027 350.389, 723.259 347.671, 718.178 347.182 C 715.404 346.915, 714.172 347.565, 710.506 351.231 M 719.166 359.119 C 713.080 365.270, 712.219 369, 716.885 369 C 718.843 369, 721.591 367.501, 725.436 364.336 C 730.021 360.561, 731.044 359.179, 730.801 357.086 C 730.559 355.009, 729.893 354.441, 727.416 354.199 C 724.839 353.947, 723.486 354.754, 719.166 359.119 M 729.591 365.691 C 724.748 369.464, 721.445 374.293, 722.518 376.029 C 723.719 377.973, 728.775 376.960, 732.450 374.040 C 734.499 372.411, 737.035 370.806, 738.085 370.473 C 740.148 369.818, 741.572 365.933, 740.639 363.502 C 739.601 360.796, 734.603 361.786, 729.591 365.691 M 739.733 373.701 C 737.718 375.241, 734.902 377.328, 733.477 378.340 C 731.782 379.543, 730.991 380.928, 731.192 382.340 C 731.442 384.096, 732.248 384.542, 735.500 384.723 C 738.693 384.900, 740.609 384.188, 745 381.192 C 749.589 378.060, 750.500 376.947, 750.500 374.470 C 750.500 371.790, 750.153 371.471, 746.949 371.201 C 744.298 370.979, 742.467 371.613, 739.733 373.701 M 746.379 384.963 C 739.515 389.360, 737.956 391.763, 740.676 393.752 C 742.843 395.337, 747.542 394.491, 750.812 391.927 C 752.084 390.930, 754.606 389.625, 756.415 389.028 C 759.700 387.944, 762.082 384.615, 761.265 382.250 C 761.011 381.514, 759.120 381.009, 756.667 381.021 C 753.550 381.037, 750.958 382.030, 746.379 384.963 M 755.566 394.376 C 749.005 397.982, 747.345 399.851, 748.359 402.493 C 749.327 405.016, 754.807 404.054, 763.500 399.833 C 769.357 396.990, 770.500 396.032, 770.500 393.968 C 770.500 391.738, 770.065 391.481, 766 391.307 C 762.560 391.160, 760.102 391.883, 755.566 394.376 M 772 400.650 C 762.135 404.161, 753.850 410.330, 755.473 412.956 C 757.987 417.024, 780.103 409.069, 779.985 404.139 C 779.924 401.620, 775.145 399.531, 772 400.650 M 772.325 414.994 C 766.259 417.790, 762.201 421.898, 763.473 423.956 C 765.535 427.293, 783.804 422.481, 787.411 417.651 C 791.878 411.669, 782.950 410.097, 772.325 414.994 M 780.745 426.813 C 772.970 429.906, 769.723 432.369, 770.221 434.795 C 770.739 437.321, 778.114 436.773, 787.064 433.545 C 795.426 430.529, 797 429.489, 797 426.985 C 797 423.136, 790.169 423.064, 780.745 426.813 M 789.973 437.434 C 781.215 440.499, 777.269 442.630, 776.017 444.968 C 775.182 446.529, 775.362 447.123, 776.922 447.958 C 779.680 449.434, 780.922 449.304, 790.496 446.529 C 800.497 443.631, 802.597 442.621, 803.975 440.047 C 804.740 438.617, 804.603 437.746, 803.427 436.569 C 801.325 434.468, 797.800 434.694, 789.973 437.434 M 795 450.119 C 780.778 454.456, 776.272 458.130, 784.341 458.811 C 787.348 459.065, 797.888 457.018, 807.244 454.364 C 809.891 453.613, 811.983 451.120, 811.351 449.471 C 810.549 447.383, 802.993 447.682, 795 450.119 M 796.169 462.433 C 791.587 463.689, 786.920 465.636, 785.797 466.758 L 783.756 468.799 786.037 470.020 C 788.480 471.327, 790.939 471.115, 806.987 468.215 C 814.812 466.800, 816.539 466.161, 816.845 464.566 C 817.798 459.614, 809.554 458.763, 796.169 462.433 M 414.404 470.818 C 408.709 472.389, 407.778 473.095, 400.249 481.540 C 387.317 496.046, 362.506 517.706, 344.500 530.209 C 328.471 541.339, 308.877 551.990, 295.363 556.921 C 289.425 559.087, 289.110 559.383, 285.699 566.015 C 278.895 579.241, 278.497 588.298, 284.433 594.775 C 287.475 598.095, 288.280 598.423, 294.320 598.808 C 299.119 599.113, 302.779 598.654, 307.864 597.110 C 314.416 595.120, 315.024 594.680, 318.046 589.747 C 327.534 574.256, 348.584 551.693, 368.511 535.657 C 382.566 524.346, 404.469 509.747, 418.361 502.430 C 429.096 496.775, 429.256 496.639, 432.077 490.673 C 437.456 479.299, 436.961 473.135, 430.452 470.415 C 426.132 468.610, 422.034 468.713, 414.404 470.818 M 811 473.612 C 808.525 474.389, 803.350 475.307, 799.500 475.652 C 792.452 476.282, 787 478.200, 787 480.050 C 787 482.121, 792.298 483.162, 796.916 482 C 799.370 481.382, 805.231 480.626, 809.939 480.320 C 818.604 479.758, 823 478.140, 823 475.512 C 823 473.817, 819.903 471.958, 817.316 472.099 C 816.317 472.153, 813.475 472.834, 811 473.612 M 377.508 486.087 C 350.530 501.090, 314.431 528.169, 303.838 541.351 L 300.728 545.221 311.929 539.492 C 333.111 528.657, 358.493 509.980, 379.301 489.918 C 384.910 484.510, 389.265 480.065, 388.977 480.042 C 388.689 480.019, 383.528 482.739, 377.508 486.087 M 443.956 482.109 C 443.932 483.424, 443.295 486.230, 442.542 488.344 C 441.206 492.091, 441.226 492.173, 443.335 491.581 C 444.526 491.246, 447.413 490.693, 449.750 490.351 C 452.087 490.008, 453.954 489.452, 453.898 489.114 C 453.842 488.776, 451.592 486.524, 448.898 484.109 C 444.271 479.961, 443.998 479.850, 443.956 482.109 M 813.058 486.015 C 811.166 486.461, 805.991 487.132, 801.558 487.507 C 790.815 488.415, 785.555 491.740, 791.365 493.949 C 792.776 494.485, 795.390 494.475, 797.844 493.924 C 800.106 493.415, 807.165 492.623, 813.530 492.163 C 821.994 491.551, 825.536 490.893, 826.715 489.713 C 830.578 485.851, 822.754 483.732, 813.058 486.015 M 816 498.656 C 812.425 499.344, 806.215 499.928, 802.200 499.953 C 791.737 500.020, 785.356 503.664, 791.566 506.025 C 794.616 507.185, 822 506.275, 826.670 504.859 C 830.377 503.735, 832.731 501.328, 831.408 500.015 C 829.408 498.032, 822.440 497.417, 816 498.656 M 443.120 500.878 C 438.511 502.437, 434.329 504.448, 433.826 505.347 C 428 515.756, 391.996 552.538, 371.790 568.722 C 356.540 580.936, 340.852 591.595, 329.124 597.711 C 323.860 600.456, 319.976 603.189, 319.154 604.726 C 313.672 614.982, 312.370 628.286, 316.280 634.088 C 317.534 635.948, 319.672 638.062, 321.030 638.785 C 324.617 640.694, 334.200 639.699, 342.602 636.544 L 349.705 633.878 355.485 624.189 C 376.712 588.607, 417.092 548.291, 450.549 529.276 C 458.871 524.547, 458.982 524.432, 461.872 517.500 C 466.091 507.382, 466.685 502.685, 464.075 500.075 C 461.074 497.074, 453.505 497.364, 443.120 500.878 M 472.979 511.250 C 472.375 513.587, 471.676 516.214, 471.425 517.086 C 471.026 518.474, 471.768 518.423, 477.363 516.678 L 483.757 514.684 479.318 510.842 C 476.876 508.729, 474.698 507, 474.478 507 C 474.257 507, 473.583 508.913, 472.979 511.250 M 804.500 512.948 C 796.638 513.378, 792.524 514.075, 790.079 515.389 C 786.901 517.097, 786.794 517.308, 788.579 518.338 C 791.497 520.022, 827.612 520.087, 831.750 518.415 C 838.973 515.497, 833.379 511.877, 822.101 512.173 C 818.470 512.268, 810.550 512.617, 804.500 512.948 M 406.953 518.823 C 380.032 535.407, 349.838 561.340, 334.500 581.052 L 329.500 587.478 334.500 584.581 C 350.979 575.034, 373.250 557.299, 394.800 536.561 C 404.261 527.457, 417.764 513, 416.806 513 C 416.585 513, 412.152 515.620, 406.953 518.823 M 478 525.379 C 474.425 526.659, 470.140 528.230, 468.478 528.871 C 466.287 529.716, 464.131 532.248, 460.634 538.084 C 448.789 557.849, 424.506 587.061, 406.244 603.514 C 392.986 615.459, 375.155 628.992, 364.360 635.302 C 355.826 640.292, 354.404 642.204, 351.205 653 C 345.907 670.884, 353.205 681.243, 368.885 678.094 C 375.346 676.797, 387.999 671.176, 388.002 669.602 C 388.006 667.439, 398.670 647.343, 404.506 638.500 C 422.914 610.610, 458.794 573.106, 483.777 555.640 C 491.003 550.589, 491.072 550.497, 493.527 542.725 C 496.386 533.675, 496.724 526.867, 494.429 524.571 C 492.181 522.323, 485.635 522.645, 478 525.379 M 789.083 527.165 C 786.514 528.115, 785.775 529.576, 787.261 530.768 C 787.942 531.315, 795.700 532.003, 804.500 532.298 C 813.300 532.592, 823.301 533.398, 826.725 534.088 C 833.832 535.522, 838.406 534.349, 837.809 531.247 C 837.079 527.456, 832.491 526.647, 811.230 526.557 C 800.082 526.509, 790.115 526.783, 789.083 527.165 M 504 533.757 C 504 535.273, 503.558 538.055, 503.017 539.940 C 502.477 541.825, 502.197 543.530, 502.396 543.730 C 502.595 543.929, 504.725 543.201, 507.129 542.114 C 509.533 541.026, 512.354 539.869, 513.397 539.543 C 514.981 539.048, 514.415 538.294, 509.966 534.975 C 507.036 532.789, 504.495 531, 504.319 531 C 504.144 531, 504 532.240, 504 533.757 M 786.376 539.086 C 784.657 539.584, 782.671 540.691, 781.962 541.546 C 779.624 544.363, 782.787 545.796, 794 547.002 C 799.775 547.624, 809.675 549.294, 816 550.715 C 828.769 553.582, 834.168 553.775, 837.659 551.488 C 840.922 549.349, 840.590 547.552, 836.329 544.302 C 832.746 541.569, 832.248 541.485, 815.579 540.800 C 806.186 540.414, 796.700 539.637, 794.500 539.073 C 789.928 537.901, 790.467 537.900, 786.376 539.086 M 440.070 546.100 C 410.862 567.115, 383.778 595.180, 366.385 622.457 C 364.557 625.324, 364.692 625.283, 370.833 621.113 C 389.360 608.532, 413.523 586.095, 429.108 567 C 439.088 554.772, 449.907 539.955, 448.809 540.018 C 448.639 540.027, 444.707 542.765, 440.070 546.100 M 515.471 547.396 C 513.256 548.090, 508.306 550.330, 504.471 552.373 C 497.575 556.047, 497.453 556.185, 493.117 565.119 C 483.657 584.615, 461.155 617.092, 445.256 634.196 C 430.296 650.289, 414.246 664.114, 399.787 673.361 C 393.087 677.645, 391.764 680.832, 391.631 693 C 391.563 699.226, 391.968 701.239, 394.017 704.853 C 398.492 712.749, 407.736 715.047, 419.181 711.110 C 429.115 707.692, 430.455 706.651, 431.830 701.287 C 433.610 694.339, 441.770 675.961, 447.976 664.918 C 462.407 639.244, 476.429 621.437, 503.608 594.269 L 522.847 575.039 525.052 565.496 C 527.353 555.540, 527.266 548.419, 524.826 546.871 C 523.032 545.734, 520.283 545.888, 515.471 547.396 M 780.500 552.468 C 779.950 552.664, 778.263 553.098, 776.750 553.432 C 775.237 553.765, 774 554.672, 774 555.446 C 774 557.959, 779.024 561, 783.177 561 C 789.358 561, 801.486 563.775, 814.500 568.167 C 824.455 571.527, 827.342 572.117, 831.440 571.633 C 840.396 570.575, 841.371 566.036, 833.468 562.197 C 830.604 560.805, 827.032 559.993, 823.723 559.982 C 816.131 559.955, 799.587 557.390, 791.500 554.986 C 781.842 552.115, 781.627 552.066, 780.500 552.468 M 534.333 560.255 C 533.764 564.240, 533.344 567.550, 533.399 567.611 C 533.455 567.671, 536.566 566.045, 540.314 563.997 L 547.127 560.273 543.727 558.267 C 541.857 557.163, 539.211 555.529, 537.848 554.636 L 535.368 553.011 534.333 560.255 M 261.521 562.916 C 261.820 563.694, 264.171 567.710, 266.745 571.841 L 271.425 579.350 273.046 573.925 C 273.937 570.941, 275.417 567.060, 276.333 565.300 C 277.250 563.539, 277.998 561.964, 277.996 561.800 C 277.993 561.635, 274.163 561.500, 269.485 561.500 C 262.559 561.500, 261.079 561.763, 261.521 562.916 M 475.802 572.197 C 446.923 596.015, 415.060 633.202, 402.821 657.372 L 399.848 663.245 403.174 660.927 C 425.467 645.390, 450.278 618.362, 470.119 588 C 476.489 578.253, 483.134 567, 482.521 567 C 482.291 567, 479.268 569.339, 475.802 572.197 M 765.250 567.662 C 764.563 567.940, 764 568.726, 764 569.409 C 764 571.064, 768.256 574.997, 770.064 575.013 C 774.207 575.050, 802.967 585.591, 815.284 591.585 C 822.009 594.858, 825.537 595.996, 828.927 595.985 C 837.298 595.958, 841.117 591.880, 837.682 586.637 C 835.028 582.587, 825.291 578.283, 817 577.495 C 808.072 576.647, 789.141 572.041, 782.488 569.098 C 778.015 567.119, 768.549 566.331, 765.250 567.662 M 544.716 570.436 C 542.101 571.826, 537.546 574.788, 534.594 577.017 C 529.855 580.595, 528.843 582.034, 525.970 589.285 C 516.072 614.262, 496.536 647.611, 476.930 673 C 468.268 684.218, 449.648 703.057, 442.333 708.005 C 436.603 711.881, 436 713.344, 436 723.382 C 436 731.300, 437.295 735.649, 440.730 739.264 C 444.798 743.545, 448.245 745, 454.316 745 C 460.833 745, 471.494 740.107, 477.761 734.239 C 481.330 730.898, 481.934 729.617, 483.437 722.198 C 485.514 711.952, 492.349 691.810, 498.567 677.611 C 508.941 653.923, 533.924 615.257, 551.033 596.411 C 554.345 592.762, 554.883 591.392, 556.028 583.698 C 558.267 568.648, 555.088 564.921, 544.716 570.436 M 564 576.994 L 564 583.113 566.816 581.450 C 568.365 580.535, 570.645 579.022, 571.883 578.088 L 574.134 576.391 569.067 573.633 L 564 570.875 564 576.994 M 753.011 581.487 C 750.363 584.677, 752.618 587.484, 761.274 591.773 C 771.818 596.998, 794.325 611.949, 803.640 619.916 C 809.548 624.970, 811.753 626.218, 816.430 627.157 C 834.185 630.723, 839.272 614.758, 823.744 604.203 C 821.410 602.616, 816.350 600.540, 812.500 599.590 C 803.144 597.280, 778.014 587.629, 770.338 583.397 C 763.444 579.597, 755.322 578.702, 753.011 581.487 M 573.946 585.947 C 563.305 593, 562.333 594.396, 558.600 608 C 553.264 627.442, 542.076 656.775, 533.278 674.393 C 523.969 693.033, 509.453 714.015, 495.677 728.746 L 488 736.955 488 745.296 C 488 761.288, 492.626 769.511, 503.024 772.006 C 512.413 774.258, 520.458 771.463, 529.677 762.745 L 535 757.710 535 748.454 C 535 730.988, 540.566 705.909, 549.971 681 C 563.203 645.955, 576.502 618.736, 587.937 603.294 C 590.191 600.251, 590.255 599.753, 589.207 593.430 C 588.600 589.768, 587.336 585.923, 586.397 584.886 C 583.896 582.122, 579.099 582.531, 573.946 585.947 M 736.347 593.538 C 735.036 596.955, 738.935 603.598, 745.273 608.745 C 756.470 617.838, 781.174 643.988, 787.887 653.854 C 794.790 663.998, 797.446 665.882, 806.084 666.758 C 817.677 667.933, 823.162 658.325, 817.649 646.500 C 815.167 641.175, 805.627 630, 803.565 630 C 801.143 630, 782.638 619.854, 772.614 613.031 C 767.006 609.214, 759.511 603.336, 755.959 599.969 C 752.407 596.601, 748.458 593.431, 747.185 592.923 C 743.420 591.422, 737.020 591.785, 736.347 593.538 M 502.997 605.681 C 481.262 628.290, 469.334 643.855, 456.285 666.640 C 448.778 679.747, 441.455 695.789, 442.501 696.835 C 442.858 697.191, 448.218 692.311, 454.414 685.991 C 466.928 673.226, 480.200 655.905, 491.956 637 C 502.410 620.186, 516.216 594, 514.626 594 C 514.406 594, 509.173 599.256, 502.997 605.681 M 607.127 596.077 C 605.822 596.599, 603.077 598.355, 601.027 599.978 C 597.386 602.862, 597.286 603.124, 596.654 611.337 C 595.320 628.688, 588.781 655.626, 578.042 688 C 567.646 719.343, 559.774 736.673, 548.374 753.315 C 543.143 760.951, 543.043 761.229, 543.998 765.490 C 546.214 775.377, 551.223 782.961, 557.566 786.032 C 568.164 791.162, 582.068 785.259, 591.441 771.650 L 595.229 766.150 593.971 757.692 C 592.293 746.415, 593.240 720.105, 595.885 704.500 C 600.468 677.464, 609.746 640.235, 616.033 623.654 C 618.828 616.283, 618.945 615.414, 617.965 609.279 C 616.778 601.850, 614.849 597.525, 612.055 596.030 C 609.847 594.848, 610.206 594.844, 607.127 596.077 M 835.892 601.383 L 832.284 602.500 835.055 606.279 L 837.826 610.057 838.842 605.291 C 839.401 602.670, 839.778 600.467, 839.679 600.396 C 839.581 600.324, 837.876 600.769, 835.892 601.383 M 717 602.999 C 716.260 604.383, 716.087 606.994, 716.524 610.173 C 717.073 614.163, 718.118 616.192, 721.710 620.237 C 733.676 633.710, 750.693 659.589, 760.157 678.707 C 766.539 691.599, 767.622 693.191, 771.857 695.908 C 782.286 702.601, 788.855 703.676, 793.814 699.503 C 795.446 698.130, 797.061 695.894, 797.402 694.534 C 798.302 690.948, 796.420 683.581, 792.404 674.971 C 789.489 668.721, 788.102 666.942, 784.240 664.499 C 773.368 657.621, 751.872 634.448, 739 615.729 C 734.843 609.684, 732.279 607.048, 728.500 604.931 C 721.122 600.799, 718.421 600.345, 717 602.999 M 304.500 607 C 302.850 607.420, 299.363 607.817, 296.750 607.882 C 294.137 607.947, 292 608.265, 292 608.590 C 292 608.914, 294.813 612.745, 298.250 617.103 C 304.341 624.825, 304.516 624.956, 305.148 622.263 C 306.536 616.352, 308.245 609.420, 308.728 607.750 C 309.270 605.871, 309.073 605.836, 304.500 607 M 633.706 608.016 C 628.059 612.459, 627 615.709, 626.996 628.618 C 626.991 643.170, 625.638 662.563, 622.923 687 C 619.283 719.773, 613.871 743.753, 606.531 759.639 L 603.224 766.798 605.471 772.327 C 610.164 783.875, 617.847 790, 627.638 790 C 639.833 790, 649.585 782.975, 655.915 769.631 C 662.259 756.257, 662.584 753.537, 659.082 743.086 C 653.187 725.489, 650.709 707.752, 648.919 670.322 C 648.045 652.041, 648.044 642.959, 648.917 633.090 C 650.026 620.550, 649.986 619.837, 647.897 614.981 C 644.261 606.531, 638.925 603.912, 633.706 608.016 M 663.435 610.375 C 662.299 611.189, 660.563 613.644, 659.577 615.830 C 657.898 619.553, 657.885 620.208, 659.371 626.153 C 661.575 634.969, 664.378 651.889, 667.629 676 C 670.038 693.865, 670.413 700.113, 670.554 724.602 L 670.714 752.705 673.605 758.015 C 677.199 764.619, 683.940 771.659, 688.489 773.560 C 693.348 775.590, 698.646 775.350, 703.774 772.867 C 713.272 768.270, 717.404 757.534, 716.825 738.961 L 716.468 727.500 710.830 719.240 C 707.729 714.697, 703.543 707.047, 701.527 702.240 C 694.996 686.666, 686.153 652.468, 683.659 633.138 C 682.307 622.659, 680.638 618.921, 674.788 613.270 C 670.798 609.414, 666.357 608.282, 663.435 610.375 M 691.526 611.950 C 689.239 616.373, 689.636 622.348, 692.607 628.211 C 701.242 645.252, 718.641 698.452, 722.035 718.193 C 723.098 724.375, 723.584 725.263, 728.425 729.841 C 736.284 737.273, 743.011 740.413, 751.177 740.461 C 758.830 740.506, 762.273 738.672, 765.318 732.929 C 767.850 728.152, 767.068 716.251, 763.483 705 C 760.918 696.950, 760.305 696.014, 751.908 687.317 C 738.715 673.651, 724.166 650.157, 714.866 627.500 C 711.480 619.250, 710.661 618.104, 705.030 613.750 C 697.556 607.971, 693.840 607.475, 691.526 611.950 M 543.310 618.250 C 518.578 651.689, 501.745 684.120, 493.129 714.931 L 491.051 722.363 494.034 718.931 C 514.432 695.468, 529.482 668.267, 543.520 629.500 C 546.834 620.346, 550.088 610, 549.652 610 C 549.520 610, 546.666 613.712, 543.310 618.250 M 578.353 634.517 C 561.410 668.401, 547.667 706.715, 544.104 730 C 542.766 738.749, 541.888 748, 542.396 748 C 542.624 748, 544.861 744.501, 547.368 740.225 C 556.885 723.991, 565.944 701.893, 574.310 674.500 C 581.603 650.621, 588.713 620.639, 587.760 617.781 C 587.532 617.095, 583.298 624.627, 578.353 634.517 M 830 632.500 C 828.625 633.286, 825.318 633.945, 822.652 633.965 L 817.804 634 819.973 637.250 C 821.166 639.038, 823.048 642.450, 824.155 644.833 C 825.262 647.216, 826.307 649.016, 826.479 648.833 C 826.902 648.382, 833.002 630.991, 832.722 631.035 C 832.600 631.055, 831.375 631.714, 830 632.500 M 617.739 641.250 C 617.467 642.487, 615.635 649.800, 613.669 657.500 C 605.082 691.117, 601.125 713.943, 600.308 734.581 C 599.517 754.573, 600.578 756.503, 604.828 742.799 C 610.126 725.715, 613.430 707.023, 616.458 677 C 619.043 651.372, 619.731 632.182, 617.739 641.250 M 732.110 647.750 C 737.711 657.641, 745.873 670.373, 748.618 673.500 C 751.074 676.299, 751.032 676.098, 747.996 670.500 C 744.169 663.445, 730.169 642, 729.390 642 C 729.095 642, 730.319 644.587, 732.110 647.750 M 655.086 645.500 C 654.906 650.459, 657.136 692.506, 658.055 701.500 C 658.617 707, 660.072 716.450, 661.289 722.500 L 663.500 733.500 663.800 723.500 C 664.131 712.476, 662.208 691.081, 658.409 663.500 C 655.939 645.574, 655.223 641.697, 655.086 645.500 M 339.105 646.577 C 336.688 647.336, 332.582 648.079, 329.981 648.228 L 325.252 648.500 332.245 656.265 C 336.091 660.535, 339.635 664.274, 340.119 664.574 C 340.604 664.873, 341.026 663.629, 341.058 661.809 C 341.089 659.989, 341.908 655.462, 342.876 651.750 C 343.844 648.038, 344.381 645.044, 344.068 645.099 C 343.756 645.153, 341.522 645.819, 339.105 646.577 M 694.054 651.500 C 693.975 653.312, 702.034 683.260, 704.672 690.957 C 706.093 695.106, 708.335 700.525, 709.654 703 L 712.051 707.500 711.418 704 C 710.039 696.371, 694.187 648.445, 694.054 651.500 M 799 672.630 C 799 672.888, 799.685 674.423, 800.521 676.041 C 801.358 677.659, 802.622 681.534, 803.330 684.652 L 804.618 690.322 808.653 683.911 C 810.872 680.385, 813.241 676.455, 813.918 675.178 C 815.137 672.876, 815.109 672.861, 810.730 673.518 C 808.300 673.882, 804.667 673.726, 802.656 673.171 C 800.645 672.615, 799 672.372, 799 672.630 M 378.408 683.958 C 375.607 684.955, 371.349 686.103, 368.945 686.509 L 364.573 687.248 367.148 689.374 C 368.564 690.543, 373.110 694.300, 377.249 697.722 L 384.775 703.945 383.804 699.722 C 383.270 697.400, 383.123 692.462, 383.477 688.750 C 383.831 685.038, 383.981 682.033, 383.811 682.073 C 383.640 682.113, 381.209 682.962, 378.408 683.958 M 771.661 707.857 C 772.431 710.410, 773.347 715.861, 773.696 719.970 L 774.331 727.439 782.158 718.970 C 786.463 714.311, 789.989 710.220, 789.993 709.879 C 789.997 709.537, 787.644 708.945, 784.764 708.563 C 781.885 708.181, 777.443 706.821, 774.894 705.541 L 770.260 703.213 771.661 707.857 M 422.500 718.610 C 420.300 719.418, 416.250 720.409, 413.500 720.812 L 408.500 721.545 418.500 728.173 C 424 731.817, 428.527 734.732, 428.560 734.650 C 428.958 733.657, 427.621 717.019, 427.147 717.070 C 426.791 717.109, 424.700 717.802, 422.500 718.610 M 724.227 745.191 C 724.085 751.387, 723.320 756.170, 721.699 761.003 L 719.375 767.932 724.938 764.793 C 733.296 760.075, 750.344 748.605, 749.361 748.360 C 740.893 746.252, 735.971 744.209, 730.755 740.638 L 724.431 736.309 724.227 745.191 M 475 746.220 C 472.525 747.793, 468.363 749.843, 465.750 750.775 C 463.137 751.707, 461 752.711, 461 753.007 C 461 753.505, 481.488 764, 482.460 764 C 482.700 764, 482.456 762.737, 481.918 761.194 C 481.380 759.651, 480.616 755.007, 480.220 750.874 L 479.500 743.360 475 746.220 M 664.954 768.122 C 662.169 775.570, 656.037 785.007, 651.678 788.554 L 648.500 791.140 652 790.502 C 658.415 789.331, 679.447 784.134, 683.401 782.741 L 687.302 781.367 682.901 778.769 C 678.029 775.892, 673.571 771.460, 669.772 765.716 L 667.269 761.932 664.954 768.122 M 532.125 771.513 C 529.755 773.389, 526.068 775.728, 523.933 776.712 C 521.798 777.695, 520.040 778.784, 520.026 779.131 C 520.012 779.478, 521.913 780.261, 524.250 780.870 C 526.587 781.479, 532.437 783.077, 537.250 784.422 L 546 786.866 543.525 783.622 C 542.164 781.837, 540.012 777.615, 538.743 774.239 L 536.436 768.102 532.125 771.513 M 592.985 781.292 C 590.014 784.601, 585.667 788.524, 583.325 790.009 L 579.068 792.709 587.284 793.348 C 591.803 793.700, 599.350 793.991, 604.057 793.994 L 612.613 794 607.532 788.750 C 604.738 785.862, 601.537 781.650, 600.419 779.388 L 598.387 775.276 592.985 781.292" stroke="none" fill="#04689d" fill-rule="evenodd"/></svg>