<svg xmlns="http://www.w3.org/2000/svg" width="900" height="450" viewBox="0 0 900 450" version="1.1"><path d="M 652.500 15.950 C 619.267 19.824, 597.102 37.136, 591.620 63.500 C 590.182 70.416, 589.248 119.090, 587.536 276.211 L 587.027 322.922 593.764 322.357 C 617.422 320.370, 639.410 308.444, 653.737 289.828 C 659.369 282.510, 665.449 270.078, 668.081 260.500 C 670.644 251.169, 670.663 250.292, 670.191 161.067 C 669.894 104.817, 669.954 102.539, 671.796 100.067 C 672.848 98.655, 675.237 96.600, 677.105 95.500 C 684.360 91.226, 706.383 94.077, 725 101.699 C 763.622 117.513, 790.547 152.798, 798.507 198.029 C 800.433 208.974, 800.433 232.342, 798.507 244.261 C 793.758 273.653, 781.089 298.162, 760.440 317.903 C 738.877 338.517, 716.475 348.312, 685 350.887 C 678.125 351.450, 632.225 352.190, 583 352.531 C 482.321 353.229, 485.815 353.438, 472.222 345.924 C 463.875 341.311, 455.875 333.863, 450.783 325.967 C 447.779 321.309, 436.379 302.182, 415.935 267.500 C 408.105 254.216, 408.280 253.064, 418.989 247.436 C 426.670 243.400, 437.821 234.323, 445.409 225.930 C 464.818 204.462, 475.896 179.148, 479.074 149 C 481.237 128.486, 476.846 105.778, 466.603 84.500 C 450.140 50.303, 419.408 25.899, 383.523 18.527 C 371.640 16.086, 359.289 15.696, 331 16.869 C 302.115 18.067, 295.026 19.371, 281.519 25.970 C 262.052 35.481, 248.172 51.530, 240.847 73 L 237.606 82.500 236.919 166.500 C 236.220 251.859, 236.054 255.751, 232.019 281.517 C 228.356 304.906, 220.125 322.991, 204.718 341.500 C 182.203 368.549, 151.217 384.027, 119.653 383.989 C 99.524 383.965, 86.900 375.728, 78.293 357 C 70.909 340.930, 70.012 331.414, 69.932 268.257 C 69.894 238.690, 69.533 205.241, 69.129 193.925 C 68.426 174.219, 68.285 173.163, 65.793 168.925 C 64.361 166.491, 62.085 163.468, 60.735 162.207 C 57.749 159.418, 48.318 155.676, 47.522 156.964 C 47.209 157.471, 46.508 177.374, 45.965 201.193 C 45.421 225.012, 44.547 263.400, 44.022 286.500 C 42.886 336.429, 43.557 345.892, 49.485 363.549 C 58.138 389.328, 74.188 406.006, 97.840 413.796 C 104.871 416.111, 107.018 416.324, 124 416.388 C 144.510 416.464, 154.761 414.843, 171.881 408.818 C 216.840 392.993, 255.887 351.798, 269.340 306 C 279.699 270.732, 283.239 235.476, 285.006 150 C 286.225 90.992, 286.442 88.831, 291.905 81.289 C 295.636 76.139, 300.124 72.786, 306.500 70.384 C 310.965 68.702, 314.498 68.501, 339.500 68.510 C 370.506 68.521, 374.043 69.024, 386.841 75.239 C 396.055 79.715, 410.217 93.819, 415.236 103.521 C 423.604 119.696, 425.846 134.091, 422.485 150.069 C 419.365 164.901, 413.053 176.745, 402.711 187.167 C 397.010 192.912, 394.070 194.896, 384.369 199.542 C 365.989 208.344, 358.965 214.601, 352.317 228.096 C 348.413 236.020, 347 242.487, 347 252.426 C 347 265.857, 348.707 269.817, 373.757 314.500 C 378.382 322.750, 386.213 336.729, 391.159 345.565 C 401.460 363.968, 406.141 370.565, 416.138 380.768 C 425.431 390.251, 434.211 396.748, 445.962 402.835 C 457.099 408.604, 464.307 411.245, 476.592 414.058 C 484.312 415.826, 490.902 416.215, 526 416.980 C 592.846 418.437, 698.481 418.555, 706 417.181 C 709.575 416.528, 715.200 415.494, 718.500 414.884 C 767.822 405.767, 815.297 372.357, 842.674 327.500 C 853.951 309.023, 862.502 287.986, 867.469 266.500 C 871.812 247.712, 872.505 240.598, 872.391 216 C 872.293 194.959, 872.003 191.052, 869.620 178.666 C 861.547 136.714, 843.151 101.013, 814.729 72.140 C 786.035 42.991, 751.226 25.004, 709 17.505 C 698.196 15.587, 663.750 14.639, 652.500 15.950 M 47.773 29.488 C 22.808 35.833, 6.691 60.456, 10.956 85.737 C 15.004 109.737, 35.277 127, 59.414 127 C 73.637 127, 84.727 122.458, 94.593 112.593 C 104.598 102.587, 108.967 91.893, 108.988 77.355 C 109.027 50.458, 89.111 29.723, 62 28.436 C 56.563 28.178, 51.436 28.557, 47.773 29.488 M 45.237 63.263 L 31 77.525 45.500 92 L 60 106.474 74 92.500 C 81.700 84.815, 88 78.195, 88 77.789 C 88 77.114, 60.425 49, 59.762 49 C 59.604 49, 53.067 55.418, 45.237 63.263" stroke="none" fill="#d90a1c" fill-rule="evenodd"/><path d="M 0 225.001 L 0 450.002 450.250 449.751 L 900.500 449.500 900.752 224.750 L 901.004 0 450.502 0 L 0 0 0 225.001 M 0.491 225.500 C 0.491 349.250, 0.608 399.726, 0.750 337.670 C 0.892 275.613, 0.892 174.363, 0.750 112.670 C 0.608 50.976, 0.491 101.750, 0.491 225.500 M 652.500 15.950 C 619.267 19.824, 597.102 37.136, 591.620 63.500 C 590.182 70.416, 589.248 119.090, 587.536 276.211 L 587.027 322.922 593.764 322.357 C 617.422 320.370, 639.410 308.444, 653.737 289.828 C 659.369 282.510, 665.449 270.078, 668.081 260.500 C 670.644 251.169, 670.663 250.292, 670.191 161.067 C 669.894 104.817, 669.954 102.539, 671.796 100.067 C 672.848 98.655, 675.237 96.600, 677.105 95.500 C 684.360 91.226, 706.383 94.077, 725 101.699 C 763.622 117.513, 790.547 152.798, 798.507 198.029 C 800.433 208.974, 800.433 232.342, 798.507 244.261 C 793.758 273.653, 781.089 298.162, 760.440 317.903 C 738.877 338.517, 716.475 348.312, 685 350.887 C 678.125 351.450, 632.225 352.190, 583 352.531 C 482.321 353.229, 485.815 353.438, 472.222 345.924 C 463.875 341.311, 455.875 333.863, 450.783 325.967 C 447.779 321.309, 436.379 302.182, 415.935 267.500 C 408.105 254.216, 408.280 253.064, 418.989 247.436 C 426.670 243.400, 437.821 234.323, 445.409 225.930 C 464.818 204.462, 475.896 179.148, 479.074 149 C 481.237 128.486, 476.846 105.778, 466.603 84.500 C 450.140 50.303, 419.408 25.899, 383.523 18.527 C 371.640 16.086, 359.289 15.696, 331 16.869 C 302.115 18.067, 295.026 19.371, 281.519 25.970 C 262.052 35.481, 248.172 51.530, 240.847 73 L 237.606 82.500 236.919 166.500 C 236.220 251.859, 236.054 255.751, 232.019 281.517 C 228.356 304.906, 220.125 322.991, 204.718 341.500 C 182.203 368.549, 151.217 384.027, 119.653 383.989 C 99.524 383.965, 86.900 375.728, 78.293 357 C 70.909 340.930, 70.012 331.414, 69.932 268.257 C 69.894 238.690, 69.533 205.241, 69.129 193.925 C 68.426 174.219, 68.285 173.163, 65.793 168.925 C 64.361 166.491, 62.085 163.468, 60.735 162.207 C 57.749 159.418, 48.318 155.676, 47.522 156.964 C 47.209 157.471, 46.508 177.374, 45.965 201.193 C 45.421 225.012, 44.547 263.400, 44.022 286.500 C 42.886 336.429, 43.557 345.892, 49.485 363.549 C 58.138 389.328, 74.188 406.006, 97.840 413.796 C 104.871 416.111, 107.018 416.324, 124 416.388 C 144.510 416.464, 154.761 414.843, 171.881 408.818 C 216.840 392.993, 255.887 351.798, 269.340 306 C 279.699 270.732, 283.239 235.476, 285.006 150 C 286.225 90.992, 286.442 88.831, 291.905 81.289 C 295.636 76.139, 300.124 72.786, 306.500 70.384 C 310.965 68.702, 314.498 68.501, 339.500 68.510 C 370.506 68.521, 374.043 69.024, 386.841 75.239 C 396.055 79.715, 410.217 93.819, 415.236 103.521 C 423.604 119.696, 425.846 134.091, 422.485 150.069 C 419.365 164.901, 413.053 176.745, 402.711 187.167 C 397.010 192.912, 394.070 194.896, 384.369 199.542 C 365.989 208.344, 358.965 214.601, 352.317 228.096 C 348.413 236.020, 347 242.487, 347 252.426 C 347 265.857, 348.707 269.817, 373.757 314.500 C 378.382 322.750, 386.213 336.729, 391.159 345.565 C 401.460 363.968, 406.141 370.565, 416.138 380.768 C 425.431 390.251, 434.211 396.748, 445.962 402.835 C 457.099 408.604, 464.307 411.245, 476.592 414.058 C 484.312 415.826, 490.902 416.215, 526 416.980 C 592.846 418.437, 698.481 418.555, 706 417.181 C 709.575 416.528, 715.200 415.494, 718.500 414.884 C 767.822 405.767, 815.297 372.357, 842.674 327.500 C 853.951 309.023, 862.502 287.986, 867.469 266.500 C 871.812 247.712, 872.505 240.598, 872.391 216 C 872.293 194.959, 872.003 191.052, 869.620 178.666 C 861.547 136.714, 843.151 101.013, 814.729 72.140 C 786.035 42.991, 751.226 25.004, 709 17.505 C 698.196 15.587, 663.750 14.639, 652.500 15.950 M 47.773 29.488 C 22.808 35.833, 6.691 60.456, 10.956 85.737 C 15.004 109.737, 35.277 127, 59.414 127 C 73.637 127, 84.727 122.458, 94.593 112.593 C 104.598 102.587, 108.967 91.893, 108.988 77.355 C 109.027 50.458, 89.111 29.723, 62 28.436 C 56.563 28.178, 51.436 28.557, 47.773 29.488 M 45.237 63.263 L 31 77.525 45.500 92 L 60 106.474 74 92.500 C 81.700 84.815, 88 78.195, 88 77.789 C 88 77.114, 60.425 49, 59.762 49 C 59.604 49, 53.067 55.418, 45.237 63.263" stroke="none" fill="#fbfafb" fill-rule="evenodd"/></svg>