<?xml version="1.0" standalone="no"?>
<!DOCTYPE svg PUBLIC "-//W3C//DTD SVG 20010904//EN"
 "http://www.w3.org/TR/2001/REC-SVG-20010904/DTD/svg10.dtd">
<svg version="1.0" xmlns="http://www.w3.org/2000/svg"
 width="600.000000pt" height="494.000000pt" viewBox="0 0 600.000000 494.000000"
 preserveAspectRatio="xMidYMid meet">

<g transform="translate(0.000000,494.000000) scale(0.100000,-0.100000)"
fill="#000000" stroke="none">
<path d="M4454 4929 c-234 -30 -384 -160 -414 -356 -4 -32 -11 -362 -14 -733
-4 -371 -9 -757 -12 -857 l-7 -183 35 0 c56 0 184 37 251 72 84 45 183 146
229 233 70 135 71 139 67 710 -4 577 -7 553 71 576 34 10 58 9 137 -5 168 -29
297 -93 415 -204 188 -178 282 -404 281 -677 0 -212 -52 -385 -164 -545 -113
-162 -283 -283 -474 -335 -84 -23 -543 -37 -1110 -33 l-450 3 -59 29 c-95 47
-151 111 -263 301 -185 314 -195 333 -189 352 3 10 34 33 69 52 80 45 209 174
269 271 94 151 138 307 138 483 0 412 -304 776 -702 838 -102 16 -473 6 -553
-16 -186 -49 -325 -173 -394 -353 l-25 -67 -7 -610 c-7 -643 -13 -735 -59
-901 -37 -135 -110 -256 -224 -369 -120 -119 -244 -188 -398 -219 -207 -43
-331 1 -406 143 -67 124 -69 149 -78 750 -7 524 -8 544 -28 584 -22 43 -76 87
-106 87 -16 0 -18 -19 -24 -182 -19 -527 -26 -1016 -16 -1091 53 -381 287
-571 651 -528 259 31 476 143 658 337 273 293 341 573 361 1494 9 466 10 473
82 534 60 52 99 58 329 54 181 -4 210 -7 259 -26 209 -83 338 -334 286 -556
-37 -158 -125 -264 -279 -340 -151 -74 -226 -172 -243 -319 -12 -100 6 -144
183 -463 200 -360 218 -389 309 -479 138 -136 316 -216 519 -234 61 -5 414
-11 785 -13 614 -3 683 -1 762 15 420 85 754 340 946 724 51 101 105 261 128
383 25 134 25 410 0 540 -81 417 -319 759 -671 963 -241 140 -568 203 -851
166z"/>
<path d="M259 4837 c-103 -29 -181 -97 -228 -197 -36 -78 -36 -192 0 -270 107
-232 393 -282 563 -100 26 28 57 72 68 97 56 127 21 290 -83 390 -76 72 -220
108 -320 80z m188 -229 c51 -51 93 -97 93 -103 0 -13 -182 -195 -195 -195 -6
0 -53 43 -105 95 l-95 95 100 100 c55 55 102 100 105 100 2 0 46 -42 97 -92z"/>
<path d="M260 1585 l0 -195 45 0 45 0 0 195 0 195 -45 0 -45 0 0 -195z"/>
<path d="M1300 1745 c0 -35 0 -35 45 -35 45 0 45 0 45 35 0 35 0 35 -45 35
-45 0 -45 0 -45 -35z"/>
<path d="M3150 1585 l0 -195 45 0 45 0 0 65 c0 64 0 65 28 65 24 0 32 -8 60
-65 l32 -65 50 0 c27 0 50 2 50 5 0 3 -18 37 -40 76 -22 39 -40 73 -40 76 0 3
11 18 25 35 18 22 25 41 25 73 0 100 -36 125 -179 125 l-101 0 0 -195z m178
103 c35 -29 -2 -88 -55 -88 -33 0 -33 0 -33 48 0 27 3 52 7 56 9 8 63 -3 81
-16z"/>
<path d="M4150 1585 l0 -195 45 0 45 0 0 69 c0 85 12 118 46 131 45 17 54 0
54 -106 l0 -94 45 0 45 0 0 118 c-1 80 -5 122 -14 134 -29 39 -118 47 -146 13
-23 -28 -30 -15 -30 55 l0 70 -45 0 -45 0 0 -195z"/>
<path d="M5380 1585 l0 -195 50 0 50 0 0 83 c0 89 3 98 38 116 42 22 52 1 52
-105 l0 -94 51 0 52 0 -5 113 c-2 61 -10 122 -16 134 -24 44 -113 53 -154 16
-17 -15 -18 -12 -18 55 l0 72 -50 0 -50 0 0 -195z"/>
<path d="M1089 1743 c-1 -5 0 -20 1 -35 1 -22 -4 -30 -24 -38 -20 -7 -26 -16
-26 -40 0 -23 4 -30 20 -30 18 0 20 -7 20 -65 0 -35 5 -76 12 -90 15 -34 56
-55 108 -55 l40 0 0 40 c0 35 -3 40 -24 40 -35 0 -48 22 -44 77 3 44 5 48 31
51 24 3 27 8 27 38 0 31 -2 34 -30 34 -28 0 -30 2 -30 40 l0 40 -40 0 c-22 0
-40 -3 -41 -7z"/>
<path d="M1490 1710 c0 -33 -3 -40 -20 -40 -16 0 -20 -7 -20 -35 0 -28 4 -35
20 -35 18 0 20 -7 20 -64 0 -36 4 -76 10 -90 12 -32 58 -56 107 -56 l39 0 -4
40 c-3 30 -8 40 -22 40 -29 0 -41 25 -38 77 3 44 5 48 31 51 24 3 27 8 27 38
0 31 -2 34 -30 34 -28 0 -30 2 -30 40 l0 40 -45 0 -45 0 0 -40z"/>
<path d="M2080 1711 c0 -30 -4 -40 -20 -44 -15 -4 -20 -14 -20 -36 0 -24 4
-31 20 -31 18 0 20 -7 20 -65 0 -35 5 -76 12 -90 15 -34 56 -55 108 -55 l40 0
0 40 c0 35 -3 40 -24 40 -35 0 -48 22 -44 77 3 44 5 48 31 51 24 3 27 8 27 38
0 31 -2 34 -30 34 -28 0 -30 2 -30 40 l0 40 -45 0 -45 0 0 -39z"/>
<path d="M578 1668 c-16 -5 -28 -14 -28 -19 0 -5 -4 -9 -10 -9 -5 0 -10 7 -10
15 0 11 -12 15 -45 15 l-45 0 0 -140 0 -140 45 0 45 0 0 69 c0 85 12 118 46
131 45 17 54 0 54 -106 l0 -94 45 0 45 0 0 110 c0 123 -10 154 -53 170 -36 12
-53 12 -89 -2z"/>
<path d="M850 1669 c-40 -16 -60 -40 -60 -73 0 -44 21 -70 80 -95 27 -12 50
-26 50 -32 0 -11 -62 -8 -90 5 -11 4 -21 -3 -33 -23 -17 -30 -17 -30 9 -48 39
-25 125 -24 160 3 77 57 43 123 -91 177 -5 2 -7 8 -3 12 11 12 67 8 83 -5 10
-8 17 -4 29 21 19 38 15 45 -32 59 -45 12 -69 12 -102 -1z"/>
<path d="M3593 1669 c-43 -13 -80 -60 -88 -113 -17 -114 85 -199 201 -167 64
18 69 24 54 61 -11 26 -17 30 -34 25 -52 -17 -87 -17 -106 0 -11 10 -20 22
-20 27 0 4 41 8 91 8 l92 0 -7 47 c-8 59 -29 91 -71 109 -38 16 -65 16 -112 3z
m81 -75 c23 -22 11 -34 -35 -34 -40 0 -51 14 -27 38 17 17 44 15 62 -4z"/>
<path d="M3915 1665 c-72 -25 -106 -90 -90 -172 17 -95 169 -146 247 -84 20
17 20 21 9 50 -15 35 -18 36 -45 16 -32 -24 -81 -19 -105 11 -27 34 -26 54 0
89 18 22 28 26 58 23 20 -3 43 -8 51 -11 10 -5 21 3 32 24 l18 30 -43 19 c-50
23 -78 24 -132 5z"/>
<path d="M4586 1670 c-120 -38 -131 -210 -16 -267 49 -25 77 -28 130 -13 60
17 65 24 50 60 -11 26 -17 30 -34 25 -67 -22 -126 -12 -126 20 0 11 20 15 87
17 76 3 88 5 91 22 6 28 -27 105 -51 121 -29 19 -95 26 -131 15z m72 -72 c24
-24 13 -38 -28 -38 -26 0 -40 5 -40 13 0 18 21 37 40 37 9 0 21 -5 28 -12z"/>
<path d="M4972 1665 c-18 -8 -35 -21 -38 -30 -10 -25 -27 -17 -20 10 6 24 4
25 -39 25 l-45 0 0 -140 0 -140 44 0 44 0 4 81 c4 88 14 104 71 116 24 5 27
10 27 44 0 46 -6 51 -48 34z"/>
<path d="M5153 1669 c-91 -27 -130 -144 -75 -227 41 -63 169 -78 235 -28 17
13 17 15 0 44 -17 28 -20 29 -43 16 -80 -44 -162 32 -109 100 18 23 28 27 58
24 20 -3 43 -8 51 -12 11 -4 21 3 33 23 17 30 17 30 -6 46 -30 19 -103 27
-144 14z"/>
<path d="M5813 1670 c-68 -21 -107 -105 -84 -182 29 -95 143 -134 243 -82 27
14 27 14 10 44 -11 20 -22 28 -32 24 -42 -17 -91 -16 -110 1 -11 10 -20 22
-20 27 0 4 41 8 90 8 l90 0 0 30 c0 44 -24 96 -54 115 -31 21 -91 27 -133 15z
m81 -76 c23 -22 11 -34 -35 -34 -42 0 -44 2 -29 31 13 23 43 25 64 3z"/>
<path d="M1300 1530 l0 -140 45 0 45 0 0 140 0 140 -45 0 -45 0 0 -140z"/>
<path d="M1710 1560 c0 -61 5 -120 11 -134 21 -45 118 -59 150 -20 15 18 29
18 29 -1 0 -11 12 -15 45 -15 l45 0 0 140 0 140 -50 0 -50 0 0 -83 c0 -93 -16
-122 -62 -115 -22 3 -23 7 -26 101 l-3 97 -44 0 -45 0 0 -110z"/>
<path d="M2610 1624 c0 -43 -1 -45 -22 -37 -41 14 -79 7 -105 -19 -21 -21 -25
-35 -25 -78 0 -82 53 -123 121 -94 17 7 31 9 31 4 0 -6 9 -10 20 -10 19 0 20
7 20 140 0 133 -1 140 -20 140 -17 0 -20 -7 -20 -46z m-20 -84 c37 -37 13
-120 -35 -120 -8 0 -25 10 -36 21 -17 17 -20 29 -15 58 9 58 50 77 86 41z"/>
<path d="M2783 1593 c-12 -2 -34 -18 -48 -34 -40 -48 -30 -122 20 -155 47 -31
152 -14 138 22 -3 9 -12 13 -22 9 -45 -18 -69 -17 -90 4 -34 34 -26 41 49 41
l70 0 0 29 c0 55 -57 96 -117 84z m51 -39 c9 -3 16 -15 16 -25 0 -16 -8 -19
-45 -19 -48 0 -55 9 -29 34 16 17 33 20 58 10z"/>
<path d="M1840 895 l0 -195 103 0 c89 0 110 3 148 23 105 56 125 236 34 316
-45 39 -91 51 -197 51 l-88 0 0 -195z m209 89 c37 -30 48 -80 32 -135 -14 -48
-42 -67 -101 -71 l-45 -3 -3 104 c-1 58 0 111 2 118 9 24 81 16 115 -13z"/>
<path d="M2350 1058 c-27 -44 -26 -48 13 -48 27 0 40 8 66 40 l32 40 -46 0
c-40 0 -47 -3 -65 -32z"/>
<path d="M3150 921 c0 -162 1 -171 23 -195 14 -17 37 -28 65 -32 l42 -7 0 39
c0 28 -6 43 -20 52 -19 11 -20 23 -20 162 l0 150 -45 0 -45 0 0 -169z"/>
<path d="M5847 1053 c-4 -3 -7 -24 -7 -45 0 -27 -4 -38 -15 -38 -10 0 -15 -11
-15 -35 0 -24 5 -35 15 -35 12 0 15 -13 15 -59 0 -103 27 -138 110 -143 45 -3
45 -3 48 32 2 31 -1 37 -30 50 -30 14 -33 19 -36 68 l-3 52 30 0 c29 0 31 3
31 34 0 30 -3 35 -27 38 -25 3 -28 7 -31 46 -3 41 -4 42 -41 42 -21 0 -41 -3
-44 -7z"/>
<path d="M1370 851 c0 -135 2 -142 48 -155 19 -6 22 -4 22 18 0 14 -4 26 -10
26 -6 0 -10 47 -10 120 l0 120 -25 0 -25 0 0 -129z"/>
<path d="M2290 967 c-40 -20 -70 -74 -70 -127 0 -115 113 -181 230 -134 22 9
40 18 40 21 0 2 -7 17 -15 33 -15 29 -15 29 -55 15 -47 -16 -83 -8 -100 25
-10 19 -8 20 80 20 l90 0 0 46 c0 39 -5 51 -34 80 -30 30 -40 34 -87 34 -30 0
-65 -6 -79 -13z m91 -57 c34 -19 23 -40 -21 -40 -43 0 -55 20 -22 39 21 13 20
13 43 1z"/>
<path d="M2512 968 c3 -7 24 -71 48 -141 l43 -128 60 3 60 3 44 130 c23 71 43
133 43 138 0 4 -21 7 -47 5 l-47 -3 -25 -92 c-14 -51 -29 -93 -33 -93 -5 0 -8
6 -8 13 0 6 -10 49 -22 95 l-23 82 -48 0 c-35 0 -48 -4 -45 -12z"/>
<path d="M2900 967 c-40 -20 -70 -74 -70 -127 0 -115 113 -181 230 -134 22 9
40 18 40 21 0 2 -7 17 -15 33 -15 29 -15 29 -55 15 -47 -16 -83 -8 -100 25
-10 19 -8 20 80 20 l90 0 0 46 c0 39 -5 51 -34 80 -30 30 -40 34 -87 34 -30 0
-65 -6 -79 -13z m91 -57 c34 -19 23 -40 -21 -40 -43 0 -55 20 -22 39 21 13 20
13 43 1z"/>
<path d="M3383 964 c-18 -9 -42 -32 -54 -51 -29 -47 -23 -131 12 -169 51 -55
131 -68 207 -34 74 34 103 137 57 207 -40 60 -149 83 -222 47z m127 -74 c26
-26 26 -81 0 -105 -65 -58 -149 38 -88 102 26 28 61 30 88 3z"/>
<path d="M3672 783 l3 -198 45 0 45 0 3 62 c3 62 3 62 28 53 60 -23 129 3 159
59 31 61 12 171 -36 205 -30 20 -108 21 -137 0 -20 -14 -22 -14 -22 0 0 12
-11 16 -45 16 l-45 0 2 -197z m188 107 c30 -30 27 -83 -6 -109 -32 -25 -36
-26 -63 -3 -32 26 -37 72 -11 105 25 32 52 35 80 7z"/>
<path d="M4020 780 l0 -200 45 0 45 0 0 66 c0 59 2 65 18 58 71 -31 143 -6
173 59 33 74 19 152 -36 195 -34 27 -104 30 -140 6 -23 -15 -25 -15 -25 0 0
12 -10 16 -40 16 l-40 0 0 -200z m185 110 c27 -30 25 -88 -4 -111 -29 -24 -32
-24 -65 2 -33 26 -36 79 -6 109 26 26 52 25 75 0z"/>
<path d="M4402 955 c-40 -34 -55 -75 -50 -135 10 -105 117 -158 228 -114 22 9
40 18 40 21 0 7 -30 63 -34 63 -2 0 -20 -7 -39 -15 -20 -8 -44 -12 -54 -8 -23
8 -53 33 -53 45 0 4 41 8 91 8 l92 0 -5 52 c-4 42 -11 57 -37 80 -27 24 -40
28 -90 28 -49 0 -65 -5 -89 -25z m109 -45 c34 -19 23 -40 -21 -40 -43 0 -55
20 -22 39 21 13 20 13 43 1z"/>
<path d="M4670 840 l0 -140 45 0 45 0 0 64 c0 82 15 124 47 132 36 9 43 -8 43
-108 l0 -88 45 0 45 0 0 78 c0 88 17 125 53 120 21 -3 22 -9 25 -100 l3 -98
44 0 45 0 0 114 c0 99 -3 117 -21 140 -26 34 -93 37 -132 6 l-26 -21 -21 21
c-28 28 -96 27 -127 -2 l-23 -21 0 21 c0 19 -5 22 -45 22 l-45 0 0 -140z"/>
<path d="M5204 948 c-81 -75 -59 -205 41 -244 52 -19 121 -15 160 10 24 16 25
18 10 46 -18 35 -13 34 -58 15 -20 -8 -44 -12 -54 -8 -23 8 -53 33 -53 45 0 4
41 8 90 8 l90 0 0 35 c0 81 -46 125 -132 125 -52 0 -62 -4 -94 -32z m120 -44
c26 -25 19 -34 -29 -34 -50 0 -57 11 -23 34 28 20 33 20 52 0z"/>
<path d="M5480 840 l0 -140 45 0 45 0 0 70 c0 80 14 118 47 126 47 12 53 2 53
-101 l0 -95 45 0 45 0 0 114 c0 99 -3 117 -21 140 -17 22 -28 26 -72 26 -38 0
-56 -5 -74 -22 l-23 -21 0 21 c0 19 -5 22 -45 22 l-45 0 0 -140z"/>
<path d="M260 760 c0 -133 1 -140 20 -140 17 0 20 7 20 46 0 40 2 45 18 39 38
-16 53 -17 83 -5 92 39 68 200 -31 200 -20 0 -42 -6 -49 -12 -11 -10 -14 -10
-18 0 -3 6 -13 12 -24 12 -18 0 -19 -9 -19 -140z m140 81 c16 -32 12 -76 -10
-96 -49 -44 -114 33 -76 90 21 31 70 35 86 6z"/>
<path d="M549 872 c-59 -53 -37 -150 40 -173 79 -23 146 24 146 104 0 88 -117
131 -186 69z m125 -34 c33 -46 5 -108 -48 -108 -27 0 -66 42 -66 69 0 33 30
61 65 61 24 0 39 -7 49 -22z"/>
<path d="M801 814 c4 -76 7 -88 28 -105 30 -25 62 -24 95 2 21 17 26 18 26 5
0 -9 8 -16 20 -16 19 0 20 7 20 100 0 93 -1 100 -20 100 -17 0 -20 -7 -20 -49
0 -64 -14 -98 -45 -113 -42 -19 -55 2 -55 88 0 73 0 74 -26 74 l-26 0 3 -86z"/>
<path d="M1080 800 c0 -93 1 -100 20 -100 17 0 20 7 20 39 0 59 18 98 51 111
17 8 29 20 29 31 0 26 -28 24 -57 -3 l-23 -21 0 21 c0 15 -6 22 -20 22 -19 0
-20 -7 -20 -100z"/>
<path d="M1503 885 c-59 -42 -47 -149 20 -181 34 -16 85 -14 115 4 19 12 4 45
-17 36 -40 -17 -69 -16 -90 5 -12 12 -21 25 -21 31 0 5 33 10 73 12 l72 3 -3
30 c-6 47 -38 75 -87 75 -22 0 -50 -7 -62 -15z m91 -31 c26 -25 19 -34 -29
-34 -48 0 -62 19 -27 39 24 15 38 13 56 -5z"/>
<path d="M260 145 c0 -120 2 -145 15 -145 10 0 15 16 17 62 l3 63 48 3 c33 2
47 7 47 18 0 10 -13 14 -51 14 l-50 0 3 48 3 47 58 3 c42 2 57 7 57 17 0 12
-16 15 -75 15 l-75 0 0 -145z"/>
<path d="M790 146 c0 -121 2 -146 15 -146 10 0 15 15 17 58 3 56 3 57 35 60
30 3 34 0 63 -57 22 -44 36 -61 50 -61 19 0 19 4 -10 60 l-31 61 21 26 c26 34
27 94 0 118 -13 12 -42 19 -90 23 l-70 5 0 -147z m130 94 c24 -24 25 -38 4
-68 -12 -17 -25 -22 -60 -22 l-44 0 0 48 c0 27 3 52 7 55 14 15 74 6 93 -13z"/>
<path d="M1435 281 c-3 -6 -24 -59 -45 -119 -21 -59 -43 -119 -49 -135 -9 -24
-8 -27 8 -27 14 0 23 12 33 43 l15 42 55 3 56 3 14 -43 c10 -30 21 -44 35 -46
19 -3 17 7 -31 140 -35 97 -56 144 -68 146 -9 2 -19 -2 -23 -7z m43 -101 l21
-60 -45 0 c-24 0 -44 2 -44 5 0 2 6 22 14 42 8 21 17 46 20 56 3 9 7 17 10 17
2 0 13 -27 24 -60z"/>
<path d="M1940 145 c0 -138 1 -145 20 -145 19 0 20 7 20 112 l0 112 77 -112
c107 -156 113 -154 113 33 0 140 -1 145 -21 145 -19 0 -20 -5 -17 -110 2 -61
1 -110 -2 -110 -3 1 -38 50 -79 110 -104 155 -111 152 -111 -35z"/>
<path d="M2640 283 c-49 -19 -90 -83 -90 -140 0 -105 118 -175 213 -127 41 21
38 18 31 37 -5 14 -10 13 -40 -5 -76 -45 -164 8 -164 98 0 39 5 51 34 80 38
38 77 44 126 19 34 -18 52 -2 27 23 -16 16 -109 27 -137 15z"/>
<path d="M3150 145 l0 -145 85 0 c68 0 85 3 85 15 0 11 -16 15 -67 17 l-68 3
-3 48 -3 47 55 0 c42 0 56 4 56 14 0 11 -15 16 -52 18 l-53 3 0 45 0 45 63 3
c46 2 62 7 62 17 0 12 -17 15 -80 15 l-80 0 0 -145z"/>
</g>
</svg>
