<svg xmlns="http://www.w3.org/2000/svg" width="1146" height="1110" viewBox="0 0 1146 1110" version="1.1"><path d="M 52 1.433 C 36.717 5.692, 25.087 16.725, 20.078 31.718 C 18.031 37.844, 18 39.385, 18.005 134.718 C 18.009 225.419, 18.132 232.332, 19.957 244.737 C 27.772 297.855, 55.187 346.242, 96.678 380.145 C 127.175 405.066, 167.149 422.030, 206.974 426.953 C 217.858 428.298, 246.572 428.303, 256.678 426.962 C 311.316 419.708, 360.017 393.735, 395.106 353.137 L 400.606 346.773 408.553 355.548 C 438.156 388.237, 475.713 410.863, 517.238 421.024 C 549.916 429.021, 586.957 429.141, 618.920 421.353 C 701.731 401.177, 765.839 332.594, 779.558 249.503 C 780.375 244.551, 781.685 229.925, 782.467 217 C 783.589 198.474, 784.419 191.489, 786.387 184 C 804.577 114.798, 875.474 75.471, 943 97.126 C 953.420 100.468, 968.889 108.541, 978.061 115.425 C 1002.465 133.740, 1018.216 158.448, 1025.602 190 C 1027.184 196.755, 1027.419 206.642, 1027.969 289.500 C 1028.635 389.884, 1028.249 383.858, 1034.821 396.438 C 1042.305 410.763, 1058.846 423.032, 1074.775 426.072 C 1083.389 427.716, 1097.932 426.786, 1105.839 424.085 C 1123.256 418.134, 1137.569 403.525, 1143.010 386.145 C 1146.053 376.427, 1145.856 375.656, 1139.176 371.119 C 1129.651 364.651, 1125.242 358.663, 1121.417 347 C 1119.770 341.978, 1119.557 335.029, 1118.964 267 C 1118.255 185.700, 1118.172 184.437, 1111.943 160.278 C 1093.770 89.798, 1040.185 32.863, 971 10.525 C 859.137 -25.593, 739.538 34.955, 702.432 146.490 C 695.377 167.698, 692.664 183.957, 691.502 212 C 690.221 242.895, 682.561 266.188, 666.805 287.098 C 643.517 318.004, 607.525 336, 569 336 C 501.154 336, 446.786 281.768, 446.695 214 C 446.614 154.130, 486.873 105.752, 547.500 92.866 C 550.800 92.164, 560.250 91.575, 568.500 91.556 C 585.047 91.517, 593.144 92.823, 609.146 98.109 C 617.533 100.879, 619.482 101.160, 628 100.818 C 636.172 100.491, 638.471 99.982, 644.443 97.181 C 659.900 89.931, 668.847 77.893, 670.961 61.500 C 673.213 44.042, 664.164 25.041, 649.508 16.452 C 641.553 11.790, 620.246 5.540, 601.986 2.512 C 588.365 0.253, 563.796 -0.492, 549.337 0.916 C 460.822 9.533, 386.808 71.016, 362.977 155.723 C 358.304 172.333, 356.047 186.792, 354.973 207 C 354.432 217.175, 353.493 228.875, 352.886 233 C 348.390 263.546, 331.041 292.712, 306.146 311.574 C 295.228 319.845, 276.396 329.186, 264 332.478 C 201.197 349.157, 136.005 314.231, 115.647 253 C 109.397 234.202, 109.692 239.651, 109.070 131.477 L 108.500 32.455 105.302 25.961 C 97.436 9.985, 81.149 -0.130, 63.645 0.089 C 59.715 0.139, 54.475 0.743, 52 1.433 M 890.645 155.523 C 887.425 156.336, 881.790 158.578, 878.123 160.504 C 847.629 176.529, 838.171 214.736, 857.632 243.282 C 873.524 266.591, 903.853 274.486, 929.500 261.991 C 939.414 257.161, 945.392 252.046, 951.368 243.282 C 969.632 216.492, 962.420 180.076, 935.482 163.063 C 926.073 157.120, 918.278 154.786, 906.500 154.385 C 899.917 154.160, 894.499 154.549, 890.645 155.523 M 1086.881 505.750 C 1084.293 512.407, 1080 524.179, 1080 524.618 C 1080 524.883, 1082.555 524.965, 1085.678 524.800 L 1091.357 524.500 1098.128 514.500 C 1101.852 509, 1104.922 504.163, 1104.950 503.750 C 1104.977 503.337, 1101.164 503, 1096.475 503 C 1088.101 503, 1087.932 503.049, 1086.881 505.750 M 750.630 534.635 C 734.960 539.447, 727.136 554.797, 732.543 570.121 C 735.848 579.490, 743.425 584.010, 759.991 586.499 C 774.335 588.653, 776 589.876, 776 598.260 C 776 601.530, 775.425 603.184, 773.750 604.736 C 768.070 610, 754.121 610.061, 744.246 604.866 L 738.617 601.905 733.113 607.408 C 727.671 612.851, 727.631 612.934, 729.482 614.980 C 730.512 616.118, 734.087 618.388, 737.427 620.024 C 757.053 629.639, 783.588 624.520, 791.179 609.653 C 795.948 600.314, 794.310 585.787, 787.724 579.008 C 783.269 574.424, 778.220 572.446, 766.120 570.547 C 760.411 569.650, 754.486 568.269, 752.954 567.476 C 746.742 564.264, 747.301 553.964, 753.872 550.566 C 759.974 547.411, 774.102 549.068, 779.017 553.515 C 780.429 554.793, 781.258 554.297, 786.400 549.101 L 792.192 543.248 788.846 540.750 C 787.006 539.375, 784.396 537.680, 783.046 536.981 C 775.322 532.984, 759.689 531.853, 750.630 534.635 M 15 566.962 C 15 606.076, 15.255 607.377, 24.607 615.924 C 34.036 624.541, 46.327 626.996, 59.569 622.906 C 65.168 621.177, 67.331 619.828, 71.998 615.156 C 80.878 606.266, 81 605.614, 81 566.822 L 81 534 72 534 L 63 534 62.996 566.250 C 62.993 596.452, 62.869 598.703, 61.044 601.696 C 58.051 606.604, 54.463 608.467, 48 608.467 C 41.537 608.467, 37.949 606.604, 34.956 601.696 C 33.131 598.703, 33.007 596.452, 33.004 566.250 L 33 534 24 534 L 15 534 15 566.962 M 146 579 L 146 624 154.984 624 L 163.968 624 164.234 596.950 L 164.500 569.900 181.950 596.950 L 199.400 624 207.700 624 L 216 624 216 579 L 216 534 206.516 534 L 197.033 534 196.766 560.404 L 196.500 586.809 179.500 560.416 L 162.500 534.024 154.250 534.012 L 146 534 146 579 M 282 579 L 282 624 291 624 L 300 624 300 579 L 300 534 291 534 L 282 534 282 579 M 356.335 535.430 C 356.637 536.217, 363.314 556.484, 371.173 580.469 L 385.463 624.078 392.346 623.789 L 399.229 623.500 413.928 579 L 428.627 534.500 419.647 534.210 C 414.628 534.048, 410.410 534.345, 410.084 534.883 C 409.763 535.412, 405.707 548.265, 401.072 563.444 C 396.436 578.622, 392.356 590.576, 392.004 590.006 C 391.652 589.436, 387.569 576.605, 382.932 561.492 L 374.500 534.014 365.143 534.007 C 357.438 534.001, 355.883 534.252, 356.335 535.430 M 485 579 L 485 624 515 624 L 545 624 545 616 L 545 608 524 608 L 503 608 503 597.523 L 503 587.046 520.750 586.773 L 538.500 586.500 538.500 578.500 L 538.500 570.500 520.750 570.227 L 503 569.954 503 559.997 L 503 550.041 523.750 549.770 L 544.500 549.500 544.792 541.750 L 545.084 534 515.042 534 L 485 534 485 579 M 607 579 L 607 624 616 624 L 625 624 625 606 L 625 588 631.254 588 L 637.509 588 646.171 606 L 654.833 624 665.503 624 L 676.172 624 672.699 617.750 C 668.005 609.305, 656.554 586.675, 656.524 585.784 C 656.511 585.391, 658.598 583.738, 661.162 582.112 C 674.304 573.778, 675.761 553.666, 664.071 541.976 C 656.830 534.735, 653.537 534, 628.322 534 L 607 534 607 579 M 856 579 L 856 624 865 624 L 874 624 874 579 L 874 534 865 534 L 856 534 856 579 M 933.208 541.750 L 933.500 549.500 945.250 549.782 L 957 550.063 957 587.032 L 957 624 966 624 L 975 624 975 587.032 L 975 550.063 986.750 549.782 L 998.500 549.500 998.792 541.750 L 999.084 534 966 534 L 932.916 534 933.208 541.750 M 1058 579 L 1058 624 1088 624 L 1118 624 1118 616 L 1118 608 1097 608 L 1076 608 1076 597.523 L 1076 587.046 1093.750 586.773 L 1111.500 586.500 1111.500 578.500 L 1111.500 570.500 1093.750 570.227 L 1076 569.954 1076 559.997 L 1076 550.041 1096.750 549.770 L 1117.500 549.500 1117.792 541.750 L 1118.084 534 1088.042 534 L 1058 534 1058 579 M 625 561.500 L 625 573 635.250 572.996 C 646.653 572.992, 651.165 571.327, 653.025 566.434 C 655.007 561.222, 654.226 557.026, 650.600 553.400 L 647.200 550 636.100 550 L 625 550 625 561.500 M 63.757 671.040 C 45.099 674.156, 27.244 686.543, 20.010 701.392 C 13.855 714.024, 13.500 716.975, 13.501 755.500 C 13.502 786.471, 13.714 791.248, 15.343 797 C 18.464 808.021, 21.947 813.992, 29.975 822.091 C 42.294 834.517, 55.940 840, 74.550 840 C 100.461 840, 119.168 828.998, 129.840 807.483 C 132.681 801.754, 136 791.046, 136 787.606 C 136 786.196, 133.983 786, 119.510 786 L 103.020 786 99.961 792.746 C 94.726 804.292, 88.418 808.947, 76.884 809.775 C 67.893 810.420, 61.030 808.082, 55.406 802.459 C 48.361 795.413, 47.713 792.028, 47.241 759.783 C 46.705 723.127, 48.013 715.049, 55.658 707.809 C 64.607 699.334, 82.978 698.519, 92.041 706.195 C 95.156 708.834, 99.070 714.849, 100.608 719.363 L 102.188 724 119.094 724 C 138.590 724, 137.417 724.843, 133.902 713.355 C 127.538 692.557, 112.525 677.730, 92.500 672.466 C 85.537 670.636, 70.613 669.895, 63.757 671.040 M 178 739.790 C 178 814.424, 178.019 814.679, 184.142 824.221 C 190.884 834.727, 201.281 839, 220.105 839 L 232 839 232 825.500 L 232 812 224.450 812 C 215.971 812, 211.594 810.349, 210.641 806.790 C 210.303 805.531, 210.021 774.688, 210.014 738.250 L 210 672 194 672 L 178 672 178 739.790 M 1063 702 L 1063 720 1057 720 L 1051 720 1051 732 L 1051 744 1056.929 744 L 1062.858 744 1063.207 777.750 C 1063.544 810.365, 1063.634 811.702, 1065.902 817.500 C 1067.575 821.776, 1069.904 825.130, 1074.010 829.174 C 1081.853 836.900, 1088.500 839, 1105.105 839 L 1117 839 1117 825.500 L 1117 812 1109.056 812 C 1102.101 812, 1100.762 811.700, 1098.306 809.588 L 1095.500 807.175 1095.210 775.588 L 1094.919 744 1105.960 744 L 1117 744 1117 732 L 1117 720 1106 720 L 1095 720 1095 702 L 1095 684 1079 684 L 1063 684 1063 702 M 301.500 716.496 C 282.270 721.744, 269.636 735.368, 264.310 756.600 C 261.717 766.939, 261.968 790.874, 264.777 801.154 C 267.608 811.512, 271.212 818.287, 277.338 824.763 C 283.162 830.921, 288.043 834.054, 296.580 837.110 C 304.934 840.102, 326.768 840.931, 336.006 838.607 C 345.089 836.323, 354.050 831.577, 360.571 825.597 L 366.130 820.500 356.655 811.109 L 347.180 801.719 342.840 805.235 C 335.688 811.029, 332.284 812.325, 323 812.791 C 312.079 813.338, 306.962 811.928, 301.462 806.858 C 297.213 802.942, 294.740 798.034, 293.598 791.250 L 293.050 788 331.149 788 L 369.248 788 368.763 773.250 C 368.362 761.053, 367.841 757.160, 365.747 750.756 C 359.965 733.065, 347.478 721.029, 330.284 716.574 C 322.897 714.659, 308.374 714.620, 301.500 716.496 M 464.734 716.034 C 460.130 717.185, 453.603 720.402, 449.250 723.665 L 446 726.102 446 721.051 L 446 716 430.500 716 L 415 716 415 777.500 L 415 839 430.429 839 L 445.859 839 446.179 798.750 C 446.492 759.470, 446.553 758.401, 448.706 754.376 C 451.309 749.510, 456.085 745.233, 459.827 744.416 C 461.297 744.095, 463.089 743.650, 463.809 743.425 C 466.469 742.597, 474.609 745.187, 478.094 747.971 L 481.688 750.843 493.594 738.855 L 505.500 726.867 502 723.821 C 495.308 717.998, 488.556 715.611, 478 715.338 C 472.775 715.203, 466.806 715.516, 464.734 716.034 M 586.666 717.074 C 580.779 719.099, 573.711 723.040, 572.525 724.959 C 571.192 727.117, 570.500 725.850, 570.500 721.252 L 570.500 716.500 555.250 716.224 L 540 715.948 540 777.474 L 540 839 555.439 839 L 570.878 839 571.189 798.250 L 571.500 757.500 574.293 752.748 C 577.908 746.600, 583.163 743.800, 591.092 743.800 C 599.124 743.800, 604.207 746.768, 607.503 753.382 L 610 758.393 610 798.696 L 610 839 626 839 L 642 839 642.006 799.750 C 642.009 774.199, 642.397 759.112, 643.115 756.523 C 644.731 750.703, 650.379 745.507, 656.500 744.212 C 668.028 741.771, 677.642 747.229, 680.043 757.577 C 680.543 759.735, 680.963 778.938, 680.976 800.250 L 681 839 697.065 839 L 713.131 839 712.775 794.750 C 712.435 752.407, 712.326 750.218, 710.232 743.953 C 704.305 726.212, 691.073 716.278, 672 715.251 C 657.273 714.457, 645.917 717.919, 636.734 726.003 L 632.217 729.979 630.624 727.548 C 628.213 723.870, 620.409 718.917, 613.760 716.848 C 605.758 714.358, 594.285 714.453, 586.666 717.074 M 795.348 716.420 C 786.771 718.500, 778.886 722.977, 772.428 729.431 C 760.639 741.215, 757.500 752.851, 758.250 782 C 758.779 802.574, 760.119 808.835, 765.936 817.900 C 775.269 832.444, 790.163 840, 809.500 840 C 835.425 840, 853.853 826.302, 859.513 802.825 C 863.727 785.344, 861.980 754.965, 856.029 742.249 C 850.200 729.791, 837.707 719.793, 823.907 716.540 C 816.270 714.740, 802.513 714.682, 795.348 716.420 M 957.734 716.088 C 953.194 717.158, 946.674 720.348, 942.250 723.665 L 939 726.102 939 721.051 L 939 716 923.500 716 L 908 716 908 777.500 L 908 839 924 839 L 940 839 940 798.968 C 940 755.959, 940.135 754.694, 945.298 749.172 C 952.286 741.697, 965.615 741.615, 973 749 C 978.655 754.655, 979 757.649, 979 801.049 L 979 839 995.088 839 L 1011.175 839 1010.770 794.250 C 1010.384 751.681, 1010.259 749.183, 1008.207 743 C 1002.207 724.919, 988.146 714.855, 969.229 715.100 C 964.978 715.156, 959.806 715.600, 957.734 716.088 M 310.500 741.898 C 306.408 742.945, 301.845 745.409, 299.786 747.684 C 297.478 750.234, 294.369 757.656, 293.685 762.250 L 293.126 766 315.563 766 C 341.042 766, 339.299 766.737, 336.457 757.167 C 334.700 751.250, 329.949 745.293, 325.516 743.446 C 321.375 741.722, 314.114 740.973, 310.500 741.898 M 805.448 743.940 C 800.094 744.788, 795.431 748.234, 792.885 753.226 C 788.070 762.663, 788.055 792.307, 792.860 801.725 C 796.641 809.137, 803.947 812.835, 812.327 811.578 C 821.075 810.266, 827.004 804.113, 829.059 794.214 C 830.781 785.919, 829.841 760.691, 827.617 755.514 C 823.610 746.187, 816.081 742.256, 805.448 743.940 M 60.649 897.759 C 60.226 898.444, 16.351 1018.716, 3.919 1053.273 L 0.043 1064.046 17.639 1063.773 L 35.234 1063.500 40.230 1049.235 L 45.226 1034.970 74.280 1035.235 L 103.333 1035.500 107.999 1049.500 L 112.666 1063.500 130.333 1063.773 C 140.050 1063.923, 147.987 1063.923, 147.972 1063.773 C 147.957 1063.623, 134.285 1026.150, 117.590 980.500 L 87.236 897.500 74.195 897.222 C 67.022 897.068, 60.926 897.310, 60.649 897.759 M 494.100 942.048 C 467.792 948.937, 453.284 973.971, 455.336 1008.936 C 457.126 1039.450, 469.694 1057.156, 494.207 1063.699 C 502.972 1066.039, 522.408 1065.983, 530.448 1063.596 C 539.514 1060.903, 547.275 1056.589, 553.520 1050.770 L 559.176 1045.500 549.315 1036.384 L 539.454 1027.269 535.650 1030.557 C 530.656 1034.874, 526.232 1036.899, 519.232 1038.070 C 505.812 1040.316, 494.627 1035.720, 489.859 1026 C 488.376 1022.975, 486.929 1018.813, 486.644 1016.750 L 486.126 1013 524.063 1013 L 562 1013 562 1000.660 C 562 985.985, 559.905 976.418, 554.397 965.936 C 543.671 945.525, 518.660 935.616, 494.100 942.048 M 656 941.405 C 648.925 943.534, 646.167 944.789, 641.480 948.014 L 637.110 951.020 636.805 946.260 L 636.500 941.500 621.250 941.224 L 606 940.948 606 1002.474 L 606 1064 621.438 1064 L 636.877 1064 637.188 1023.750 C 637.494 984.270, 637.543 983.420, 639.741 979.308 C 640.973 977.002, 643.638 973.852, 645.663 972.308 C 648.911 969.830, 650.193 969.500, 656.560 969.500 C 663.077 969.500, 664.206 969.809, 668.215 972.688 L 672.655 975.876 684.347 964.153 L 696.039 952.430 692.770 949.269 C 687.171 943.856, 678.984 940.783, 669.120 940.393 C 663.776 940.181, 658.790 940.565, 656 941.405 M 748.176 941.007 C 732.318 944.359, 721.723 955.366, 717.863 972.500 C 715.791 981.698, 716.078 1019.438, 718.288 1028.271 C 723.364 1048.566, 737.027 1059, 758.529 1059 C 767.345 1059, 774.329 1056.989, 780.923 1052.552 L 786 1049.135 786 1056.702 C 786 1066.662, 784.415 1071.536, 779.527 1076.610 C 774.983 1081.327, 770.406 1082.986, 761.909 1082.994 C 754.484 1083.002, 747.608 1080.823, 742.759 1076.927 L 738.795 1073.741 728.842 1083.621 L 718.889 1093.500 723.193 1097.357 C 728.001 1101.664, 732.737 1104.296, 740.952 1107.225 C 749.075 1110.120, 768.255 1110.811, 778.325 1108.571 C 793.399 1105.217, 805.178 1096.685, 811.725 1084.377 C 817.906 1072.756, 817.969 1071.944, 817.985 1003.191 L 818 940.882 802.750 941.191 L 787.500 941.500 787.195 946.253 L 786.890 951.006 783.195 948.049 C 776.810 942.938, 770.492 940.759, 761.046 940.410 C 756.346 940.236, 750.554 940.505, 748.176 941.007 M 917.265 941.542 C 911.112 943.198, 902.924 947.182, 901.065 949.422 C 898.827 952.119, 898 951.189, 898 945.974 L 898 940.948 882.750 941.224 L 867.500 941.500 867.242 1002.750 L 866.985 1064 882.950 1064 L 898.916 1064 899.208 1023.250 L 899.500 982.500 902 978.070 C 908.205 967.075, 926.782 965.705, 933.763 975.727 C 937.784 981.501, 938 983.993, 938 1024.649 L 938 1064 954 1064 L 970 1064 969.992 1022.750 C 969.988 999.168, 969.541 978.716, 968.948 975 C 966.917 962.262, 958.803 950.001, 949.144 945.073 C 939.552 940.180, 927.342 938.828, 917.265 941.542 M 1052.263 941.447 C 1033.990 945.613, 1020.070 959.789, 1014.406 980 C 1011.920 988.870, 1011.395 1011.906, 1013.447 1022.034 C 1017.122 1040.174, 1026.150 1053.163, 1039.451 1059.450 C 1049.425 1064.164, 1055.838 1065.456, 1069 1065.403 C 1087.088 1065.331, 1098.874 1061.202, 1110.164 1050.983 L 1115.500 1046.153 1106.086 1036.643 L 1096.673 1027.134 1092.507 1030.548 C 1085.463 1036.320, 1079.677 1038.321, 1070 1038.332 C 1064.578 1038.339, 1060.233 1037.792, 1058 1036.823 C 1049.925 1033.317, 1044.540 1026.217, 1043.345 1017.503 L 1042.728 1013 1080.997 1013 L 1119.266 1013 1118.715 999.250 C 1118.409 991.589, 1117.461 982.919, 1116.575 979.672 C 1109.975 955.482, 1092.603 941.444, 1068 940.420 C 1061.980 940.170, 1056.215 940.546, 1052.263 941.447 M 180.692 941.642 C 180.311 942.022, 180.007 961.496, 180.015 984.917 C 180.031 1030.819, 180.403 1034.942, 185.431 1044.864 C 188.514 1050.948, 195.510 1058.199, 200.998 1060.999 C 214.722 1068, 233.758 1066.767, 246.418 1058.057 L 251 1054.904 251 1059.452 L 251 1064 266.500 1064 L 282 1064 282 1002.500 L 282 941 266.500 941 L 251 941 251 978.951 C 251 1019.777, 250.505 1025.057, 246.202 1030.171 C 237.717 1040.256, 220.353 1038.810, 214.148 1027.502 C 212.717 1024.895, 212.434 1019.034, 212 983 L 211.500 941.500 196.442 941.225 C 188.160 941.074, 181.072 941.261, 180.692 941.642 M 315.968 941.693 C 315.951 942.137, 325.964 969.832, 338.218 1003.238 L 360.500 1063.976 373.009 1063.988 L 385.517 1064 407.768 1003.250 C 420.005 969.837, 430.014 942.163, 430.009 941.750 C 430.004 941.337, 422.625 941, 413.611 941 L 397.222 941 387.202 971.750 C 381.690 988.663, 376.385 1005.082, 375.412 1008.238 C 374.439 1011.394, 373.385 1013.723, 373.071 1013.414 C 372.757 1013.106, 367.100 996.799, 360.500 977.177 L 348.500 941.500 332.250 941.193 C 323.313 941.024, 315.986 941.249, 315.968 941.693 M 65.094 976.329 C 59.926 991.273, 55.492 1004.063, 55.242 1004.750 C 54.887 1005.723, 59.116 1006, 74.316 1006 L 93.846 1006 84.455 977.865 C 79.290 962.391, 74.935 949.601, 74.777 949.444 C 74.620 949.286, 70.262 961.385, 65.094 976.329 M 498.121 969.169 C 493.164 971.623, 488.382 978.220, 487.425 983.927 C 487.095 985.892, 486.609 988.288, 486.345 989.250 C 485.898 990.879, 487.424 991, 508.433 991 C 533.970 991, 532.307 991.660, 529.584 982.614 C 526.491 972.337, 519.357 967.061, 508.500 967.023 C 504.325 967.008, 501.168 967.661, 498.121 969.169 M 1055.384 968.860 C 1050.389 971.193, 1046.316 976.300, 1044.416 982.614 C 1041.694 991.657, 1040.047 991, 1065.437 991 L 1087.874 991 1087.341 987.250 C 1086.403 980.650, 1082.174 973.144, 1077.742 970.210 C 1072.307 966.614, 1061.582 965.966, 1055.384 968.860 M 758.020 970.697 C 750.739 974.469, 748 982.343, 748 999.500 C 748 1021.760, 753.057 1030.009, 766.838 1030.229 C 781.370 1030.460, 786.611 1021.026, 785.833 996.039 C 785.493 985.146, 785.113 982.819, 782.971 978.540 C 779.492 971.589, 776.394 969.634, 768.218 969.228 C 763.197 968.978, 760.621 969.349, 758.020 970.697" stroke="none" fill="#39727c" fill-rule="evenodd"/><path d="M 0.044 531.750 L 0.088 1063.500 30.315 980.500 L 60.542 897.500 73.887 897.500 L 87.233 897.500 117.589 980.500 C 134.284 1026.150, 147.957 1063.623, 147.972 1063.773 C 147.987 1063.923, 140.050 1063.923, 130.333 1063.773 L 112.666 1063.500 107.999 1049.500 L 103.333 1035.500 74.280 1035.235 L 45.226 1034.970 40.230 1049.235 L 35.234 1063.500 17.617 1063.773 L -0 1064.046 -0 1087.023 L 0 1110 375.750 1109.864 C 582.413 1109.789, 750.375 1109.539, 749 1109.309 C 740.046 1107.810, 729.307 1102.837, 723.194 1097.359 L 718.889 1093.500 728.842 1083.621 L 738.795 1073.741 742.759 1076.927 C 747.608 1080.823, 754.484 1083.002, 761.909 1082.994 C 770.406 1082.986, 774.983 1081.327, 779.527 1076.610 C 784.415 1071.536, 786 1066.662, 786 1056.702 L 786 1049.135 780.923 1052.552 C 774.329 1056.989, 767.345 1059, 758.529 1059 C 745.519 1059, 734.643 1054.775, 727.608 1046.988 C 719.740 1038.279, 717.159 1029.021, 716.318 1006.495 C 715.118 974.367, 719.522 957.801, 731.744 948.469 C 739.304 942.697, 745.993 940.689, 758 940.588 C 769.945 940.488, 775.206 941.984, 782.511 947.560 L 786.894 950.906 787.197 946.203 L 787.500 941.500 802.750 941.191 L 818 940.882 817.985 1003.191 C 817.969 1071.944, 817.906 1072.756, 811.725 1084.377 C 805.483 1096.111, 794.715 1104.331, 780.809 1107.976 C 773.540 1109.882, 774.527 1109.892, 960 1109.696 L 1146.500 1109.500 1146.752 554.750 L 1147.005 -0 1032.752 0.133 C 962.714 0.214, 921.789 0.597, 927 1.121 C 1015.087 9.979, 1089.759 74.240, 1111.943 160.278 C 1118.172 184.437, 1118.255 185.700, 1118.964 267 C 1119.557 335.029, 1119.770 341.978, 1121.417 347 C 1125.242 358.663, 1129.651 364.651, 1139.176 371.119 C 1145.856 375.656, 1146.053 376.427, 1143.010 386.145 C 1137.569 403.525, 1123.256 418.134, 1105.839 424.085 C 1097.932 426.786, 1083.389 427.716, 1074.775 426.072 C 1058.846 423.032, 1042.305 410.763, 1034.821 396.438 C 1028.249 383.858, 1028.635 389.884, 1027.969 289.500 C 1027.303 189.156, 1027.565 193.707, 1021.358 175 C 1007.704 133.854, 972.126 102.450, 929.007 93.484 C 866.154 80.413, 803.096 120.434, 786.387 184 C 784.419 191.489, 783.589 198.474, 782.467 217 C 780.937 242.276, 779.483 253.074, 775.595 268.036 C 772.001 281.871, 767.471 293.816, 760.441 308 C 728.767 371.905, 667.882 415.714, 597.216 425.446 C 582.837 427.426, 555.584 427.458, 540.801 425.512 C 489.984 418.824, 443.663 394.318, 408.553 355.548 L 400.606 346.773 395.106 353.137 C 369.953 382.238, 335.079 405.542, 298.949 417.391 C 275.693 425.018, 256.916 428, 232.151 428 C 206.192 428, 188.420 425.180, 164.595 417.279 C 87.639 391.759, 31.784 325.130, 19.957 244.737 C 18.132 232.332, 18.009 225.419, 18.005 134.718 C 18 39.385, 18.031 37.844, 20.078 31.718 C 25.087 16.725, 36.717 5.692, 52 1.433 C 55.899 0.346, 52.727 0.167, 28.250 0.089 L 0 0 0.044 531.750 M 77.202 1.931 C 89.493 5.860, 99.689 14.561, 105.258 25.872 L 108.500 32.455 109.070 131.477 C 109.692 239.651, 109.397 234.202, 115.647 253 C 128.526 291.735, 160.609 321.823, 200.500 332.575 C 228.933 340.239, 258.703 337.250, 285.500 324.040 C 311.526 311.210, 330.873 291.619, 342.933 265.883 C 350.802 249.092, 353.414 236.316, 354.973 207 C 356.440 179.414, 360.983 157.643, 370.056 134.723 C 387.391 90.934, 420.493 52.698, 461.500 29.097 C 487.539 14.110, 518.066 4.055, 546.500 1.098 C 550.963 0.634, 447.730 0.231, 313 0.187 C 77.946 0.110, 71.652 0.156, 77.202 1.931 M 586.500 0.642 C 613.587 3.729, 638.440 9.966, 649.508 16.452 C 660.155 22.692, 669.179 36.445, 670.863 49 C 672.457 60.886, 669.997 71.646, 663.418 81.557 C 658.826 88.476, 653.298 93.028, 644.443 97.181 C 638.471 99.982, 636.172 100.491, 628 100.818 C 619.482 101.160, 617.533 100.879, 609.146 98.109 C 593.144 92.823, 585.047 91.517, 568.500 91.556 C 552.981 91.592, 547.448 92.386, 533 96.650 C 496.152 107.525, 465.041 137.970, 452.638 175.290 C 443.919 201.528, 444.633 231.590, 454.590 257.370 C 473.053 305.177, 517.901 336, 569 336 C 627.474 336, 677.393 294.884, 688.914 237.234 C 689.998 231.810, 691.144 220.637, 691.502 212 C 692.664 183.957, 695.377 167.698, 702.432 146.490 C 729.018 66.578, 799.814 9.728, 883.500 1.092 C 888.002 0.627, 824.164 0.273, 737.500 0.283 C 652.800 0.292, 584.850 0.454, 586.500 0.642 M 0.496 532 C 0.496 824.325, 0.610 943.913, 0.750 797.750 C 0.890 651.588, 0.890 412.413, 0.750 266.250 C 0.610 120.088, 0.496 239.675, 0.496 532 M 890.645 155.523 C 887.425 156.336, 881.790 158.578, 878.123 160.504 C 847.629 176.529, 838.171 214.736, 857.632 243.282 C 873.524 266.591, 903.853 274.486, 929.500 261.991 C 939.414 257.161, 945.392 252.046, 951.368 243.282 C 969.632 216.492, 962.420 180.076, 935.482 163.063 C 926.073 157.120, 918.278 154.786, 906.500 154.385 C 899.917 154.160, 894.499 154.549, 890.645 155.523 M 1086.881 505.750 C 1084.293 512.407, 1080 524.179, 1080 524.618 C 1080 524.883, 1082.555 524.965, 1085.678 524.800 L 1091.357 524.500 1098.128 514.500 C 1101.852 509, 1104.922 504.163, 1104.950 503.750 C 1104.977 503.337, 1101.164 503, 1096.475 503 C 1088.101 503, 1087.932 503.049, 1086.881 505.750 M 750.630 534.635 C 734.960 539.447, 727.136 554.797, 732.543 570.121 C 735.848 579.490, 743.425 584.010, 759.991 586.499 C 774.335 588.653, 776 589.876, 776 598.260 C 776 601.530, 775.425 603.184, 773.750 604.736 C 768.070 610, 754.121 610.061, 744.246 604.866 L 738.617 601.905 733.113 607.408 C 727.671 612.851, 727.631 612.934, 729.482 614.980 C 730.512 616.118, 734.087 618.388, 737.427 620.024 C 757.053 629.639, 783.588 624.520, 791.179 609.653 C 795.948 600.314, 794.310 585.787, 787.724 579.008 C 783.269 574.424, 778.220 572.446, 766.120 570.547 C 760.411 569.650, 754.486 568.269, 752.954 567.476 C 746.742 564.264, 747.301 553.964, 753.872 550.566 C 759.974 547.411, 774.102 549.068, 779.017 553.515 C 780.429 554.793, 781.258 554.297, 786.400 549.101 L 792.192 543.248 788.846 540.750 C 787.006 539.375, 784.396 537.680, 783.046 536.981 C 775.322 532.984, 759.689 531.853, 750.630 534.635 M 15 566.962 C 15 606.076, 15.255 607.377, 24.607 615.924 C 34.036 624.541, 46.327 626.996, 59.569 622.906 C 65.168 621.177, 67.331 619.828, 71.998 615.156 C 80.878 606.266, 81 605.614, 81 566.822 L 81 534 72 534 L 63 534 62.996 566.250 C 62.993 596.452, 62.869 598.703, 61.044 601.696 C 58.051 606.604, 54.463 608.467, 48 608.467 C 41.537 608.467, 37.949 606.604, 34.956 601.696 C 33.131 598.703, 33.007 596.452, 33.004 566.250 L 33 534 24 534 L 15 534 15 566.962 M 146 579 L 146 624 154.984 624 L 163.968 624 164.234 596.950 L 164.500 569.900 181.950 596.950 L 199.400 624 207.700 624 L 216 624 216 579 L 216 534 206.516 534 L 197.033 534 196.766 560.404 L 196.500 586.809 179.500 560.416 L 162.500 534.024 154.250 534.012 L 146 534 146 579 M 282 579 L 282 624 291 624 L 300 624 300 579 L 300 534 291 534 L 282 534 282 579 M 356.335 535.430 C 356.637 536.217, 363.314 556.484, 371.173 580.469 L 385.463 624.078 392.346 623.789 L 399.229 623.500 413.928 579 L 428.627 534.500 419.647 534.210 C 414.628 534.048, 410.410 534.345, 410.084 534.883 C 409.763 535.412, 405.707 548.265, 401.072 563.444 C 396.436 578.622, 392.356 590.576, 392.004 590.006 C 391.652 589.436, 387.569 576.605, 382.932 561.492 L 374.500 534.014 365.143 534.007 C 357.438 534.001, 355.883 534.252, 356.335 535.430 M 485 579 L 485 624 515 624 L 545 624 545 616 L 545 608 524 608 L 503 608 503 597.523 L 503 587.046 520.750 586.773 L 538.500 586.500 538.500 578.500 L 538.500 570.500 520.750 570.227 L 503 569.954 503 559.997 L 503 550.041 523.750 549.770 L 544.500 549.500 544.792 541.750 L 545.084 534 515.042 534 L 485 534 485 579 M 607 579 L 607 624 616 624 L 625 624 625 606 L 625 588 631.254 588 L 637.509 588 646.171 606 L 654.833 624 665.503 624 L 676.172 624 672.699 617.750 C 668.005 609.305, 656.554 586.675, 656.524 585.784 C 656.511 585.391, 658.598 583.738, 661.162 582.112 C 674.304 573.778, 675.761 553.666, 664.071 541.976 C 656.830 534.735, 653.537 534, 628.322 534 L 607 534 607 579 M 856 579 L 856 624 865 624 L 874 624 874 579 L 874 534 865 534 L 856 534 856 579 M 933.208 541.750 L 933.500 549.500 945.250 549.782 L 957 550.063 957 587.032 L 957 624 966 624 L 975 624 975 587.032 L 975 550.063 986.750 549.782 L 998.500 549.500 998.792 541.750 L 999.084 534 966 534 L 932.916 534 933.208 541.750 M 1058 579 L 1058 624 1088 624 L 1118 624 1118 616 L 1118 608 1097 608 L 1076 608 1076 597.523 L 1076 587.046 1093.750 586.773 L 1111.500 586.500 1111.500 578.500 L 1111.500 570.500 1093.750 570.227 L 1076 569.954 1076 559.997 L 1076 550.041 1096.750 549.770 L 1117.500 549.500 1117.792 541.750 L 1118.084 534 1088.042 534 L 1058 534 1058 579 M 625 561.500 L 625 573 635.250 572.996 C 646.653 572.992, 651.165 571.327, 653.025 566.434 C 655.007 561.222, 654.226 557.026, 650.600 553.400 L 647.200 550 636.100 550 L 625 550 625 561.500 M 63.757 671.040 C 45.099 674.156, 27.244 686.543, 20.010 701.392 C 13.855 714.024, 13.500 716.975, 13.501 755.500 C 13.502 786.471, 13.714 791.248, 15.343 797 C 18.464 808.021, 21.947 813.992, 29.975 822.091 C 42.294 834.517, 55.940 840, 74.550 840 C 100.461 840, 119.168 828.998, 129.840 807.483 C 132.681 801.754, 136 791.046, 136 787.606 C 136 786.196, 133.983 786, 119.510 786 L 103.020 786 99.961 792.746 C 94.726 804.292, 88.418 808.947, 76.884 809.775 C 67.893 810.420, 61.030 808.082, 55.406 802.459 C 48.361 795.413, 47.713 792.028, 47.241 759.783 C 46.705 723.127, 48.013 715.049, 55.658 707.809 C 64.607 699.334, 82.978 698.519, 92.041 706.195 C 95.156 708.834, 99.070 714.849, 100.608 719.363 L 102.188 724 119.094 724 C 138.590 724, 137.417 724.843, 133.902 713.355 C 127.538 692.557, 112.525 677.730, 92.500 672.466 C 85.537 670.636, 70.613 669.895, 63.757 671.040 M 178 739.790 C 178 814.424, 178.019 814.679, 184.142 824.221 C 190.884 834.727, 201.281 839, 220.105 839 L 232 839 232 825.500 L 232 812 224.450 812 C 215.971 812, 211.594 810.349, 210.641 806.790 C 210.303 805.531, 210.021 774.688, 210.014 738.250 L 210 672 194 672 L 178 672 178 739.790 M 1063 702 L 1063 720 1057 720 L 1051 720 1051 732 L 1051 744 1056.929 744 L 1062.858 744 1063.207 777.750 C 1063.544 810.365, 1063.634 811.702, 1065.902 817.500 C 1067.575 821.776, 1069.904 825.130, 1074.010 829.174 C 1081.853 836.900, 1088.500 839, 1105.105 839 L 1117 839 1117 825.500 L 1117 812 1109.056 812 C 1102.101 812, 1100.762 811.700, 1098.306 809.588 L 1095.500 807.175 1095.210 775.588 L 1094.919 744 1105.960 744 L 1117 744 1117 732 L 1117 720 1106 720 L 1095 720 1095 702 L 1095 684 1079 684 L 1063 684 1063 702 M 301.500 716.496 C 282.270 721.744, 269.636 735.368, 264.310 756.600 C 261.717 766.939, 261.968 790.874, 264.777 801.154 C 267.608 811.512, 271.212 818.287, 277.338 824.763 C 283.162 830.921, 288.043 834.054, 296.580 837.110 C 304.934 840.102, 326.768 840.931, 336.006 838.607 C 345.089 836.323, 354.050 831.577, 360.571 825.597 L 366.130 820.500 356.655 811.109 L 347.180 801.719 342.840 805.235 C 335.688 811.029, 332.284 812.325, 323 812.791 C 312.079 813.338, 306.962 811.928, 301.462 806.858 C 297.213 802.942, 294.740 798.034, 293.598 791.250 L 293.050 788 331.149 788 L 369.248 788 368.763 773.250 C 368.362 761.053, 367.841 757.160, 365.747 750.756 C 359.965 733.065, 347.478 721.029, 330.284 716.574 C 322.897 714.659, 308.374 714.620, 301.500 716.496 M 464.734 716.034 C 460.130 717.185, 453.603 720.402, 449.250 723.665 L 446 726.102 446 721.051 L 446 716 430.500 716 L 415 716 415 777.500 L 415 839 430.429 839 L 445.859 839 446.179 798.750 C 446.492 759.470, 446.553 758.401, 448.706 754.376 C 451.309 749.510, 456.085 745.233, 459.827 744.416 C 461.297 744.095, 463.089 743.650, 463.809 743.425 C 466.469 742.597, 474.609 745.187, 478.094 747.971 L 481.688 750.843 493.594 738.855 L 505.500 726.867 502 723.821 C 495.308 717.998, 488.556 715.611, 478 715.338 C 472.775 715.203, 466.806 715.516, 464.734 716.034 M 586.666 717.074 C 580.779 719.099, 573.711 723.040, 572.525 724.959 C 571.192 727.117, 570.500 725.850, 570.500 721.252 L 570.500 716.500 555.250 716.224 L 540 715.948 540 777.474 L 540 839 555.439 839 L 570.878 839 571.189 798.250 L 571.500 757.500 574.293 752.748 C 577.908 746.600, 583.163 743.800, 591.092 743.800 C 599.124 743.800, 604.207 746.768, 607.503 753.382 L 610 758.393 610 798.696 L 610 839 626 839 L 642 839 642.006 799.750 C 642.009 774.199, 642.397 759.112, 643.115 756.523 C 644.731 750.703, 650.379 745.507, 656.500 744.212 C 668.028 741.771, 677.642 747.229, 680.043 757.577 C 680.543 759.735, 680.963 778.938, 680.976 800.250 L 681 839 697.065 839 L 713.131 839 712.775 794.750 C 712.435 752.407, 712.326 750.218, 710.232 743.953 C 704.305 726.212, 691.073 716.278, 672 715.251 C 657.273 714.457, 645.917 717.919, 636.734 726.003 L 632.217 729.979 630.624 727.548 C 628.213 723.870, 620.409 718.917, 613.760 716.848 C 605.758 714.358, 594.285 714.453, 586.666 717.074 M 795.348 716.420 C 786.771 718.500, 778.886 722.977, 772.428 729.431 C 760.639 741.215, 757.500 752.851, 758.250 782 C 758.779 802.574, 760.119 808.835, 765.936 817.900 C 775.269 832.444, 790.163 840, 809.500 840 C 835.425 840, 853.853 826.302, 859.513 802.825 C 863.727 785.344, 861.980 754.965, 856.029 742.249 C 850.200 729.791, 837.707 719.793, 823.907 716.540 C 816.270 714.740, 802.513 714.682, 795.348 716.420 M 957.734 716.088 C 953.194 717.158, 946.674 720.348, 942.250 723.665 L 939 726.102 939 721.051 L 939 716 923.500 716 L 908 716 908 777.500 L 908 839 924 839 L 940 839 940 798.968 C 940 755.959, 940.135 754.694, 945.298 749.172 C 952.286 741.697, 965.615 741.615, 973 749 C 978.655 754.655, 979 757.649, 979 801.049 L 979 839 995.088 839 L 1011.175 839 1010.770 794.250 C 1010.384 751.681, 1010.259 749.183, 1008.207 743 C 1002.207 724.919, 988.146 714.855, 969.229 715.100 C 964.978 715.156, 959.806 715.600, 957.734 716.088 M 310.500 741.898 C 306.408 742.945, 301.845 745.409, 299.786 747.684 C 297.478 750.234, 294.369 757.656, 293.685 762.250 L 293.126 766 315.563 766 C 341.042 766, 339.299 766.737, 336.457 757.167 C 334.700 751.250, 329.949 745.293, 325.516 743.446 C 321.375 741.722, 314.114 740.973, 310.500 741.898 M 805.448 743.940 C 800.094 744.788, 795.431 748.234, 792.885 753.226 C 788.070 762.663, 788.055 792.307, 792.860 801.725 C 796.641 809.137, 803.947 812.835, 812.327 811.578 C 821.075 810.266, 827.004 804.113, 829.059 794.214 C 830.781 785.919, 829.841 760.691, 827.617 755.514 C 823.610 746.187, 816.081 742.256, 805.448 743.940 M 494.100 942.048 C 467.792 948.937, 453.284 973.971, 455.336 1008.936 C 457.126 1039.450, 469.694 1057.156, 494.207 1063.699 C 502.972 1066.039, 522.408 1065.983, 530.448 1063.596 C 539.514 1060.903, 547.275 1056.589, 553.520 1050.770 L 559.176 1045.500 549.315 1036.384 L 539.454 1027.269 535.650 1030.557 C 530.656 1034.874, 526.232 1036.899, 519.232 1038.070 C 505.812 1040.316, 494.627 1035.720, 489.859 1026 C 488.376 1022.975, 486.929 1018.813, 486.644 1016.750 L 486.126 1013 524.063 1013 L 562 1013 562 1000.660 C 562 985.985, 559.905 976.418, 554.397 965.936 C 543.671 945.525, 518.660 935.616, 494.100 942.048 M 656 941.405 C 648.925 943.534, 646.167 944.789, 641.480 948.014 L 637.110 951.020 636.805 946.260 L 636.500 941.500 621.250 941.224 L 606 940.948 606 1002.474 L 606 1064 621.438 1064 L 636.877 1064 637.188 1023.750 C 637.494 984.270, 637.543 983.420, 639.741 979.308 C 640.973 977.002, 643.638 973.852, 645.663 972.308 C 648.911 969.830, 650.193 969.500, 656.560 969.500 C 663.077 969.500, 664.206 969.809, 668.215 972.688 L 672.655 975.876 684.347 964.153 L 696.039 952.430 692.770 949.269 C 687.171 943.856, 678.984 940.783, 669.120 940.393 C 663.776 940.181, 658.790 940.565, 656 941.405 M 917.265 941.542 C 911.112 943.198, 902.924 947.182, 901.065 949.422 C 898.827 952.119, 898 951.189, 898 945.974 L 898 940.948 882.750 941.224 L 867.500 941.500 867.242 1002.750 L 866.985 1064 882.950 1064 L 898.916 1064 899.208 1023.250 L 899.500 982.500 902 978.070 C 908.205 967.075, 926.782 965.705, 933.763 975.727 C 937.784 981.501, 938 983.993, 938 1024.649 L 938 1064 954 1064 L 970 1064 969.992 1022.750 C 969.988 999.168, 969.541 978.716, 968.948 975 C 966.917 962.262, 958.803 950.001, 949.144 945.073 C 939.552 940.180, 927.342 938.828, 917.265 941.542 M 1052.263 941.447 C 1033.990 945.613, 1020.070 959.789, 1014.406 980 C 1011.920 988.870, 1011.395 1011.906, 1013.447 1022.034 C 1017.122 1040.174, 1026.150 1053.163, 1039.451 1059.450 C 1049.425 1064.164, 1055.838 1065.456, 1069 1065.403 C 1087.088 1065.331, 1098.874 1061.202, 1110.164 1050.983 L 1115.500 1046.153 1106.086 1036.643 L 1096.673 1027.134 1092.507 1030.548 C 1085.463 1036.320, 1079.677 1038.321, 1070 1038.332 C 1064.578 1038.339, 1060.233 1037.792, 1058 1036.823 C 1049.925 1033.317, 1044.540 1026.217, 1043.345 1017.503 L 1042.728 1013 1080.997 1013 L 1119.266 1013 1118.715 999.250 C 1118.409 991.589, 1117.461 982.919, 1116.575 979.672 C 1109.975 955.482, 1092.603 941.444, 1068 940.420 C 1061.980 940.170, 1056.215 940.546, 1052.263 941.447 M 180.692 941.642 C 180.311 942.022, 180.007 961.496, 180.015 984.917 C 180.031 1030.819, 180.403 1034.942, 185.431 1044.864 C 188.514 1050.948, 195.510 1058.199, 200.998 1060.999 C 214.722 1068, 233.758 1066.767, 246.418 1058.057 L 251 1054.904 251 1059.452 L 251 1064 266.500 1064 L 282 1064 282 1002.500 L 282 941 266.500 941 L 251 941 251 978.951 C 251 1019.777, 250.505 1025.057, 246.202 1030.171 C 237.717 1040.256, 220.353 1038.810, 214.148 1027.502 C 212.717 1024.895, 212.434 1019.034, 212 983 L 211.500 941.500 196.442 941.225 C 188.160 941.074, 181.072 941.261, 180.692 941.642 M 315.968 941.693 C 315.951 942.137, 325.964 969.832, 338.218 1003.238 L 360.500 1063.976 373.009 1063.988 L 385.517 1064 407.768 1003.250 C 420.005 969.837, 430.014 942.163, 430.009 941.750 C 430.004 941.337, 422.625 941, 413.611 941 L 397.222 941 387.202 971.750 C 381.690 988.663, 376.385 1005.082, 375.412 1008.238 C 374.439 1011.394, 373.385 1013.723, 373.071 1013.414 C 372.757 1013.106, 367.100 996.799, 360.500 977.177 L 348.500 941.500 332.250 941.193 C 323.313 941.024, 315.986 941.249, 315.968 941.693 M 65.094 976.329 C 59.926 991.273, 55.492 1004.063, 55.242 1004.750 C 54.887 1005.723, 59.116 1006, 74.316 1006 L 93.846 1006 84.455 977.865 C 79.290 962.391, 74.935 949.601, 74.777 949.444 C 74.620 949.286, 70.262 961.385, 65.094 976.329 M 498.121 969.169 C 493.164 971.623, 488.382 978.220, 487.425 983.927 C 487.095 985.892, 486.609 988.288, 486.345 989.250 C 485.898 990.879, 487.424 991, 508.433 991 C 533.970 991, 532.307 991.660, 529.584 982.614 C 526.491 972.337, 519.357 967.061, 508.500 967.023 C 504.325 967.008, 501.168 967.661, 498.121 969.169 M 1055.384 968.860 C 1050.389 971.193, 1046.316 976.300, 1044.416 982.614 C 1041.694 991.657, 1040.047 991, 1065.437 991 L 1087.874 991 1087.341 987.250 C 1086.403 980.650, 1082.174 973.144, 1077.742 970.210 C 1072.307 966.614, 1061.582 965.966, 1055.384 968.860 M 758.020 970.697 C 750.739 974.469, 748 982.343, 748 999.500 C 748 1021.760, 753.057 1030.009, 766.838 1030.229 C 781.370 1030.460, 786.611 1021.026, 785.833 996.039 C 785.493 985.146, 785.113 982.819, 782.971 978.540 C 779.492 971.589, 776.394 969.634, 768.218 969.228 C 763.197 968.978, 760.621 969.349, 758.020 970.697 M 0.430 1087 C 0.430 1099.925, 0.573 1105.213, 0.747 1098.750 C 0.921 1092.287, 0.921 1081.713, 0.747 1075.250 C 0.573 1068.787, 0.430 1074.075, 0.430 1087" stroke="none" fill="#fbfbfb" fill-rule="evenodd"/></svg>