<svg xmlns="http://www.w3.org/2000/svg" width="1400" height="1400" viewBox="0 0 1400 1400" version="1.1"><path d="M 273.592 1.621 C 273.249 2.514, 274.324 6.108, 275.985 9.624 C 277.643 13.134, 279 16.407, 279 16.899 C 279 17.390, 280.514 21.102, 282.364 25.146 C 284.214 29.191, 287.190 35.875, 288.977 40 C 292.424 47.956, 297.238 57.642, 302.644 67.500 C 304.454 70.800, 307.109 75.750, 308.545 78.500 C 317.284 95.234, 331.730 116.241, 352.557 142.500 C 366.555 160.149, 401.492 194.631, 419.426 208.500 C 423.693 211.800, 428.919 215.850, 431.039 217.500 C 436.128 221.461, 439.756 224.165, 442.442 226 C 443.650 226.825, 447.240 229.300, 450.419 231.500 C 456.406 235.643, 457.755 236.497, 470.113 243.963 C 477.616 248.497, 478.863 249.207, 489.500 254.996 C 501.736 261.656, 522.319 271.547, 526 272.536 C 527.375 272.906, 529.565 273.881, 530.866 274.703 C 532.167 275.525, 536.217 277.256, 539.866 278.549 C 543.515 279.841, 551 282.530, 556.500 284.524 C 562 286.518, 568.300 288.581, 570.500 289.109 C 572.700 289.637, 577.875 291.140, 582 292.448 C 591.667 295.515, 612.619 300.202, 631 303.409 C 675.421 311.160, 739.456 310.775, 787.756 302.468 C 799.053 300.525, 808.675 298.701, 809.139 298.414 C 809.603 298.128, 814.149 297.056, 819.241 296.032 C 824.333 295.009, 831.076 293.233, 834.225 292.086 C 837.374 290.939, 840.749 289.981, 841.725 289.959 C 843.252 289.923, 852.572 286.836, 873.500 279.435 C 876.250 278.462, 880.586 276.616, 883.135 275.333 C 885.685 274.050, 888.278 273, 888.897 273 C 889.933 273, 895.310 270.609, 911.623 262.895 C 914.990 261.303, 918.183 260, 918.718 260 C 919.252 260, 920.468 259.140, 921.419 258.090 C 922.369 257.039, 924.352 255.886, 925.824 255.527 C 927.296 255.168, 930.075 253.842, 932 252.581 C 936.396 249.702, 945.011 244.703, 947.019 243.868 C 947.854 243.520, 952.228 240.708, 956.740 237.618 C 961.252 234.528, 965.177 232, 965.463 232 C 965.749 232, 967.978 230.537, 970.417 228.750 C 972.855 226.963, 976.485 224.375, 978.482 223 C 985.298 218.307, 1011.480 196.674, 1021.352 187.578 C 1037.660 172.551, 1065.172 141.616, 1075.224 127 C 1076.170 125.625, 1078.549 122.250, 1080.510 119.500 C 1082.471 116.750, 1085.690 112.025, 1087.664 109 C 1089.638 105.975, 1092.572 101.537, 1094.185 99.138 C 1095.797 96.739, 1100.490 88.639, 1104.612 81.138 C 1108.734 73.637, 1112.507 66.825, 1112.996 66 C 1113.485 65.175, 1115.214 61.575, 1116.838 58 C 1118.462 54.425, 1121.413 48.018, 1123.395 43.762 C 1125.378 39.506, 1127 35.551, 1127 34.972 C 1127 34.394, 1127.945 32.067, 1129.101 29.803 C 1130.256 27.538, 1131.877 23.393, 1132.703 20.593 C 1133.528 17.792, 1134.571 15.049, 1135.019 14.498 C 1136.778 12.334, 1139.921 2.959, 1139.370 1.522 C 1138.853 0.174, 1127.517 0, 1040.067 0 L 941.349 0 939.395 2.250 C 938.320 3.488, 935.917 6.750, 934.054 9.500 C 914.645 38.156, 886.771 65.504, 859 83.140 C 855.975 85.061, 851.700 87.761, 849.500 89.140 C 844.889 92.031, 820.710 104, 819.482 104 C 819.030 104, 815.699 105.305, 812.080 106.900 C 797.292 113.417, 772.198 120.043, 748.500 123.689 C 733.510 125.995, 728.485 126.305, 706 126.309 C 683.213 126.313, 678.851 126.039, 665 123.726 C 648.536 120.976, 623.861 115.002, 619.263 112.653 C 617.743 111.876, 614.989 110.915, 613.142 110.517 C 609.736 109.783, 601.400 106.254, 590.500 100.930 C 587.200 99.318, 584.025 97.999, 583.444 98 C 582.864 98, 580.864 96.875, 579 95.500 C 577.136 94.125, 574.985 93, 574.219 93 C 573.453 93, 570.953 91.705, 568.663 90.123 C 566.374 88.541, 561.125 85.134, 557 82.552 C 552.875 79.970, 547.700 76.524, 545.500 74.894 C 543.300 73.265, 539.925 70.879, 538 69.591 C 526.294 61.765, 496.203 30.825, 485.880 16 C 483.007 11.875, 479.105 6.588, 477.208 4.250 L 473.759 0 373.987 0 C 282.908 0, 274.160 0.141, 273.592 1.621 M 0 365 C 0 455.410, 0.140 464, 1.613 464 C 2.500 464, 4.637 465.155, 6.363 466.566 C 8.088 467.978, 12.187 470.891, 15.472 473.041 C 36.864 487.043, 64.263 513.876, 79.086 535.340 C 91.578 553.429, 96.615 562.204, 104.212 579.116 C 111.645 595.661, 114.177 602.098, 116.559 610.500 C 117.495 613.800, 118.892 618.235, 119.664 620.355 C 120.436 622.475, 122.643 632.150, 124.567 641.855 C 131.701 677.824, 131.675 719.762, 124.496 754.524 C 122.567 763.861, 120.489 772.625, 119.877 774 C 119.265 775.375, 117.743 780.100, 116.495 784.500 C 114.480 791.604, 110.659 801.623, 106.581 810.500 C 101.962 820.553, 96.374 831.851, 94.958 834 C 94.052 835.375, 91.577 839.425, 89.459 843 C 73.336 870.211, 45.846 900.059, 18.287 920.278 C 5.928 929.346, 3.381 931, 1.777 931 C 0.086 931, 0 935.850, 0 1030.955 L 0 1130.909 3.484 1131.563 C 6.125 1132.058, 7.879 1131.677, 10.734 1129.987 C 12.805 1128.760, 16.672 1127.109, 19.327 1126.317 C 21.982 1125.525, 25.582 1124.006, 27.327 1122.942 C 29.072 1121.878, 31.091 1121.006, 31.813 1121.004 C 33.958 1120.998, 64.498 1106.187, 79 1098.120 C 82.025 1096.437, 86.300 1094.085, 88.500 1092.893 C 90.700 1091.702, 93.772 1089.663, 95.327 1088.363 C 96.881 1087.064, 98.560 1086, 99.056 1086 C 100.367 1086, 116.625 1074.904, 130.503 1064.539 C 165.669 1038.273, 197.696 1005.638, 227.096 966.110 C 230.937 960.945, 235.262 954.645, 236.706 952.110 C 238.151 949.574, 240.083 946.600, 241 945.500 C 243.630 942.346, 256.130 920.855, 261.358 910.500 C 262.746 907.750, 264.511 904.375, 265.279 903 C 266.047 901.625, 267.817 898.025, 269.212 895 C 270.607 891.975, 272.899 887.025, 274.304 884 C 281.182 869.192, 294.987 829.957, 296.528 820.833 C 296.922 818.503, 298.020 814.775, 298.969 812.548 C 299.918 810.322, 301.005 806.025, 301.385 803 C 301.764 799.975, 302.456 796.150, 302.922 794.500 C 304.576 788.641, 306.988 775.301, 308.981 761 C 316.683 705.712, 313.672 647.355, 300.028 587.500 C 298.600 581.232, 293.286 562.024, 291.454 556.500 C 284.445 535.377, 279.104 521.187, 274.447 511.313 C 273.101 508.460, 272 505.824, 272 505.454 C 272 502.489, 245.381 453.661, 240.951 448.500 C 240.007 447.400, 238.443 444.937, 237.476 443.027 C 230.341 428.931, 192.999 384.577, 171.411 364.556 C 160.285 354.237, 141.117 337.918, 134.820 333.403 C 132.444 331.699, 127.575 328.207, 124 325.641 C 118.118 321.421, 112.009 317.409, 100.500 310.208 C 98.300 308.831, 94.574 306.422, 92.221 304.853 C 89.867 303.284, 87.462 302, 86.875 302 C 86.289 302, 84.553 301.106, 83.019 300.014 C 81.485 298.921, 78.266 297.143, 75.865 296.061 C 73.464 294.979, 70.375 293.428, 69 292.613 C 67.625 291.798, 62.900 289.468, 58.500 287.435 C 54.100 285.402, 48.409 282.672, 45.853 281.369 C 43.297 280.066, 40.597 278.998, 39.853 278.996 C 39.109 278.994, 35.800 277.646, 32.500 276 C 29.200 274.354, 25.882 273.006, 25.126 273.004 C 24.370 273.002, 20.263 271.425, 16 269.500 C 11.169 267.319, 6.694 266, 4.124 266 L 0 266 0 365 M 1393 270 C 1389.975 271.598, 1386.780 272.927, 1385.899 272.953 C 1385.018 272.979, 1382.288 274.069, 1379.832 275.374 C 1377.376 276.680, 1374.271 278.066, 1372.933 278.453 C 1368.902 279.619, 1333.733 297.165, 1330.406 299.670 C 1328.704 300.952, 1326.976 302, 1326.566 302 C 1325.675 302, 1306.570 313.539, 1303 316.233 C 1301.625 317.271, 1297.019 320.455, 1292.765 323.310 C 1266.820 340.718, 1234.470 369.910, 1208.886 399 C 1191.889 418.327, 1171.659 446.748, 1159.061 469 C 1158.594 469.825, 1156.634 473.200, 1154.706 476.500 C 1137.643 505.708, 1119.811 550.929, 1111.329 586.500 C 1110.543 589.800, 1109.271 594.750, 1108.505 597.500 C 1105.721 607.481, 1100.099 645.892, 1099.064 662 C 1096.940 695.043, 1098.253 740.298, 1101.994 763 C 1103.036 769.325, 1104.169 776.750, 1104.512 779.500 C 1105.485 787.297, 1109.893 807.478, 1113.032 818.500 C 1114.598 824, 1116.185 830.075, 1116.560 832 C 1116.934 833.925, 1118.250 838.200, 1119.484 841.500 C 1120.719 844.800, 1122.435 849.750, 1123.300 852.500 C 1126.218 861.785, 1132.477 877.707, 1137.123 887.664 C 1138.706 891.055, 1140 894.487, 1140 895.292 C 1140 896.097, 1140.652 897.296, 1141.449 897.958 C 1142.246 898.619, 1143.413 900.721, 1144.042 902.628 C 1145.318 906.495, 1150.923 917.368, 1156.346 926.500 C 1158.306 929.800, 1161.052 934.525, 1162.448 937 C 1171.866 953.700, 1189.758 978.675, 1205.294 996.810 C 1228.208 1023.557, 1255.951 1049.186, 1283.981 1069.500 C 1291.418 1074.890, 1315.020 1090.137, 1320.458 1093.065 C 1322.131 1093.966, 1325.975 1096.131, 1329 1097.875 C 1332.025 1099.620, 1336.075 1101.722, 1338 1102.548 C 1339.925 1103.373, 1342.175 1104.499, 1343 1105.049 C 1343.825 1105.600, 1346.525 1106.958, 1349 1108.068 C 1351.475 1109.179, 1355.750 1111.183, 1358.500 1112.523 C 1367.352 1116.837, 1377.106 1121, 1378.358 1121 C 1379.029 1121, 1381.360 1121.913, 1383.539 1123.028 C 1385.717 1124.144, 1389.695 1125.712, 1392.379 1126.512 C 1395.062 1127.313, 1397.874 1128.481, 1398.629 1129.107 C 1399.789 1130.070, 1400 1114.615, 1400 1028.695 L 1400 927.145 1397.365 925.073 C 1395.916 923.933, 1394.315 923, 1393.807 923 C 1391.691 923, 1374.596 908.679, 1361.672 896.081 C 1348.652 883.388, 1338.056 870.945, 1328.715 857.380 C 1319.536 844.051, 1317.976 841.359, 1309.513 824.236 C 1294.341 793.542, 1285.755 763.086, 1282.027 726.741 C 1279.799 705.028, 1279.539 693.161, 1280.991 679.500 C 1281.517 674.550, 1282.396 666.225, 1282.944 661 C 1284.743 643.853, 1292.663 614.059, 1300.488 595 C 1303.210 588.370, 1314.619 564.929, 1317.766 559.500 C 1324.421 548.019, 1338.738 528.412, 1348.800 517 C 1360.558 503.665, 1378.312 486.961, 1389 479.178 C 1392.025 476.975, 1395.737 474.200, 1397.250 473.010 L 1400 470.848 1400 368.924 C 1400 312.866, 1399.662 267.021, 1399.250 267.047 C 1398.838 267.073, 1396.025 268.402, 1393 270 M 680.500 519.495 C 667.946 521.448, 654.666 524.428, 647 527.014 C 635.577 530.866, 615.605 540.031, 609.287 544.319 C 607.519 545.519, 603.919 547.827, 601.287 549.449 C 589.949 556.435, 566.939 578.474, 557.906 591 C 544.921 609.005, 534.142 630.043, 529.468 646.500 C 524.168 665.161, 520.293 693.345, 521.423 705 C 521.716 708.025, 522.464 715.675, 523.084 722 C 523.704 728.325, 525.111 736.875, 526.209 741 C 527.308 745.125, 528.803 750.750, 529.533 753.500 C 533.541 768.612, 545.933 792.958, 557.546 808.538 C 568.607 823.375, 588.083 841.874, 602 850.761 C 605.575 853.044, 609.625 855.768, 611 856.815 C 612.375 857.862, 614.625 859.073, 616 859.506 C 617.375 859.938, 620.075 861.286, 622 862.500 C 623.925 863.714, 626.625 865.045, 628 865.457 C 629.375 865.868, 631.850 866.963, 633.500 867.889 C 638.098 870.470, 655.106 875.630, 669 878.661 C 680.348 881.136, 683.435 881.391, 702.500 881.422 C 722.287 881.455, 724.400 881.272, 739.076 878.257 C 747.644 876.498, 756.644 874.155, 759.076 873.051 C 761.509 871.947, 764.237 871.034, 765.138 871.022 C 766.962 870.997, 777.332 866.545, 786.500 861.849 C 802.377 853.718, 821.690 839.346, 834.159 826.383 C 841.723 818.520, 853.607 803.571, 856.723 798 C 858.107 795.525, 860.535 791.574, 862.120 789.221 C 863.704 786.867, 865 784.617, 865 784.221 C 864.999 783.824, 866.300 780.800, 867.891 777.500 C 872.162 768.636, 874.753 762.171, 876.508 756 C 877.368 752.975, 878.959 747.575, 880.043 744 C 882.786 734.956, 885.006 715.196, 884.968 700.158 C 884.934 686.722, 882.013 660.514, 879.990 655.500 C 879.324 653.850, 878.147 649.859, 877.374 646.631 C 875.300 637.974, 867.646 620.399, 861.204 609.500 C 847.835 586.883, 831.100 568.287, 810.993 553.708 C 799.108 545.089, 794.003 541.849, 786.294 538.030 C 759.918 524.966, 735.660 518.969, 707 518.427 C 695.374 518.207, 686.479 518.566, 680.500 519.495 M 682.500 1088.017 C 665.421 1088.759, 634.348 1092.146, 622 1094.611 C 617.875 1095.434, 609.984 1096.953, 604.464 1097.985 C 598.944 1099.017, 590.844 1100.849, 586.464 1102.056 C 572.837 1105.812, 558.694 1109.998, 554 1111.667 C 551.525 1112.547, 547.475 1113.915, 545 1114.707 C 542.525 1115.500, 538.925 1116.855, 537 1117.720 C 535.075 1118.584, 530.800 1120.303, 527.500 1121.541 C 517.215 1125.399, 508.563 1129.175, 507 1130.487 C 506.175 1131.180, 503.751 1132.309, 501.614 1132.996 C 499.477 1133.683, 496.151 1135.315, 494.224 1136.622 C 492.297 1137.930, 490.066 1139, 489.265 1139 C 488.464 1139, 486.614 1139.842, 485.154 1140.872 C 483.694 1141.901, 480.250 1143.939, 477.500 1145.400 C 468.200 1150.342, 463.625 1153.030, 461.980 1154.518 C 461.080 1155.333, 459.850 1156, 459.248 1156 C 458.646 1156, 456.881 1157.062, 455.327 1158.359 C 453.772 1159.657, 451.150 1161.476, 449.500 1162.402 C 442.135 1166.534, 426.867 1177.868, 410.179 1191.591 C 375.557 1220.061, 347.783 1250.757, 323.399 1287.500 C 320.844 1291.350, 318.021 1295.572, 317.127 1296.882 C 314.531 1300.684, 313.806 1301.917, 307.657 1313 C 304.452 1318.775, 301.431 1324.175, 300.942 1325 C 298.226 1329.586, 286.653 1354.172, 284.673 1359.565 C 283.064 1363.946, 280.561 1370.073, 274.847 1383.619 C 272.731 1388.634, 271 1394.372, 271 1396.369 L 271 1400 370.500 1400 C 468.010 1400, 470 1399.962, 470 1398.077 C 470 1397.019, 471.238 1394.685, 472.750 1392.891 C 474.262 1391.097, 477.300 1386.843, 479.500 1383.439 C 490.822 1365.919, 512.411 1343.124, 532.430 1327.551 C 534.515 1325.930, 538.084 1323.121, 540.360 1321.311 C 542.637 1319.501, 544.879 1318.015, 545.342 1318.010 C 545.805 1318.004, 547.380 1317.076, 548.842 1315.947 C 553.926 1312.019, 559.561 1308.639, 569.618 1303.484 C 575.183 1300.632, 580.795 1297.556, 582.090 1296.649 C 583.385 1295.742, 585.304 1295, 586.354 1295 C 587.405 1295, 589.720 1294.100, 591.499 1293.001 C 596.590 1289.854, 622.681 1281.244, 635.500 1278.480 C 639.350 1277.650, 646.550 1276.094, 651.500 1275.022 C 666.596 1271.754, 678.380 1270.857, 705.238 1270.930 C 730.971 1271, 744.787 1272.182, 757 1275.360 C 760.025 1276.147, 764.525 1277.095, 767 1277.467 C 771.748 1278.181, 788.736 1283.085, 795.500 1285.695 C 797.700 1286.544, 801.750 1288.041, 804.500 1289.021 C 809.981 1290.975, 820.346 1295.468, 823.500 1297.256 C 824.600 1297.880, 828.425 1299.921, 832 1301.793 C 849.544 1310.975, 852.685 1312.946, 868.842 1324.911 C 889.756 1340.398, 909.142 1359.833, 924.291 1380.500 C 927.920 1385.450, 932.263 1391.130, 933.944 1393.122 C 935.625 1395.113, 937 1397.476, 937 1398.372 C 937 1399.865, 945.280 1400, 1037.097 1400 L 1137.193 1400 1136.752 1395.250 C 1136.510 1392.638, 1134.620 1386.675, 1132.552 1382 C 1130.483 1377.325, 1127.918 1371.250, 1126.851 1368.500 C 1121.386 1354.420, 1102.239 1317.233, 1094.836 1306.320 C 1093.276 1304.021, 1092 1301.957, 1092 1301.734 C 1092 1300.856, 1078.961 1281.864, 1070.557 1270.500 C 1050.933 1243.966, 1026.891 1218.713, 997 1193.241 C 982.498 1180.883, 957.291 1162.704, 945.685 1156.232 C 943.448 1154.985, 940.917 1153.363, 940.059 1152.629 C 939.202 1151.894, 937.150 1150.600, 935.500 1149.753 C 933.850 1148.906, 930.025 1146.811, 927 1145.098 C 923.975 1143.385, 918.800 1140.633, 915.500 1138.982 C 912.200 1137.331, 908.825 1135.582, 908 1135.094 C 905.947 1133.882, 895.248 1128.954, 885 1124.501 C 880.325 1122.470, 874.128 1119.726, 871.228 1118.404 C 868.328 1117.082, 865.319 1116, 864.542 1116 C 863.764 1116, 859.612 1114.711, 855.314 1113.135 C 839.136 1107.204, 817.731 1101.063, 802.500 1097.985 C 781.984 1093.838, 776.721 1092.956, 760.500 1090.949 C 745.708 1089.119, 710.300 1086.874, 701.500 1087.208 C 699.850 1087.270, 691.300 1087.635, 682.500 1088.017" stroke="none" fill="#2e349b" fill-rule="evenodd"/><path d="M 0 133 L 0 266 4.124 266 C 6.694 266, 11.169 267.319, 16 269.500 C 20.263 271.425, 24.370 273.002, 25.126 273.004 C 25.882 273.006, 29.200 274.354, 32.500 276 C 35.800 277.646, 39.109 278.994, 39.853 278.996 C 40.597 278.998, 43.297 280.066, 45.853 281.369 C 48.409 282.672, 54.100 285.402, 58.500 287.435 C 62.900 289.468, 67.625 291.798, 69 292.613 C 70.375 293.428, 73.464 294.979, 75.865 296.061 C 78.266 297.143, 81.485 298.921, 83.019 300.014 C 84.553 301.106, 86.289 302, 86.875 302 C 87.462 302, 89.867 303.284, 92.221 304.853 C 94.574 306.422, 98.300 308.831, 100.500 310.208 C 111.473 317.073, 117.869 321.221, 121.500 323.825 C 123.700 325.403, 128.578 328.901, 132.340 331.597 C 156.932 349.226, 191.785 383.030, 214.269 411.061 C 223.786 422.925, 235.396 438.917, 237.476 443.027 C 238.443 444.937, 240.007 447.400, 240.951 448.500 C 245.381 453.661, 272 502.489, 272 505.454 C 272 505.824, 273.101 508.460, 274.447 511.313 C 279.104 521.187, 284.445 535.377, 291.454 556.500 C 293.286 562.024, 298.600 581.232, 300.028 587.500 C 313.672 647.355, 316.683 705.712, 308.981 761 C 306.988 775.301, 304.576 788.641, 302.922 794.500 C 302.456 796.150, 301.764 799.975, 301.385 803 C 301.005 806.025, 299.918 810.322, 298.969 812.548 C 298.020 814.775, 296.922 818.503, 296.528 820.833 C 294.987 829.957, 281.182 869.192, 274.304 884 C 272.899 887.025, 270.607 891.975, 269.212 895 C 267.817 898.025, 266.047 901.625, 265.279 903 C 264.511 904.375, 262.746 907.750, 261.358 910.500 C 256.130 920.855, 243.630 942.346, 241 945.500 C 240.083 946.600, 238.151 949.574, 236.706 952.110 C 235.262 954.645, 230.937 960.945, 227.096 966.110 C 197.696 1005.638, 165.669 1038.273, 130.503 1064.539 C 116.625 1074.904, 100.367 1086, 99.056 1086 C 98.560 1086, 96.881 1087.064, 95.327 1088.363 C 93.772 1089.663, 90.700 1091.702, 88.500 1092.893 C 86.300 1094.085, 82.025 1096.437, 79 1098.120 C 64.498 1106.187, 33.958 1120.998, 31.813 1121.004 C 31.091 1121.006, 29.072 1121.878, 27.327 1122.942 C 25.582 1124.006, 21.982 1125.525, 19.327 1126.317 C 16.672 1127.109, 12.805 1128.760, 10.734 1129.987 C 7.879 1131.677, 6.125 1132.058, 3.484 1131.563 L 0 1130.909 0 1265.455 L 0 1400 135.500 1400 L 271 1400 271 1396.369 C 271 1394.372, 272.731 1388.634, 274.847 1383.619 C 280.561 1370.073, 283.064 1363.946, 284.673 1359.565 C 286.653 1354.172, 298.226 1329.586, 300.942 1325 C 301.431 1324.175, 304.452 1318.775, 307.657 1313 C 313.806 1301.917, 314.531 1300.684, 317.127 1296.882 C 318.021 1295.572, 320.844 1291.350, 323.399 1287.500 C 347.783 1250.757, 375.557 1220.061, 410.179 1191.591 C 426.867 1177.868, 442.135 1166.534, 449.500 1162.402 C 451.150 1161.476, 453.772 1159.657, 455.327 1158.359 C 456.881 1157.062, 458.646 1156, 459.248 1156 C 459.850 1156, 461.080 1155.333, 461.980 1154.518 C 463.625 1153.030, 468.200 1150.342, 477.500 1145.400 C 480.250 1143.939, 483.694 1141.901, 485.154 1140.872 C 486.614 1139.842, 488.464 1139, 489.265 1139 C 490.066 1139, 492.297 1137.930, 494.224 1136.622 C 496.151 1135.315, 499.477 1133.683, 501.614 1132.996 C 503.751 1132.309, 506.175 1131.180, 507 1130.487 C 508.563 1129.175, 517.215 1125.399, 527.500 1121.541 C 530.800 1120.303, 535.075 1118.584, 537 1117.720 C 538.925 1116.855, 542.525 1115.500, 545 1114.707 C 547.475 1113.915, 551.525 1112.547, 554 1111.667 C 558.694 1109.998, 572.837 1105.812, 586.464 1102.056 C 590.844 1100.849, 598.944 1099.017, 604.464 1097.985 C 609.984 1096.953, 617.875 1095.436, 622 1094.613 C 635.158 1091.991, 664.879 1088.876, 685 1088.010 C 708.654 1086.991, 737.631 1088.120, 760.500 1090.949 C 776.721 1092.956, 781.984 1093.838, 802.500 1097.985 C 817.731 1101.063, 839.136 1107.204, 855.314 1113.135 C 859.612 1114.711, 863.764 1116, 864.542 1116 C 865.319 1116, 868.328 1117.082, 871.228 1118.404 C 874.128 1119.726, 880.325 1122.470, 885 1124.501 C 895.248 1128.954, 905.947 1133.882, 908 1135.094 C 908.825 1135.582, 912.200 1137.331, 915.500 1138.982 C 918.800 1140.633, 923.975 1143.385, 927 1145.098 C 930.025 1146.811, 933.850 1148.906, 935.500 1149.753 C 937.150 1150.600, 939.202 1151.894, 940.059 1152.629 C 940.917 1153.363, 943.448 1154.985, 945.685 1156.232 C 957.291 1162.704, 982.498 1180.883, 997 1193.241 C 1026.891 1218.713, 1050.933 1243.966, 1070.557 1270.500 C 1078.961 1281.864, 1092 1300.856, 1092 1301.734 C 1092 1301.957, 1093.276 1304.021, 1094.836 1306.320 C 1102.239 1317.233, 1121.386 1354.420, 1126.851 1368.500 C 1127.918 1371.250, 1130.483 1377.325, 1132.552 1382 C 1134.620 1386.675, 1136.510 1392.639, 1136.753 1395.254 L 1137.194 1400.007 1268.847 1399.754 L 1400.500 1399.500 1400.754 1265.113 C 1400.993 1138.021, 1400.912 1130.654, 1399.254 1129.395 C 1398.289 1128.663, 1395.250 1127.390, 1392.500 1126.566 C 1389.750 1125.741, 1385.717 1124.151, 1383.539 1123.033 C 1381.360 1121.915, 1379.029 1121, 1378.358 1121 C 1377.106 1121, 1367.352 1116.837, 1358.500 1112.523 C 1355.750 1111.183, 1351.475 1109.179, 1349 1108.068 C 1346.525 1106.958, 1343.825 1105.600, 1343 1105.049 C 1342.175 1104.499, 1339.925 1103.373, 1338 1102.548 C 1336.075 1101.722, 1332.025 1099.620, 1329 1097.875 C 1325.975 1096.131, 1322.131 1093.966, 1320.458 1093.065 C 1315.020 1090.137, 1291.418 1074.890, 1283.981 1069.500 C 1255.951 1049.186, 1228.208 1023.557, 1205.294 996.810 C 1189.758 978.675, 1171.866 953.700, 1162.448 937 C 1161.052 934.525, 1158.306 929.800, 1156.346 926.500 C 1150.923 917.368, 1145.318 906.495, 1144.042 902.628 C 1143.413 900.721, 1142.246 898.619, 1141.449 897.958 C 1140.652 897.296, 1140 896.097, 1140 895.292 C 1140 894.487, 1138.706 891.055, 1137.123 887.664 C 1132.477 877.707, 1126.218 861.785, 1123.300 852.500 C 1122.435 849.750, 1120.719 844.800, 1119.484 841.500 C 1118.250 838.200, 1116.934 833.925, 1116.560 832 C 1116.185 830.075, 1114.598 824, 1113.032 818.500 C 1109.893 807.478, 1105.485 787.297, 1104.512 779.500 C 1104.169 776.750, 1103.036 769.325, 1101.994 763 C 1098.253 740.298, 1096.940 695.043, 1099.064 662 C 1100.099 645.892, 1105.721 607.481, 1108.505 597.500 C 1109.271 594.750, 1110.543 589.800, 1111.329 586.500 C 1115.954 567.102, 1122.332 547.651, 1131.987 523.500 C 1137.383 510.001, 1148.164 487.699, 1154.706 476.500 C 1156.634 473.200, 1158.594 469.825, 1159.061 469 C 1171.659 446.748, 1191.889 418.327, 1208.886 399 C 1234.470 369.910, 1266.820 340.718, 1292.765 323.310 C 1297.019 320.455, 1301.625 317.271, 1303 316.233 C 1306.570 313.539, 1325.675 302, 1326.566 302 C 1326.976 302, 1328.704 300.952, 1330.406 299.670 C 1333.733 297.165, 1368.902 279.619, 1372.933 278.453 C 1374.271 278.066, 1377.376 276.680, 1379.832 275.374 C 1382.288 274.069, 1384.919 273, 1385.677 273 C 1387.534 273, 1399.311 267.031, 1400.235 265.621 C 1400.639 265.004, 1400.976 204.988, 1400.985 132.250 L 1401 0 1270.167 0 L 1139.333 0 1139.320 2.750 C 1139.312 4.263, 1137.916 8.457, 1136.217 12.072 C 1134.518 15.687, 1132.809 19.962, 1132.421 21.572 C 1132.032 23.182, 1130.653 26.623, 1129.357 29.217 C 1128.061 31.811, 1127 34.404, 1127 34.979 C 1127 35.554, 1125.378 39.506, 1123.395 43.762 C 1121.413 48.018, 1118.462 54.425, 1116.838 58 C 1115.214 61.575, 1113.485 65.175, 1112.996 66 C 1112.507 66.825, 1108.734 73.637, 1104.612 81.138 C 1100.490 88.639, 1095.797 96.739, 1094.185 99.138 C 1092.572 101.537, 1089.638 105.975, 1087.664 109 C 1085.690 112.025, 1082.471 116.750, 1080.510 119.500 C 1078.549 122.250, 1076.170 125.625, 1075.224 127 C 1065.172 141.616, 1037.660 172.551, 1021.352 187.578 C 1011.480 196.674, 985.298 218.307, 978.482 223 C 976.485 224.375, 972.855 226.963, 970.417 228.750 C 967.978 230.538, 965.749 232, 965.463 232 C 965.177 232, 961.252 234.528, 956.740 237.618 C 952.228 240.708, 947.854 243.520, 947.019 243.868 C 945.011 244.703, 936.396 249.702, 932 252.581 C 930.075 253.842, 927.296 255.168, 925.824 255.527 C 924.352 255.886, 922.369 257.039, 921.419 258.090 C 920.468 259.140, 919.252 260, 918.718 260 C 918.183 260, 914.990 261.303, 911.623 262.895 C 895.310 270.609, 889.933 273, 888.897 273 C 888.278 273, 885.685 274.050, 883.135 275.333 C 880.586 276.616, 876.250 278.462, 873.500 279.435 C 852.572 286.836, 843.252 289.923, 841.725 289.959 C 840.749 289.981, 837.374 290.939, 834.225 292.086 C 831.076 293.233, 824.333 295.009, 819.241 296.032 C 814.149 297.056, 809.603 298.128, 809.139 298.414 C 808.675 298.701, 799.053 300.525, 787.756 302.468 C 739.456 310.775, 675.421 311.160, 631 303.409 C 612.619 300.202, 591.667 295.515, 582 292.448 C 577.875 291.140, 572.700 289.637, 570.500 289.109 C 568.300 288.581, 562 286.518, 556.500 284.524 C 551 282.530, 543.515 279.841, 539.866 278.549 C 536.217 277.256, 532.167 275.525, 530.866 274.703 C 529.565 273.881, 527.375 272.906, 526 272.536 C 522.319 271.547, 501.736 261.656, 489.500 254.996 C 478.863 249.207, 477.616 248.497, 470.113 243.963 C 457.755 236.497, 456.406 235.643, 450.419 231.500 C 447.240 229.300, 443.650 226.825, 442.442 226 C 439.756 224.165, 436.128 221.461, 431.039 217.500 C 428.919 215.850, 423.693 211.800, 419.426 208.500 C 407.993 199.659, 391.353 184.216, 374.550 166.851 C 348.978 140.425, 322.083 104.424, 308.545 78.500 C 307.109 75.750, 304.454 70.800, 302.644 67.500 C 297.238 57.642, 292.424 47.956, 288.977 40 C 287.190 35.875, 284.214 29.191, 282.364 25.146 C 280.514 21.102, 279 17.390, 279 16.899 C 279 16.407, 277.643 13.134, 275.985 9.624 C 274.324 6.108, 273.249 2.514, 273.592 1.621 C 274.164 0.131, 263.124 0, 137.107 0 L 0 0 0 133 M 477.208 4.250 C 479.105 6.588, 483.007 11.875, 485.880 16 C 496.203 30.825, 526.294 61.765, 538 69.591 C 539.925 70.879, 543.300 73.265, 545.500 74.894 C 547.700 76.524, 552.875 79.970, 557 82.552 C 561.125 85.134, 566.374 88.541, 568.663 90.123 C 570.953 91.705, 573.453 93, 574.219 93 C 574.985 93, 577.136 94.125, 579 95.500 C 580.864 96.875, 582.864 98, 583.444 98 C 584.025 97.999, 587.200 99.318, 590.500 100.930 C 601.400 106.254, 609.736 109.783, 613.142 110.517 C 614.989 110.915, 617.743 111.876, 619.263 112.653 C 623.861 115.002, 648.536 120.976, 665 123.726 C 678.851 126.039, 683.213 126.313, 706 126.309 C 728.485 126.305, 733.510 125.995, 748.500 123.689 C 772.198 120.043, 797.292 113.417, 812.080 106.900 C 815.699 105.305, 819.030 104, 819.482 104 C 820.710 104, 844.889 92.031, 849.500 89.140 C 851.700 87.761, 855.975 85.061, 859 83.140 C 886.771 65.504, 914.645 38.156, 934.054 9.500 C 935.917 6.750, 938.320 3.488, 939.395 2.250 L 941.349 0 707.554 0 L 473.759 -0 477.208 4.250 M 0.486 133.500 C 0.486 206.650, 0.605 236.427, 0.750 199.672 C 0.895 162.917, 0.895 103.067, 0.750 66.672 C 0.604 30.277, 0.486 60.350, 0.486 133.500 M 0 697.500 C 0 920.561, 0.079 931, 1.777 931 C 3.381 931, 5.928 929.346, 18.287 920.278 C 45.846 900.059, 73.336 870.211, 89.459 843 C 91.577 839.425, 94.052 835.375, 94.958 834 C 96.374 831.851, 101.962 820.553, 106.581 810.500 C 110.659 801.623, 114.480 791.604, 116.495 784.500 C 117.743 780.100, 119.265 775.375, 119.877 774 C 120.489 772.625, 122.567 763.861, 124.496 754.524 C 131.675 719.762, 131.701 677.824, 124.567 641.855 C 122.643 632.150, 120.436 622.475, 119.664 620.355 C 118.892 618.235, 117.495 613.800, 116.559 610.500 C 114.177 602.098, 111.645 595.661, 104.212 579.116 C 96.615 562.204, 91.578 553.429, 79.086 535.340 C 64.263 513.876, 36.864 487.043, 15.472 473.041 C 12.187 470.891, 8.088 467.978, 6.363 466.566 C 4.637 465.155, 2.500 464, 1.613 464 C 0.134 464, 0 483.356, 0 697.500 M 1396.852 473.282 C 1395.395 474.502, 1391.795 477.224, 1388.852 479.330 C 1378.650 486.632, 1360.645 503.565, 1348.800 517 C 1338.738 528.412, 1324.421 548.019, 1317.766 559.500 C 1314.619 564.929, 1303.210 588.370, 1300.488 595 C 1292.663 614.059, 1284.743 643.853, 1282.944 661 C 1282.396 666.225, 1281.517 674.550, 1280.991 679.500 C 1279.539 693.161, 1279.799 705.028, 1282.027 726.741 C 1285.755 763.086, 1294.341 793.542, 1309.513 824.236 C 1317.964 841.335, 1319.527 844.034, 1328.701 857.380 C 1337.777 870.585, 1344.025 878.101, 1356.919 891.328 C 1369.211 903.937, 1391.413 923, 1393.807 923 C 1394.315 923, 1395.916 923.933, 1397.365 925.073 L 1400 927.145 1400 699.073 C 1400 573.633, 1399.888 471.014, 1399.750 471.032 C 1399.612 471.049, 1398.308 472.061, 1396.852 473.282 M 680.500 519.495 C 667.946 521.448, 654.666 524.428, 647 527.014 C 635.577 530.866, 615.605 540.031, 609.287 544.319 C 607.519 545.519, 603.919 547.827, 601.287 549.449 C 589.949 556.435, 566.939 578.474, 557.906 591 C 544.921 609.005, 534.142 630.043, 529.468 646.500 C 524.168 665.161, 520.293 693.345, 521.423 705 C 521.716 708.025, 522.464 715.675, 523.084 722 C 523.704 728.325, 525.111 736.875, 526.209 741 C 527.308 745.125, 528.803 750.750, 529.533 753.500 C 533.541 768.612, 545.933 792.958, 557.546 808.538 C 568.607 823.375, 588.083 841.874, 602 850.761 C 605.575 853.044, 609.625 855.768, 611 856.815 C 612.375 857.862, 614.625 859.073, 616 859.506 C 617.375 859.938, 620.075 861.286, 622 862.500 C 623.925 863.714, 626.625 865.045, 628 865.457 C 629.375 865.868, 631.850 866.963, 633.500 867.889 C 638.098 870.470, 655.106 875.630, 669 878.661 C 680.348 881.136, 683.435 881.391, 702.500 881.422 C 722.287 881.455, 724.400 881.272, 739.076 878.257 C 747.644 876.498, 756.644 874.155, 759.076 873.051 C 761.509 871.947, 764.237 871.034, 765.138 871.022 C 766.962 870.997, 777.332 866.545, 786.500 861.849 C 802.377 853.718, 821.690 839.346, 834.159 826.383 C 841.723 818.520, 853.607 803.571, 856.723 798 C 858.107 795.525, 860.535 791.574, 862.120 789.221 C 863.704 786.867, 865 784.617, 865 784.221 C 864.999 783.824, 866.300 780.800, 867.891 777.500 C 872.162 768.636, 874.753 762.171, 876.508 756 C 877.368 752.975, 878.959 747.575, 880.043 744 C 882.786 734.956, 885.006 715.196, 884.968 700.158 C 884.934 686.722, 882.013 660.514, 879.990 655.500 C 879.324 653.850, 878.147 649.859, 877.374 646.631 C 875.300 637.974, 867.646 620.399, 861.204 609.500 C 847.835 586.883, 831.100 568.287, 810.993 553.708 C 799.108 545.089, 794.003 541.849, 786.294 538.030 C 759.918 524.966, 735.660 518.969, 707 518.427 C 695.374 518.207, 686.479 518.566, 680.500 519.495 M 0.486 1265.500 C 0.486 1339.750, 0.605 1370.273, 0.750 1333.328 C 0.895 1296.383, 0.895 1235.633, 0.750 1198.328 C 0.605 1161.023, 0.486 1191.250, 0.486 1265.500 M 687.500 1270.738 C 676.225 1271.121, 661.180 1272.908, 651.500 1275.013 C 646.550 1276.090, 639.350 1277.650, 635.500 1278.480 C 622.681 1281.244, 596.590 1289.854, 591.499 1293.001 C 589.720 1294.100, 587.405 1295, 586.354 1295 C 585.304 1295, 583.385 1295.742, 582.090 1296.649 C 580.795 1297.556, 575.183 1300.632, 569.618 1303.484 C 559.561 1308.639, 553.926 1312.019, 548.842 1315.947 C 547.380 1317.076, 545.805 1318.004, 545.342 1318.010 C 544.879 1318.015, 542.637 1319.501, 540.360 1321.311 C 538.084 1323.121, 534.515 1325.930, 532.430 1327.551 C 512.411 1343.124, 490.822 1365.919, 479.500 1383.439 C 477.300 1386.843, 474.262 1391.097, 472.750 1392.891 C 471.237 1394.685, 470 1397.019, 470 1398.077 C 470 1399.969, 473.772 1400, 703.500 1400 C 918.573 1400, 937 1399.871, 937 1398.372 C 937 1397.476, 935.625 1395.113, 933.944 1393.122 C 932.263 1391.130, 927.920 1385.450, 924.291 1380.500 C 906.656 1356.441, 885.882 1336.583, 857.342 1316.500 C 854.090 1314.212, 845.321 1308.855, 841.253 1306.672 C 839.739 1305.860, 835.575 1303.664, 832 1301.793 C 828.425 1299.921, 824.600 1297.880, 823.500 1297.256 C 820.346 1295.468, 809.981 1290.975, 804.500 1289.021 C 801.750 1288.041, 797.700 1286.544, 795.500 1285.695 C 788.776 1283.100, 771.763 1278.183, 767 1277.458 C 764.525 1277.081, 759.125 1275.956, 755 1274.958 C 741.207 1271.619, 713.163 1269.866, 687.500 1270.738" stroke="none" fill="#fafafb" fill-rule="evenodd"/></svg>